<?xml version="1.0" encoding="utf-8"?>
<!-- Generator: Adobe Illustrator 22.0.1, SVG Export Plug-In . SVG Version: 6.00 Build 0)  -->
<svg version="1.0" id="Capa_1" xmlns="http://www.w3.org/2000/svg" xmlns:xlink="http://www.w3.org/1999/xlink" x="0px" y="0px"
	 viewBox="0 0 150 150" style="enable-background:new 0 0 150 150;" xml:space="preserve">
<style type="text/css">
	.st0{fill:#262626;}
</style>
<g>
	<path class="st0" d="M134.8,16.1H15.3C9.6,16.1,5,20.9,5,26.5v97.1c0,5.8,4.7,10.3,10.3,10.3h119.3c5.8,0,10.3-4.7,10.3-10.3V26.5
		C145.1,20.7,140.4,16.1,134.8,16.1z M49.3,26.8c2.5,0,4.4,2.1,4.4,4.4c0,2.5-2.1,4.4-4.4,4.4c-2.5,0-4.4-2.1-4.4-4.4
		C44.8,28.7,46.7,26.8,49.3,26.8z M35.7,26.8c2.5,0,4.4,2.1,4.4,4.4c0,2.5-2.1,4.4-4.4,4.4c-2.5,0-4.4-2.1-4.4-4.4
		C31.3,28.7,33.3,26.8,35.7,26.8z M22.1,26.8c2.5,0,4.4,2.1,4.4,4.4c0,2.5-2.1,4.4-4.4,4.4c-2.5,0-4.4-2.1-4.4-4.4
		C17.7,28.7,19.8,26.8,22.1,26.8z M135.6,123.5c0,0.4-0.3,0.7-0.7,0.7H15.3c-0.4,0-0.7-0.3-0.7-0.7V46.4h121V123.5z"/>
	<path class="st0" d="M48.2,107c0.9,0.9,2.1,0.9,3,0l5.3-5.5c0.9-0.9,0.9-2.2,0-3L43.2,85.3L56.5,72c0.9-0.9,0.9-2.2,0-3l-5.3-5.5
		c-0.9-0.9-2.1-0.9-3,0L28,83.9c-0.9,0.9-0.9,2.2,0,3L48.2,107z"/>
	<path class="st0" d="M93.5,101.7l5.3,5.5c0.9,0.9,2.2,0.9,3,0l20.4-20.4c0.9-0.9,0.9-2.2,0-3l-20.2-20.2c-0.9-0.9-2.1-0.9-3,0
		l-5.5,5.5c-0.9,0.9-0.9,2.2,0,3l13.3,13.3L93.5,98.6C92.8,99.5,92.8,100.8,93.5,101.7z"/>
	<path class="st0" d="M64.2,110h6.5c0.9,0,1.6-0.6,1.9-1.5l15.5-44.8c0.4-1.3-0.6-2.8-1.9-2.8h-6.6c-0.9,0-1.6,0.6-1.9,1.5
		l-15.5,44.8C61.6,108.5,62.7,110,64.2,110z"/>
</g>
</svg>
