<?xml version="1.0" encoding="utf-8"?>
<!-- Generator: Adobe Illustrator 22.0.1, SVG Export Plug-In . SVG Version: 6.00 Build 0)  -->
<svg version="1.0" id="Capa_1" xmlns="http://www.w3.org/2000/svg" xmlns:xlink="http://www.w3.org/1999/xlink" x="0px" y="0px"
	 viewBox="0 0 150 150" style="enable-background:new 0 0 150 150;" xml:space="preserve">
<style type="text/css">
	.st0{fill:#262626;}
</style>
<g>
	<path class="st0" d="M107.3,76.3H43.1c-3.3,0-6.1,2.7-6.1,6.1c0,3.3,2.7,6.1,6.1,6.1c0,0,0,0,0,0h64.2c3.3,0,6.1-2.7,6.1-6.1
		S110.7,76.3,107.3,76.3z"/>
	<path class="st0" d="M117.5,9h-85C17.2,9,4.7,21.5,4.7,36.8v90.8C4.7,133,8,138,12.9,139.9c1.6,0.7,3.4,1.1,5.2,1.1
		c3.5,0,6.9-1.4,9.3-3.9L45,119.5h72.5c15.3,0,27.7-12.5,27.8-27.8V36.8C145.3,21.5,132.8,9,117.5,9z M133.2,36.8v54.9
		c0,8.6-7,15.6-15.6,15.6l-75.2,0c-1.8,0.1-3.4,0.9-4.6,2.2l-18.9,18.9c-0.2,0.2-0.5,0.3-0.8,0.3c0,0,0,0,0,0
		c-0.3,0-0.6-0.1-0.8-0.3c-0.2-0.2-0.3-0.5-0.3-0.8V36.8c0-8.6,7-15.7,15.6-15.7h85C126.1,21.1,133.2,28.2,133.2,36.8z"/>
	<path class="st0" d="M107.3,44.2H43.1c-3.3,0-6.1,2.7-6.1,6.1c0,1.6,0.6,3.1,1.8,4.3c1.1,1.1,2.7,1.8,4.3,1.8h64.2
		c3.3,0,6.1-2.7,6.1-6.1C113.4,46.9,110.7,44.2,107.3,44.2z"/>
</g>
</svg>
