<?xml version="1.0" encoding="utf-8"?>
<!-- Generator: Adobe Illustrator 22.0.1, SVG Export Plug-In . SVG Version: 6.00 Build 0)  -->
<svg version="1.0" id="Capa_1" xmlns="http://www.w3.org/2000/svg" xmlns:xlink="http://www.w3.org/1999/xlink" x="0px" y="0px"
	 viewBox="0 0 150 150" style="enable-background:new 0 0 150 150;" xml:space="preserve">
<style type="text/css">
	.st0{fill:#262626;}
</style>
<g>
	<path class="st0" d="M4.9,76.7c0,6.4,0.6,12.1,1.8,17.2c1.2,5.1,2.8,9.6,4.9,13.4c2.1,3.8,4.8,7.1,8,10c3.2,2.9,6.8,5.2,10.6,7.1
		c3.8,1.8,8.1,3.3,13,4.5c4.9,1.1,9.8,1.9,14.9,2.4c5.1,0.5,10.7,0.7,16.7,0.7c6.1,0,11.7-0.2,16.8-0.7c5.1-0.5,10.1-1.3,15-2.4
		c4.9-1.1,9.2-2.6,13.1-4.5c3.8-1.8,7.4-4.2,10.6-7.1c3.3-2.9,6-6.2,8.1-10c2.1-3.8,3.8-8.3,5-13.4c1.2-5.1,1.8-10.9,1.8-17.2
		c0-11.3-3.8-21.1-11.4-29.4c0.4-1.1,0.8-2.3,1.1-3.7c0.3-1.4,0.7-3.4,1-6c0.3-2.6,0.2-5.6-0.3-9c-0.5-3.4-1.5-6.8-2.9-10.4l-1-0.2
		c-0.7-0.1-1.9-0.1-3.6,0.1c-1.7,0.2-3.6,0.6-5.8,1.2c-2.2,0.6-5.1,1.8-8.6,3.6s-7.2,4-11.1,6.6c-6.7-1.8-15.8-2.7-27.5-2.7
		c-11.6,0-20.8,0.9-27.4,2.7c-3.9-2.7-7.6-4.9-11.1-6.6S30,20,27.9,19.4c-2.1-0.6-4.1-1-5.9-1.2C20.2,18,19,18,18.6,18
		c-0.5,0.1-0.9,0.1-1.1,0.2c-1.4,3.5-2.4,7-2.9,10.4c-0.5,3.4-0.6,6.4-0.3,9c0.3,2.6,0.6,4.6,1,6c0.3,1.4,0.7,2.6,1.1,3.7
		C8.7,55.6,4.9,65.4,4.9,76.7z M22.1,93.9c0-6.6,3-12.6,9-18.1c1.8-1.6,3.9-2.9,6.2-3.7c2.4-0.8,5.1-1.3,8.1-1.4
		c3-0.1,5.9-0.1,8.6,0.1c2.7,0.2,6.1,0.4,10.2,0.7c4,0.3,7.5,0.4,10.4,0.4c2.9,0,6.4-0.1,10.4-0.4c4-0.3,7.4-0.5,10.2-0.7
		c2.7-0.2,5.6-0.2,8.6-0.1c3,0.1,5.7,0.6,8.1,1.4c2.4,0.8,4.5,2.1,6.2,3.7c6,5.4,9,11.4,9,18.1c0,3.9-0.5,7.4-1.5,10.5
		c-1,3-2.2,5.6-3.8,7.6c-1.5,2.1-3.7,3.8-6.4,5.2c-2.7,1.4-5.4,2.5-8,3.3c-2.6,0.8-5.9,1.4-9.9,1.8c-4,0.4-7.7,0.7-10.8,0.8
		c-3.2,0.1-7.2,0.1-12.1,0.1s-8.9,0-12.1-0.1c-3.2-0.1-6.8-0.4-10.8-0.8s-7.4-1-9.9-1.8c-2.6-0.8-5.2-1.9-8-3.3
		c-2.7-1.4-4.8-3.2-6.4-5.2c-1.5-2.1-2.8-4.6-3.8-7.6C22.6,101.4,22.1,97.9,22.1,93.9z M92.5,92.6c0,7.3,3.9,13.1,8.8,13.1
		s8.8-5.9,8.8-13.1c0-7.3-3.9-13.1-8.8-13.1S92.5,85.3,92.5,92.6z M39.9,92.6c0,7.3,3.9,13.1,8.8,13.1s8.8-5.9,8.8-13.1
		c0-7.3-3.9-13.1-8.8-13.1S39.9,85.3,39.9,92.6z"/>
</g>
</svg>
