<?xml version="1.0" encoding="utf-8"?>
<!-- Generator: Adobe Illustrator 22.0.1, SVG Export Plug-In . SVG Version: 6.00 Build 0)  -->
<svg version="1.0" id="Capa_1" xmlns="http://www.w3.org/2000/svg" xmlns:xlink="http://www.w3.org/1999/xlink" x="0px" y="0px"
	 viewBox="0 0 949.8 632.6" style="enable-background:new 0 0 949.8 632.6;" xml:space="preserve">
<style type="text/css">
	.st0{clip-path:url(#SVGID_2_);}
	.st1{fill:#4919A2;}
</style>
<g>
	<defs>
		<rect id="SVGID_1_" width="949.9" height="632.4"/>
	</defs>
	<clipPath id="SVGID_2_">
		<use xlink:href="#SVGID_1_"  style="overflow:visible;"/>
	</clipPath>
	<g class="st0">
		<polygon class="st1" points="-32.4,-51.4 -35.6,-51.4 -35.6,-47.9 		"/>
		<polygon class="st1" points="-35.6,2.4 13.8,-51.4 -7.3,-51.4 -35.6,-20.6 		"/>
		<polygon class="st1" points="-35.6,52.7 60.1,-51.4 39,-51.4 -35.6,29.8 		"/>
		<polygon class="st1" points="-35.6,103.1 106.4,-51.4 85.2,-51.4 -35.6,80.1 		"/>
		<polygon class="st1" points="-35.6,153.4 152.6,-51.4 131.5,-51.4 -35.6,130.4 		"/>
		<polygon class="st1" points="-35.6,203.7 198.9,-51.4 177.8,-51.4 -35.6,180.7 		"/>
		<polygon class="st1" points="-35.6,254 245.2,-51.4 224.1,-51.4 -35.6,231.1 		"/>
		<polygon class="st1" points="-35.6,304.4 291.5,-51.4 270.3,-51.4 -35.6,281.4 		"/>
		<polygon class="st1" points="-35.6,354.7 337.7,-51.4 316.6,-51.4 -35.6,331.7 		"/>
		<polygon class="st1" points="-35.6,405 384,-51.4 362.9,-51.4 -35.6,382 		"/>
		<polygon class="st1" points="-35.6,455.3 430.3,-51.4 409.1,-51.4 -35.6,432.4 		"/>
		<polygon class="st1" points="-35.6,505.7 476.5,-51.4 455.4,-51.4 -35.6,482.7 		"/>
		<polygon class="st1" points="-35.6,556 522.8,-51.4 501.7,-51.4 -35.6,533 		"/>
		<polygon class="st1" points="-35.6,606.3 569.1,-51.4 548,-51.4 -35.6,583.3 		"/>
		<polygon class="st1" points="-35.6,656.6 615.4,-51.4 594.2,-51.4 -35.6,633.7 		"/>
		<polygon class="st1" points="-35.6,684.6 -15,684.6 661.6,-51.4 640.5,-51.4 -35.6,684 		"/>
		<polygon class="st1" points="31.2,684.6 707.9,-51.4 686.8,-51.4 10.1,684.6 		"/>
		<polygon class="st1" points="77.5,684.6 754.2,-51.4 733,-51.4 56.4,684.6 		"/>
		<polygon class="st1" points="123.8,684.6 800.4,-51.4 779.3,-51.4 102.6,684.6 		"/>
		<polygon class="st1" points="170,684.6 846.7,-51.4 825.6,-51.4 148.9,684.6 		"/>
		<polygon class="st1" points="216.3,684.6 893,-51.4 871.9,-51.4 195.2,684.6 		"/>
		<polygon class="st1" points="262.6,684.6 939.2,-51.4 918.1,-51.4 241.5,684.6 		"/>
		<polygon class="st1" points="306.3,684.6 983,-51.4 961.8,-51.4 285.2,684.6 		"/>
		<polygon class="st1" points="352.6,684.6 985.5,-3.8 985.5,-26.8 331.4,684.6 		"/>
		<polygon class="st1" points="398.8,684.6 985.5,46.5 985.5,23.5 377.7,684.6 		"/>
		<polygon class="st1" points="445.1,684.6 985.5,96.8 985.5,73.9 424,684.6 		"/>
		<polygon class="st1" points="491.4,684.6 985.5,147.2 985.5,124.2 470.2,684.6 		"/>
		<polygon class="st1" points="537.6,684.6 985.5,197.5 985.5,174.5 516.5,684.6 		"/>
		<polygon class="st1" points="583.9,684.6 985.5,247.8 985.5,224.8 562.8,684.6 		"/>
		<polygon class="st1" points="630.2,684.6 985.5,298.1 985.5,275.2 609.1,684.6 		"/>
		<polygon class="st1" points="676.5,684.6 985.5,348.5 985.5,325.5 655.3,684.6 		"/>
		<polygon class="st1" points="722.7,684.6 985.5,398.8 985.5,375.8 701.6,684.6 		"/>
		<polygon class="st1" points="769,684.6 985.5,449.1 985.5,426.1 747.9,684.6 		"/>
		<polygon class="st1" points="815.3,684.6 985.5,499.4 985.5,476.5 794.1,684.6 		"/>
		<polygon class="st1" points="861.5,684.6 985.5,549.8 985.5,526.8 840.4,684.6 		"/>
		<polygon class="st1" points="907.8,684.6 985.5,600.1 985.5,577.1 886.7,684.6 		"/>
		<polygon class="st1" points="954.1,684.6 985.5,650.4 985.5,627.4 933,684.6 		"/>
	</g>
</g>
</svg>
