<?xml version="1.0" encoding="utf-8"?>
<!-- Generator: Adobe Illustrator 22.0.1, SVG Export Plug-In . SVG Version: 6.00 Build 0)  -->
<svg version="1.0" id="Capa_1" xmlns="http://www.w3.org/2000/svg" xmlns:xlink="http://www.w3.org/1999/xlink" x="0px" y="0px"
	 viewBox="0 0 71.4 71.4" style="enable-background:new 0 0 71.4 71.4;" xml:space="preserve">
<style type="text/css">
	.st0{fill:#5B22B2;}
</style>
<path class="st0" d="M53,13.7c-4.6-4.6-10.8-7.2-17.3-7.2l0,0c-6.6,0-12.8,2.6-17.3,7.2c-4.6,4.6-7.2,10.8-7.2,17.4
	s2.6,12.7,7.2,17.3l15.9,15.9c0.4,0.4,0.8,0.6,1.4,0.6s1.1-0.2,1.4-0.6L53,48.4C62.6,38.9,62.6,23.3,53,13.7z M35.7,39.4
	c-4.8,0-8.6-3.9-8.6-8.6s3.9-8.6,8.6-8.6s8.6,3.9,8.6,8.6S40.5,39.4,35.7,39.4z"/>
</svg>
