<?xml version="1.0" encoding="utf-8"?>
<!-- Generator: Adobe Illustrator 22.0.1, SVG Export Plug-In . SVG Version: 6.00 Build 0)  -->
<svg version="1.0" id="Capa_1" xmlns="http://www.w3.org/2000/svg" xmlns:xlink="http://www.w3.org/1999/xlink" x="0px" y="0px"
	 viewBox="0 0 137.4 142.9" style="enable-background:new 0 0 137.4 142.9;" xml:space="preserve">
<style type="text/css">
	.st0{fill:#262626;}
</style>
<g>
	<path class="st0" d="M90.4,135.6H47.1c-23.2,0-42-18.9-42-42V49.3c0-23.2,18.9-42,42-42h43.3c23.2,0,42,18.9,42,42v44.3
		C132.4,116.7,113.5,135.6,90.4,135.6z M47.1,13.9c-19.5,0-35.4,15.9-35.4,35.4v44.3c0,19.5,15.9,35.4,35.4,35.4h43.3
		c19.5,0,35.4-15.9,35.4-35.4V49.3c0-19.5-15.9-35.4-35.4-35.4H47.1z"/>
	<path class="st0" d="M108.6,30.1l-24.1,4.4c-1,0.2-1.3,1.4-0.6,2l8,8l-50,50l-8-8c-0.7-0.7-1.9-0.3-2,0.6l-4.4,24.1
		c-0.2,0.8,0.6,1.6,1.4,1.4l24.1-4.4c1-0.2,1.3-1.4,0.6-2l-8-8l50-50l8,8c0.7,0.7,1.9,0.3,2-0.6l4.4-24.1
		C110.2,30.7,109.5,30,108.6,30.1z"/>
</g>
</svg>
