<?xml version="1.0" encoding="utf-8"?>
<!-- Generator: Adobe Illustrator 22.0.1, SVG Export Plug-In . SVG Version: 6.00 Build 0)  -->
<svg version="1.0" id="Capa_1" xmlns="http://www.w3.org/2000/svg" xmlns:xlink="http://www.w3.org/1999/xlink" x="0px" y="0px"
	 viewBox="0 0 137.4 142.9" style="enable-background:new 0 0 137.4 142.9;" xml:space="preserve">
<style type="text/css">
	.st0{fill:#262626;}
</style>
<path class="st0" d="M99.5,5.2c-1.2-0.8-2.9-0.6-4.4,0.5L38.4,62.5c-0.5,0.7-1.1,1.6-0.9,2.8c0.2,1.1,0.8,2,1.6,2.6l17.2,11.9
	l-19.9,53.7c-0.5,1.8,0.1,3.5,1.5,4.1c0.7,0.5,1.3,0.7,2,0.7c0.2,0,0.5,0,0.7-0.1c0.7-0.1,1.4-0.6,2-1.1L99,80.2
	c0.5-0.7,1.1-1.6,0.9-2.8c-0.2-1.1-0.8-2-1.6-2.6L81.1,63.1l20-53.4C101.5,8.1,101.1,6.1,99.5,5.2z M64.4,79.6
	c0.5-1.8-0.1-3.5-1.5-4.1l-16-11l41.7-41.7L73.1,63.4l0,0.1c-0.5,1.8,0.1,3.5,1.5,4.1l16,11l-41.4,41.6L64.4,79.6z"/>
</svg>
