<?xml version="1.0" encoding="utf-8"?>
<!-- Generator: Adobe Illustrator 22.0.1, SVG Export Plug-In . SVG Version: 6.00 Build 0)  -->
<svg version="1.0" id="Capa_1" xmlns="http://www.w3.org/2000/svg" xmlns:xlink="http://www.w3.org/1999/xlink" x="0px" y="0px"
	 viewBox="0 0 181.3 181.3" style="enable-background:new 0 0 181.3 181.3;" xml:space="preserve">
<style type="text/css">
	.st0{fill:#FFFFFF;}
</style>
<g>
	<path class="st0" d="M93.6,127.9c3.2-3.3,5.2-7.8,5.2-12.8c0-10.1-8.2-18.4-18.4-18.4s-18.4,8.2-18.4,18.4c0,5,2,9.5,5.2,12.8
		c-6.5,1.8-11.3,7.7-11.3,14.7V161c0,1.7,1.4,3.1,3.1,3.1h42.8c1.7,0,3.1-1.4,3.1-3.1v-18.4C104.9,135.6,100.1,129.7,93.6,127.9z
		 M80.5,127.4c-6.8,0-12.2-5.5-12.2-12.2s5.5-12.2,12.2-12.2s12.2,5.5,12.2,12.2S87.2,127.4,80.5,127.4z"/>
	<path class="st0" d="M16.2,72.3h29.3L63,89.8c0.6,0.6,1.4,0.9,2.2,0.9c0.4,0,0.8-0.1,1.2-0.2c1.1-0.5,1.9-1.6,1.9-2.8V72.3h15.3
		c5.1,0,9.2-4.1,9.2-9.2V26.4c0-5.1-4.1-9.2-9.2-9.2H16.2c-5.1,0-9.2,4.1-9.2,9.2v36.7C7.1,68.2,11.2,72.3,16.2,72.3z M13.2,26.4
		c0-1.7,1.4-3.1,3.1-3.1h67.3c1.7,0,3.1,1.4,3.1,3.1v36.7c0,1.7-1.4,3.1-3.1,3.1H65.2c-1.7,0-3.1,1.4-3.1,3.1v11L49,67.1
		c-0.6-0.6-1.4-0.9-2.2-0.9H16.2c-1.7,0-3.1-1.4-3.1-3.1V26.4z"/>
	<path class="st0" d="M168.2,32.5h-41.2h-4.6h-6.3c-5.1,0-9.2,4.1-9.2,9.2V54c0,5.1,4.1,9.2,9.2,9.2h6.3h4.6h4.5v9.2
		c0,1.7,1.4,3.1,3.1,3.1c1,0,1.9-0.5,2.4-1.2l8.3-11h22.9c5.1,0,9.2-4.1,9.2-9.2V41.7C177.3,36.7,173.2,32.5,168.2,32.5z M171.2,54
		c0,1.7-1.4,3.1-3.1,3.1h-24.5c-1,0-1.9,0.5-2.5,1.2l-3.7,4.9v-3.1c0-1.7-1.4-3.1-3.1-3.1h-7.6h-4.6h-6.3c-1.7,0-3.1-1.4-3.1-3.1
		V41.7c0-1.7,1.4-3.1,3.1-3.1h6.3h4.6h41.2c1.7,0,3.1,1.4,3.1,3.1V54z"/>
	<path class="st0" d="M162,44.8h-24.5c-1.7,0-3.1,1.4-3.1,3.1c0,1.7,1.4,3.1,3.1,3.1H162c1.7,0,3.1-1.4,3.1-3.1
		C165.1,46.2,163.7,44.8,162,44.8z"/>
	<path class="st0" d="M125.3,44.8c-1.7,0-3.1,1.4-3.1,3.1c0,1.7,1.4,3.1,3.1,3.1c1.7,0,3.1-1.4,3.1-3.1
		C128.4,46.2,127,44.8,125.3,44.8z"/>
	<path class="st0" d="M28.5,54c5.1,0,9.2-4.1,9.2-9.2s-4.1-9.2-9.2-9.2c-5.1,0-9.2,4.1-9.2,9.2S23.4,54,28.5,54z M28.5,41.7
		c1.7,0,3.1,1.4,3.1,3.1c0,1.7-1.4,3.1-3.1,3.1c-1.7,0-3.1-1.4-3.1-3.1C25.4,43.1,26.8,41.7,28.5,41.7z"/>
	<path class="st0" d="M49.9,54c5.1,0,9.2-4.1,9.2-9.2s-4.1-9.2-9.2-9.2c-5.1,0-9.2,4.1-9.2,9.2S44.8,54,49.9,54z M49.9,41.7
		c1.7,0,3.1,1.4,3.1,3.1c0,1.7-1.4,3.1-3.1,3.1s-3.1-1.4-3.1-3.1C46.8,43.1,48.2,41.7,49.9,41.7z"/>
	<path class="st0" d="M71.3,54c5.1,0,9.2-4.1,9.2-9.2s-4.1-9.2-9.2-9.2c-5.1,0-9.2,4.1-9.2,9.2S66.2,54,71.3,54z M71.3,41.7
		c1.7,0,3.1,1.4,3.1,3.1c0,1.7-1.4,3.1-3.1,3.1c-1.7,0-3.1-1.4-3.1-3.1C68.2,43.1,69.6,41.7,71.3,41.7z"/>
	<path class="st0" d="M145.4,112.6c3.2-3.3,5.2-7.8,5.2-12.8c0-10.1-8.2-18.4-18.4-18.4c-10.1,0-18.4,8.2-18.4,18.4
		c0,5,2,9.5,5.2,12.8c-6.5,1.8-11.3,7.7-11.3,14.7v18.4c0,1.7,1.4,3.1,3.1,3.1h42.8c1.7,0,3.1-1.4,3.1-3.1v-18.4
		C156.8,120.3,152,114.4,145.4,112.6z M132.3,112.1c-6.8,0-12.2-5.5-12.2-12.2s5.5-12.2,12.2-12.2c6.8,0,12.2,5.5,12.2,12.2
		S139.1,112.1,132.3,112.1z"/>
	<path class="st0" d="M41.6,112.6c3.2-3.3,5.2-7.8,5.2-12.8c0-10.1-8.2-18.4-18.4-18.4c-10.1,0-18.4,8.2-18.4,18.4
		c0,5,2,9.5,5.2,12.8C8.8,114.4,4,120.3,4,127.4v18.4c0,1.7,1.4,3.1,3.1,3.1h42.8c1.7,0,3.1-1.4,3.1-3.1v-18.4
		C52.9,120.3,48.1,114.4,41.6,112.6z M28.5,112.1c-6.8,0-12.2-5.5-12.2-12.2s5.5-12.2,12.2-12.2c6.8,0,12.2,5.5,12.2,12.2
		S35.2,112.1,28.5,112.1z"/>
</g>
</svg>
