<?xml version="1.0" encoding="utf-8"?>
<!-- Generator: Adobe Illustrator 22.0.1, SVG Export Plug-In . SVG Version: 6.00 Build 0)  -->
<svg version="1.0" id="Capa_1" xmlns="http://www.w3.org/2000/svg" xmlns:xlink="http://www.w3.org/1999/xlink" x="0px" y="0px"
	 viewBox="0 0 70 70" style="enable-background:new 0 0 70 70;" xml:space="preserve">
<style type="text/css">
	.st0{fill:#262626;}
</style>
<g>
	<path class="st0" d="M67.7,24.9c0.2,1-0.5,1.9-1.5,2.1l-7.5,1.2c-1,0.2-1.9-0.5-2.1-1.5l0-0.1c-0.2-1,0.5-1.9,1.5-2.1l7.5-1.2
		C66.6,23.1,67.6,23.8,67.7,24.9L67.7,24.9z M62.2,14.7l-6.6,3.9c-0.8,0.5-1.1,1.5-0.7,2.4c0.5,0.9,1.6,1.3,2.6,0.8l6.6-3.9
		c0.8-0.5,1.1-1.5,0.7-2.4C64.3,14.5,63.1,14.1,62.2,14.7z M58.1,34.5l7.5,1.7c1.1,0.2,2-0.5,2.2-1.5c0.1-1-0.5-1.8-1.4-2.1
		l-7.5-1.7c-1.1-0.2-2,0.5-2.2,1.5C56.4,33.4,57.1,34.3,58.1,34.5z M52.5,27.5c0.5,2.9-1,5.7-3.4,7.1L51,46.4
		c0.2,1.1-0.4,2.1-1.5,2.4c-1.2,0.3-2.3-0.4-2.6-1.5c-7.4-5.1-17-6-22.7-6.1l0.3,1.9l-4.2,0.7L25.1,60l-0.8,0.3l-2.6,1L21,61.6
		L13,45l-1.1,0.2c-2.5,0.4-4.9-1.3-5.3-3.9l-0.3-1.7l-1.3,0.2c-0.9,0.1-1.6-0.4-1.8-1.3l-0.9-5.7c-0.1-0.9,0.4-1.6,1.3-1.8l1.4-0.2
		l-0.3-2.1c-0.4-2.5,1.3-4.9,3.9-5.3l12.7-2l0.3,1.9c5.4-1.8,14.3-5.6,19.8-12.7c-0.1-1.1,0.8-2.2,2-2.2c1.1,0,2,0.8,2.1,1.8
		L47.2,22C49.9,22.4,52.1,24.6,52.5,27.5z M17.1,27l-7.7,1.2l1.9,12.1l7.7-1.2L17.1,27z"/>
</g>
</svg>
