<?xml version="1.0" encoding="utf-8"?>
<!-- Generator: Adobe Illustrator 22.0.1, SVG Export Plug-In . SVG Version: 6.00 Build 0)  -->
<svg version="1.0" id="Capa_1" xmlns="http://www.w3.org/2000/svg" xmlns:xlink="http://www.w3.org/1999/xlink" x="0px" y="0px"
	 viewBox="0 0 70 70" style="enable-background:new 0 0 70 70;" xml:space="preserve">
<style type="text/css">
	.st0{fill:#262626;}
</style>
<g>
	<path class="st0" d="M34.8,2.3L7.1,14.2c-0.4,0.2-0.4,0.7,0,0.8l5.9,2.5c0,0,0.1,0,0.1,0l12.1-5.2c0.3-0.1,0.7-0.1,1.1,0l0,0
		c1.1,0.5,1.1,2.1,0,2.6l-11.2,4.8v16.3l3.5-1.8c0.6-0.3,1.4-0.1,1.8,0.5l3,4.5V24.3c0-0.1,0-0.1,0-0.2c-0.1-0.6,0.3-1.2,0.8-1.4
		L37,17.3c0.3-0.1,0.7-0.1,1.1,0l0,0c1.1,0.5,1.1,2.1,0,2.5L28.2,24l6.8,2.9L62.9,15c0.4-0.2,0.4-0.7,0-0.8L35.2,2.3
		C35.1,2.3,34.9,2.3,34.8,2.3z"/>
	<path class="st0" d="M26.2,43.5c0.1,0.7-0.3,1.3-1,1.5c0,0,0,0,0,0c0,0-0.1,0-0.1,0c0,0-0.1,0-0.1,0c0,0-0.1,0-0.1,0
		c0,0-0.1,0-0.1,0c-0.1,0-0.2,0-0.3,0c0,0,0,0,0,0c0,0-0.1,0-0.1,0c-0.3-0.1-0.6-0.4-0.7-0.6l-4.8-7.2l-4.4,2.2
		c-0.7,0.3-1.5,0.1-1.9-0.6c-0.1-0.2-0.1-0.4-0.1-0.6V20.3L4.6,17C4.3,16.8,4,17,4,17.4V55c0,0.2,0.1,0.3,0.3,0.4L33,67.7
		c0.3,0.1,0.6-0.1,0.6-0.4V29.4l-7.4-3.2V43.5z"/>
	<path class="st0" d="M65.4,17l-29,12.4v37.9c0,0.3,0.3,0.5,0.6,0.4l28.7-12.3c0.2-0.1,0.3-0.2,0.3-0.4V17.4
		C66,17.1,65.7,16.8,65.4,17z"/>
</g>
</svg>
