<?xml version="1.0" encoding="utf-8"?>
<!-- Generator: Adobe Illustrator 22.0.1, SVG Export Plug-In . SVG Version: 6.00 Build 0)  -->
<svg version="1.0" id="Capa_1" xmlns="http://www.w3.org/2000/svg" xmlns:xlink="http://www.w3.org/1999/xlink" x="0px" y="0px"
	 viewBox="0 0 70 70" style="enable-background:new 0 0 70 70;" xml:space="preserve">
<style type="text/css">
	.st0{fill:#262626;}
</style>
<g>
	<path class="st0" d="M60.2,3.7H9.8C5.5,3.7,2,7.2,2,11.5v47c0,4.3,3.5,7.8,7.8,7.8h50.5c4.3,0,7.8-3.5,7.8-7.8v-47
		C68,7.2,64.5,3.7,60.2,3.7z M9.8,7.1h50.5c2.4,0,4.4,2,4.4,4.4v8.3H5.3v-8.3C5.3,9.1,7.3,7.1,9.8,7.1z M46.1,40.3
		c0,8.3-9.7,16.1-11.1,17.2c-1.4-1.1-11.1-8.9-11.1-17.2c0-6.1,4.9-11.1,11-11.2v0c0,0,0.1,0,0.1,0c0,0,0.1,0,0.1,0v0
		C41.2,29.2,46.1,34.2,46.1,40.3z"/>
	<rect x="10.4" y="12.3" class="st0" width="4.9" height="3.3"/>
	<rect x="18.3" y="12.3" class="st0" width="4.9" height="3.3"/>
	<rect x="26.1" y="12.3" class="st0" width="4.9" height="3.3"/>
	<circle class="st0" cx="35.1" cy="39.8" r="5.8"/>
</g>
</svg>
