<?xml version="1.0" encoding="utf-8"?>
<!-- Generator: Adobe Illustrator 22.0.1, SVG Export Plug-In . SVG Version: 6.00 Build 0)  -->
<svg version="1.0" id="Capa_1" xmlns="http://www.w3.org/2000/svg" xmlns:xlink="http://www.w3.org/1999/xlink" x="0px" y="0px"
	 viewBox="0 0 70 70" style="enable-background:new 0 0 70 70;" xml:space="preserve">
<style type="text/css">
	.st0{fill:#262626;}
</style>
<g>
	<path class="st0" d="M62.5,2h-55C4.5,2,2,4.5,2,7.5v55c0,3,2.5,5.5,5.5,5.5h55c3,0,5.5-2.5,5.5-5.5v-55C68,4.5,65.5,2,62.5,2z
		 M33.2,40.5V46v3.7v5.5H9.3v-5.5V46v-5.5H33.2z M14.8,31.3V13h18.3v18.3H14.8z M24,57v3.7h-3.7V57H24z M18.5,57v3.7h-3.7V57H18.5z
		 M9.3,57H13v3.7H9.3V57z M38.7,48.8v3.7H35v-3.7H38.7z M35,46.9v-3.7h3.7v3.7H35z M44.2,13v18.3h-3.7V13H44.2z M40.5,11.2V7.5h3.7
		v3.7H40.5z M44.2,33.2v3.7h-3.7v-3.7H44.2z M44.2,57v3.7h-3.7V57H44.2z M49.7,13v18.3H46V13H49.7z M46,11.2V7.5h3.7v3.7H46z
		 M49.7,33.2v3.7H46v-3.7H49.7z M49.7,51.5v3.7H46v-3.7H49.7z M49.7,57v3.7H46V57H49.7z M55.2,13v18.3h-3.7V13H55.2z M51.5,11.2V7.5
		h3.7v3.7H51.5z M55.2,33.2v3.7h-3.7v-3.7H55.2z M55.2,51.5v3.7h-3.7v-3.7H55.2z M55.2,57v3.7h-3.7V57H55.2z M60.7,33.2v3.7H57v-3.7
		H60.7z M57,31.3V13h3.7v18.3H57z M60.7,51.5v3.7H57v-3.7H60.7z M60.7,57v3.7H57V57H60.7z M60.7,11.2H57V7.5h3.7V11.2z"/>
	<rect x="18.5" y="16.7" class="st0" width="11" height="11"/>
	<rect x="13" y="49.7" class="st0" width="16.5" height="1.8"/>
	<rect x="13" y="44.2" class="st0" width="16.5" height="1.8"/>
</g>
</svg>
