<?xml version="1.0" encoding="utf-8"?>
<!-- Generator: Adobe Illustrator 22.0.1, SVG Export Plug-In . SVG Version: 6.00 Build 0)  -->
<svg version="1.0" id="Capa_1" xmlns="http://www.w3.org/2000/svg" xmlns:xlink="http://www.w3.org/1999/xlink" x="0px" y="0px"
	 viewBox="0 0 71.4 71.4" style="enable-background:new 0 0 71.4 71.4;" xml:space="preserve">
<style type="text/css">
	.st0{fill:#5B22B2;}
</style>
<g>
	<path class="st0" d="M60,12.1h-2.6V20c0,2.5-2,4.5-4.5,4.5h-1.4c-2.4,0-4.3-2-4.3-4.5v-7.8H41V20c0,2.5-2,4.5-4.5,4.5h-1.4
		c-2.4,0-4.3-2-4.3-4.5v-7.8h-5.3V20c0,2.5-2,4.5-4.4,4.5h-1.4c-2.4,0-4.3-2-4.3-4.5v-7.8h-3.8c-1.8,0-3.4,1.7-3.4,3.6v44.2
		c0,1.8,1.5,3.3,3.4,3.3c0,0,0,0,0,0H60c1.8,0,3.2-1.4,3.2-3.3V15.7C63.3,13.8,61.8,12.1,60,12.1z M58.6,56.1c0,1.3-1.1,2.4-2.4,2.4
		h-41c-1.3,0-2.4-1.1-2.4-2.4V31.3c0-1.3,1.1-2.4,2.4-2.4h41c1.3,0,2.4,1.1,2.4,2.4V56.1z"/>
	<path class="st0" d="M35.1,22.5h1.4c1.4,0,2.5-1.1,2.5-2.5c0,0,0,0,0,0v-9.2c0-1.4-1.1-2.6-2.5-2.6h-1.4c-1.4,0-2.5,1.2-2.5,2.6
		v9.2C32.7,21.3,33.8,22.5,35.1,22.5z"/>
	<path class="st0" d="M51.7,22.5h1.4c1.4,0,2.4-1.1,2.4-2.5v-9.2c0-1.4-1.1-2.6-2.4-2.6h-1.4c-1.4,0-2.5,1.2-2.5,2.6v9.2
		C49.1,21.3,50.3,22.4,51.7,22.5z"/>
	<path class="st0" d="M19.7,22.5h1.4c1.4,0,2.4-1.1,2.4-2.5v-9.2c0-1.4-1.1-2.6-2.4-2.6h-1.4c-1.4,0-2.5,1.2-2.5,2.6v9.2
		C17.2,21.3,18.3,22.4,19.7,22.5z"/>
	<path class="st0" d="M18,33.6h7.2c0.7,0,1.3,0.6,1.3,1.3v5.7c0,0.7-0.6,1.3-1.3,1.3H18c-0.7,0-1.3-0.6-1.3-1.3v-5.7
		C16.7,34.2,17.3,33.6,18,33.6z"/>
	<path class="st0" d="M18,45.6h7.2c0.7,0,1.3,0.6,1.3,1.3v5.7c0,0.7-0.6,1.3-1.3,1.3H18c-0.7,0-1.3-0.6-1.3-1.3v-5.7
		C16.7,46.2,17.3,45.6,18,45.6z"/>
	<path class="st0" d="M32.1,33.6h7.2c0.7,0,1.3,0.6,1.3,1.3v5.7c0,0.7-0.6,1.3-1.3,1.3h-7.2c-0.7,0-1.3-0.6-1.3-1.3v-5.7
		C30.8,34.2,31.4,33.6,32.1,33.6z"/>
	<path class="st0" d="M32.1,45.6h7.2c0.7,0,1.3,0.6,1.3,1.3v5.7c0,0.7-0.6,1.3-1.3,1.3h-7.2c-0.7,0-1.3-0.6-1.3-1.3v-5.7
		C30.8,46.2,31.4,45.6,32.1,45.6z"/>
	<path class="st0" d="M46.5,33.6h7.2c0.7,0,1.3,0.6,1.3,1.3v5.7c0,0.7-0.6,1.3-1.3,1.3h-7.2c-0.7,0-1.3-0.6-1.3-1.3v-5.7
		C45.3,34.2,45.8,33.6,46.5,33.6z"/>
	<path class="st0" d="M46.5,45.6h7.2c0.7,0,1.3,0.6,1.3,1.3v5.7c0,0.7-0.6,1.3-1.3,1.3h-7.2c-0.7,0-1.3-0.6-1.3-1.3v-5.7
		C45.3,46.2,45.8,45.6,46.5,45.6z"/>
</g>
</svg>
