<?xml version="1.0" encoding="utf-8"?>
<!-- Generator: Adobe Illustrator 22.0.1, SVG Export Plug-In . SVG Version: 6.00 Build 0)  -->
<svg version="1.0" id="Capa_1" xmlns="http://www.w3.org/2000/svg" xmlns:xlink="http://www.w3.org/1999/xlink" x="0px" y="0px"
	 viewBox="0 0 71.4 71.4" style="enable-background:new 0 0 71.4 71.4;" xml:space="preserve">
<style type="text/css">
	.st0{fill:#5B22B2;}
</style>
<g>
	<path class="st0" d="M51.8,20.2c-2.9,0-5.2,2.3-5.2,5.2s2.3,5.2,5.2,5.2c2.9,0,5.2-2.3,5.2-5.2C57,22.5,54.7,20.2,51.8,20.2z"/>
	<path class="st0" d="M19.7,20.2c-2.9,0-5.2,2.3-5.2,5.2s2.3,5.2,5.2,5.2s5.2-2.3,5.2-5.2C24.9,22.5,22.5,20.2,19.7,20.2z"/>
	<path class="st0" d="M24.3,43.1l-0.4-11.1c0-0.1,0-0.1,0-0.3h-8.8c-2.3,0-4.1,1.9-4.1,4.1l0.4,10c0,1.8,1.3,3.2,2.9,3.3L15.8,68
		c0.1,1.5,2.2,1.4,2.2,1.4h1.7l0,0h1.6c0,0,2,0.1,2.2-1.4L25,49.1c0.1,0,0.1-0.1,0.1-0.1c0.8-0.1,1.5-0.6,2-1.2
		C25.4,47,24.3,45.2,24.3,43.1z"/>
	<path class="st0" d="M56.2,31.7h-8.9c-0.1,0-0.1,0-0.2,0c0,0.1,0,0.1,0,0.2l-0.4,11.2c0,1.9-1,3.6-2.6,4.7c0.6,0.7,1.3,1.3,2.3,1.3
		L48,68.1c0.1,1.5,2.2,1.4,2.2,1.4h1.7l0,0h1.7c0,0,2,0.1,2.2-1.4l1.5-18.9c0.1,0,0.1-0.1,0.1-0.1c1.5-0.3,2.7-1.7,2.7-3.3l0.4-10
		C60.3,33.6,58.4,31.7,56.2,31.7z"/>
	<path class="st0" d="M40.4,27.2h-9.9c-2.6,0-4.6,2.1-4.6,4.6l0.4,11.2c0,1.9,1.5,3.5,3.3,3.7L31.2,68c0.2,1.7,2.4,1.5,2.4,1.5h1.9
		l0,0h1.9c0,0,2.2,0.1,2.4-1.5l1.7-21.2c0.1,0,0.1-0.1,0.1-0.1c1.8-0.4,3-1.8,3-3.6l0.4-11.2C45.1,29.3,43,27.2,40.4,27.2z"/>
	<path class="st0" d="M35.6,14.4c-3.2,0-5.8,2.6-5.8,5.8s2.6,5.8,5.8,5.8s5.8-2.6,5.8-5.8S38.8,14.4,35.6,14.4z"/>
	<path class="st0" d="M47.5,4.3c-0.4-0.2-0.8-0.2-1.1-0.1l-0.1,0.1c-0.2,0.1-0.4,0.3-0.5,0.5l-2.7,4.5c-0.1,0.3-0.2,0.6-0.1,0.9
		c0.1,0.4,0.3,0.6,0.5,0.7c0.4,0.2,0.8,0.2,1.2,0c0.2-0.1,0.4-0.3,0.5-0.5l2.7-4.5C48,5.7,48.1,5.4,48,5C48,4.8,47.8,4.5,47.5,4.3z"
		/>
	<path class="st0" d="M23.3,4.3c0.3-0.1,0.8-0.1,1.1-0.1l0.1,0.1c0.2,0.1,0.4,0.3,0.5,0.5l2.7,4.5c0.1,0.3,0.2,0.6,0.1,0.9
		c-0.1,0.4-0.3,0.6-0.5,0.7c-0.4,0.2-0.8,0.2-1.2,0c-0.2-0.1-0.4-0.3-0.5-0.5l-2.7-4.5c-0.1-0.3-0.2-0.6-0.1-0.9
		C22.8,4.8,23,4.5,23.3,4.3z"/>
	<path class="st0" d="M17.7,16.4c0.1,0,0.2,0,0.4-0.1c0.4-0.1,0.6-0.3,0.7-0.5c0.4-0.6,0.1-1.3-0.5-1.6l-4.5-2.6
		c-0.2-0.1-0.4-0.2-0.6-0.2h-0.1c-0.4,0-0.7,0.3-1,0.6c-0.1,0.3-0.2,0.6-0.1,0.9c0.1,0.4,0.3,0.6,0.5,0.7l4.6,2.6
		C17.3,16.3,17.5,16.4,17.7,16.4z"/>
	<path class="st0" d="M59.1,12c-0.2-0.4-0.5-0.6-1-0.6h-0.1c-0.2,0-0.4,0.1-0.6,0.2L53,14.3c-0.3,0.1-0.5,0.4-0.6,0.7
		c-0.1,0.4-0.1,0.6,0.1,0.9c0.2,0.4,0.6,0.6,1.1,0.6c0.2,0,0.4-0.1,0.6-0.1l4.5-2.6c0.3-0.1,0.5-0.4,0.5-0.7
		C59.2,12.6,59.2,12.2,59.1,12z"/>
	<path class="st0" d="M35.6,1.8c-0.4,0-0.8,0.2-1,0.5l-0.1,0.1c-0.1,0.2-0.1,0.4-0.1,0.6l-0.1,5.3c0,0.4,0.1,0.6,0.4,0.8
		c0.2,0.3,0.5,0.4,0.8,0.4c0.5,0,0.8-0.2,1.1-0.6c0.1-0.2,0.2-0.4,0.2-0.6l0.1-5.3c0-0.4-0.1-0.6-0.4-0.8
		C36.2,1.9,35.9,1.8,35.6,1.8z"/>
</g>
</svg>
