<?xml version="1.0" encoding="utf-8"?>
<!-- Generator: Adobe Illustrator 22.0.1, SVG Export Plug-In . SVG Version: 6.00 Build 0)  -->
<svg version="1.0" id="Capa_1" xmlns="http://www.w3.org/2000/svg" xmlns:xlink="http://www.w3.org/1999/xlink" x="0px" y="0px"
	 viewBox="0 0 137.4 142.9" style="enable-background:new 0 0 137.4 142.9;" xml:space="preserve">
<style type="text/css">
	.st0{fill:#262626;}
</style>
<g>
	<path class="st0" d="M129.8,57.3c-1.6-1.6-3.8-2.5-6.1-2.5h-9.9c-0.4-1.1-0.9-2.3-1.4-3.4l7-7c1.6-1.6,2.5-3.8,2.6-6.1
		c0-2.3-0.9-4.5-2.5-6.1L108,20.7c-1.6-1.6-3.8-2.5-6.1-2.4c-2.3,0-4.5,0.9-6.1,2.5l-7,7c-1.1-0.5-2.3-1-3.4-1.4v-9.9
		c0-2.3-0.9-4.5-2.5-6.1c-1.6-1.6-3.8-2.6-6.1-2.6H60.7c-4.7,0-8.6,3.9-8.6,8.7v9.9c-1.2,0.4-2.3,0.9-3.4,1.4l-7-7
		c-3.3-3.3-9-3.3-12.2-0.1L18,32.1c-1.6,1.6-2.5,3.8-2.5,6.1c0,2.3,0.9,4.5,2.6,6.1l7,7c-0.5,1.1-1,2.3-1.4,3.4h-9.9
		c-4.8,0-8.7,3.8-8.7,8.6v16.1c0,4.7,3.9,8.6,8.7,8.6h10c0.4,1.1,0.9,2.3,1.4,3.4l-7.1,7.1c-1.6,1.6-2.6,3.8-2.6,6.1
		c0,2.3,0.9,4.5,2.5,6.1l11.4,11.4c1.5,1.5,3.7,2.4,6,2.4c0,0,0,0,0.1,0c2.3,0,4.6-0.9,6.1-2.5l7.1-7.1c1.1,0.5,2.3,1,3.4,1.4v10
		c0,4.8,3.8,8.7,8.6,8.7h16.1c4.7,0,8.6-3.9,8.6-8.7v-10c1.1-0.4,2.3-0.9,3.4-1.4l7.1,7.1c1.6,1.6,3.8,2.5,6.1,2.5c0,0,0,0,0.1,0
		c2.3,0,4.5-0.9,6-2.4l11.4-11.4c1.6-1.6,2.5-3.8,2.5-6.1c0-2.3-0.9-4.5-2.6-6.1l-7.1-7.1c0.5-1.1,1-2.3,1.4-3.4h10
		c4.8,0,8.7-3.8,8.7-8.6V63.4C132.4,61.1,131.5,58.9,129.8,57.3z M108.4,83.9c-0.7,2.2-1.7,4.5-2.8,6.7c-0.7,1.2-0.4,2.8,0.6,3.8
		l8.7,8.7c0.4,0.4,0.7,1,0.7,1.6c0,0.6-0.2,1.1-0.6,1.5l-11.4,11.4c-0.8,0.8-2.3,0.8-3.2-0.1l-8.7-8.7c-1-1-2.5-1.2-3.7-0.6
		c-2.2,1.2-4.5,2.1-6.7,2.8c-1.3,0.4-2.2,1.6-2.2,3.1v12.3c0,1.3-1,2.3-2.2,2.3H60.7c-1.2,0-2.2-1-2.2-2.3v-12.3
		c0-1.4-0.9-2.6-2.2-3.1c-2.2-0.7-4.5-1.6-6.7-2.8c-0.5-0.2-1-0.4-1.5-0.4c-0.9,0-1.7,0.3-2.3,0.9l-8.7,8.7c-0.4,0.4-1,0.7-1.6,0.7
		c-0.6,0-1.2-0.2-1.5-0.6l-11.4-11.4c-0.4-0.4-0.6-0.9-0.6-1.5c0-0.6,0.3-1.2,0.7-1.6l8.7-8.7c1-1,1.2-2.5,0.6-3.8
		c-1.2-2.2-2.1-4.5-2.8-6.7c-0.4-1.3-1.7-2.2-3.1-2.2H13.8c-1.3,0-2.3-1-2.3-2.2V63.4c0-1.2,1-2.2,2.3-2.2H26c1.4,0,2.6-0.9,3.1-2.2
		c0.7-2.2,1.6-4.5,2.8-6.7c0.6-1.2,0.4-2.8-0.6-3.7l-8.7-8.7c-0.9-0.9-0.9-2.3-0.1-3.2l11.4-11.4c0.8-0.8,2.3-0.8,3.2,0.1l8.6,8.6
		c1,1,2.5,1.2,3.8,0.6c2.2-1.2,4.5-2.1,6.8-2.8c1.3-0.4,2.2-1.7,2.2-3.1V16.5c0-0.6,0.2-1.2,0.7-1.7c0.4-0.4,0.9-0.6,1.5-0.6h16.1
		c1.2,0,2.2,1,2.2,2.3v12.2c0,1.4,0.9,2.6,2.2,3.1c2.2,0.7,4.5,1.7,6.8,2.8c1.2,0.7,2.8,0.4,3.8-0.6l8.6-8.6
		c0.9-0.9,2.3-0.9,3.2-0.1l11.4,11.4c0.8,0.8,0.8,2.3-0.1,3.2l-8.7,8.7c-1,1-1.2,2.5-0.6,3.8c1.2,2.2,2.1,4.5,2.8,6.7
		c0.4,1.3,1.6,2.2,3.1,2.2h12.2c1.3,0,2.3,1,2.3,2.2v16.1c0,1.2-1,2.2-2.3,2.2h-12.3C110,81.7,108.8,82.6,108.4,83.9z"/>
	<g>
		<path class="st0" d="M88.1,70h-5.3c-0.6,0-0.9,0.7-0.5,1.1l8.4,9.8c0.3,0.3,0.8,0.3,1,0l8.3-9.8c0.4-0.4,0.1-1.1-0.5-1.1h-5.1
			C93.9,55.8,83,44.2,69.6,44.2c-5.9,0-11.4,2.3-15.7,6.1c-0.3,0.2-0.3,0.7-0.1,0.9l3.3,4c0.2,0.3,0.7,0.3,1,0.1
			c3.1-2.8,7.2-4.4,11.6-4.4C79.6,50.9,87.7,59.4,88.1,70z"/>
		<path class="st0" d="M67.8,98.6c5.9,0,11.4-2.3,15.7-6.1c0.3-0.2,0.3-0.7,0.1-0.9l-3.3-4c-0.2-0.3-0.7-0.3-1-0.1
			c-3.1,2.8-7.2,4.4-11.6,4.4c-10,0-18.1-8.5-18.5-19.1h5.3c0.6,0,0.9-0.7,0.5-1.1L46.8,62c-0.3-0.3-0.8-0.3-1,0l-8.3,9.8
			c-0.4,0.4-0.1,1.1,0.5,1.1h5.1C43.6,87.1,54.5,98.6,67.8,98.6z"/>
	</g>
</g>
</svg>
