<?xml version="1.0" encoding="utf-8"?>
<!-- Generator: Adobe Illustrator 22.0.1, SVG Export Plug-In . SVG Version: 6.00 Build 0)  -->
<svg version="1.0" id="Capa_1" xmlns="http://www.w3.org/2000/svg" xmlns:xlink="http://www.w3.org/1999/xlink" x="0px" y="0px"
	 viewBox="0 0 137.4 142.9" style="enable-background:new 0 0 137.4 142.9;" xml:space="preserve">
<style type="text/css">
	.st0{fill:#262626;}
</style>
<g>
	<g>
		<path class="st0" d="M10.9,71.4c0-15.2,5.9-29.5,16.6-40.4c0.4-0.4,0.4-1,0-1.3l-3-3c-0.2-0.2-0.4-0.3-0.7-0.3c0,0,0,0,0,0
			c-0.3,0-0.5,0.1-0.7,0.3C11.5,38.6,5.1,54.5,5.1,71.4c0,16.6,6.5,32.5,18.2,44.7c0.2,0.2,0.4,0.3,0.7,0.3c0,0,0,0,0,0
			c0.3,0,0.5-0.1,0.7-0.3l3-3c0.4-0.4,0.4-1,0-1.3C16.8,101,10.9,86.6,10.9,71.4z M24.3,115.8L24.3,115.8L24.3,115.8L24.3,115.8z"/>
		<path class="st0" d="M114.2,26.7c-0.2-0.2-0.4-0.3-0.7-0.3c0,0,0,0,0,0c-0.3,0-0.5,0.1-0.7,0.3l-3,3c-0.4,0.4-0.4,1,0,1.3
			c10.7,10.9,16.6,25.3,16.6,40.4c0,15.2-5.9,29.5-16.6,40.4c-0.4,0.4-0.4,1,0,1.3l3,3c0.2,0.2,0.4,0.3,0.7,0.3c0,0,0,0,0,0
			c0.3,0,0.5-0.1,0.7-0.3c11.7-11.9,18.2-27.8,18.2-44.7C132.4,54.8,125.9,38.9,114.2,26.7z"/>
		<path class="st0" d="M26.2,71.2c-0.3-11,4-21.5,11.9-29.6c0.4-0.4,0.4-1,0-1.3l-3-3C35,37.1,34.7,37,34.5,37
			c-0.3,0-0.5,0.1-0.7,0.3c-8.8,9.3-13.7,21.4-13.7,34.2c0,12.9,5,25,14,33.9c0.2,0.2,0.4,0.3,0.7,0.3c0.2,0,0.5-0.1,0.7-0.3l3-3
			c0.4-0.4,0.4-1,0-1.3C30.5,93,26.2,82.4,26.2,71.2z M34.1,37.6L34.1,37.6L34.1,37.6L34.1,37.6z"/>
		<path class="st0" d="M103.4,37.5c-0.4-0.4-1-0.4-1.3,0l-3,3c-0.4,0.4-0.4,1,0,1.3c7.8,8,12.2,18.6,12.2,29.9
			c0,11.3-4.3,21.9-12.2,29.9c-0.4,0.4-0.4,1,0,1.3l3,3c0.2,0.2,0.4,0.3,0.7,0.3c0,0,0,0,0,0c0.3,0,0.5-0.1,0.7-0.3
			c9-9.2,14-21.2,14-33.9C117.4,58.7,112.4,46.5,103.4,37.5z M103.1,105.6L103.1,105.6L103.1,105.6L103.1,105.6z"/>
		<path class="st0" d="M41.2,71.2c0-7.2,2.7-13.9,7.7-19.3c0.2-0.2,0.3-0.4,0.3-0.7c0-0.3-0.1-0.5-0.3-0.7L45.9,48
			c-0.4-0.3-1-0.3-1.3,0.1c-6.1,6.3-9.5,14.6-9.5,23.4c0,8.8,3.4,17,9.5,23.4c0.2,0.2,0.4,0.3,0.7,0.3c0,0,0,0,0,0
			c0.3,0,0.5-0.1,0.7-0.3l3-3c0.4-0.4,0.4-0.9,0-1.3C44,85.4,41.2,78.5,41.2,71.2z M45.6,94.5L45.6,94.5L45.6,94.5L45.6,94.5z"/>
		<path class="st0" d="M92.9,48.1c-0.2-0.2-0.4-0.3-0.7-0.3c-0.3,0-0.5,0.1-0.7,0.3l-3,3c-0.4,0.4-0.4,0.9,0,1.3
			c5,5.1,7.7,12,7.7,19.4c0,7.2-2.7,13.9-7.7,19.4c-0.3,0.4-0.3,0.9,0,1.3l3,3c0.2,0.2,0.4,0.3,0.7,0.3c0,0,0,0,0,0
			c0.3,0,0.5-0.1,0.7-0.3c6.1-6.3,9.5-14.6,9.5-23.4C102.4,63,98.9,54.3,92.9,48.1z M91.8,48.4L91.8,48.4L91.8,48.4L91.8,48.4z
			 M92.5,95L92.5,95L92.5,95L92.5,95z"/>
	</g>
	<circle class="st0" cx="68.7" cy="71.4" r="15.8"/>
</g>
</svg>
