<?xml version="1.0" encoding="utf-8"?>
<!-- Generator: Adobe Illustrator 22.0.1, SVG Export Plug-In . SVG Version: 6.00 Build 0)  -->
<svg version="1.0" id="Capa_1" xmlns="http://www.w3.org/2000/svg" xmlns:xlink="http://www.w3.org/1999/xlink" x="0px" y="0px"
	 viewBox="0 0 137.4 142.9" style="enable-background:new 0 0 137.4 142.9;" xml:space="preserve">
<style type="text/css">
	.st0{fill:#262626;}
</style>
<g>
	<path class="st0" d="M105.7,9c-0.8-0.8-1.9-1.2-3-1.2H9.3C7,7.8,5.1,9.7,5.1,12v118.8c0,2.3,1.9,4.2,4.2,4.2h118.8
		c2.3,0,4.2-1.9,4.2-4.2V37.5c0-1.1-0.4-2.2-1.2-3L105.7,9z M89.9,16.3V46H47.5V16.3H89.9z M39,126.6V79.9h59.4v46.7H39z
		 M123.9,126.6h-17V75.7c0-2.3-1.9-4.2-4.2-4.2H34.8c-2.3,0-4.2,1.9-4.2,4.2v50.9h-17V16.3H39v34c0,2.3,1.9,4.2,4.2,4.2h50.9
		c2.3,0,4.2-1.9,4.2-4.2v-34h2.5l23,23V126.6z"/>
	<path class="st0" d="M85.7,92.7h-34c-2.3,0-4.2,1.9-4.2,4.2s1.9,4.2,4.2,4.2h34c2.3,0,4.2-1.9,4.2-4.2S88,92.7,85.7,92.7z"/>
	<path class="st0" d="M85.7,109.6h-34c-2.3,0-4.2,1.9-4.2,4.2s1.9,4.2,4.2,4.2h34c2.3,0,4.2-1.9,4.2-4.2S88,109.6,85.7,109.6z"/>
</g>
</svg>
