<?xml version="1.0" encoding="utf-8"?>
<!-- Generator: Adobe Illustrator 22.1.0, SVG Export Plug-In . SVG Version: 6.00 Build 0)  -->
<svg version="1.1" id="Capa_1" xmlns="http://www.w3.org/2000/svg" xmlns:xlink="http://www.w3.org/1999/xlink" x="0px" y="0px"
	 viewBox="0 0 273.3 92.6" style="enable-background:new 0 0 273.3 92.6;" xml:space="preserve">
<style type="text/css">
	.st0{fill:#FFFFFF;}
</style>
<g>
	<path class="st0" d="M208.8,23h-3.3v5.3h3.1c0.9,0,1.6-0.2,2.1-0.7s0.7-1.1,0.7-1.9C211.5,23.9,210.6,23,208.8,23z"/>
	<polygon class="st0" points="177.6,30.8 182.4,30.8 180,24.7 	"/>
	<path class="st0" d="M98.2,1.8v89.1h173.3V1.8H98.2z M220.2,16.5H242v6.1h-6.7v19h-8.4v-19h-6.7V16.5z M123.9,16.1
		c1.3,0,2.7,0.1,4.2,0.4c1.5,0.2,2.8,0.5,3.9,0.8v6.6c-2.4-1-4.6-1.4-6.7-1.4c-1.1,0-2,0.1-2.6,0.3c-0.6,0.2-1,0.5-1,1.1
		c0,0.3,0.1,0.6,0.4,0.8c0.3,0.2,0.7,0.4,1.2,0.5c0.5,0.2,1.4,0.4,2.7,0.7c2,0.5,3.5,1.2,4.6,2c1.1,0.8,1.8,1.7,2.2,2.7
		c0.4,1,0.6,2.3,0.6,3.7c0,2.4-0.9,4.3-2.8,5.7c-1.9,1.4-4.6,2.1-8.1,2.1c-1.7,0-3.4-0.1-5-0.4c-1.6-0.3-2.9-0.7-4-1.2v-6.6
		c1.2,0.6,2.6,1,4.1,1.4c1.5,0.4,2.8,0.5,4,0.5c1.1,0,1.9-0.1,2.4-0.3c0.5-0.2,0.8-0.6,0.8-1.2c0-0.5-0.2-0.9-0.7-1.2
		c-0.5-0.3-1.4-0.6-2.8-1.1c-0.4-0.1-0.9-0.3-1.5-0.5c-1.7-0.6-3-1.2-3.9-1.9c-0.9-0.7-1.6-1.5-2-2.4c-0.4-0.9-0.6-2.1-0.6-3.5
		C113.2,18.7,116.7,16.1,123.9,16.1z M135.5,76.3c-1.2,0.4-2.4,0.8-3.7,1s-2.6,0.3-4.1,0.3c-4.7,0-8.3-1.1-10.8-3.3
		c-2.5-2.2-3.7-5.4-3.7-9.6c0-4.3,1.2-7.5,3.6-9.7c2.4-2.2,6-3.3,10.8-3.3c1.5,0,2.9,0.1,4.1,0.3c1.2,0.2,2.4,0.6,3.7,1v7.3
		c-2.3-1-4.7-1.6-7.2-1.6c-2.2,0-3.8,0.5-4.9,1.4c-1.1,0.9-1.6,2.4-1.6,4.5c0,2,0.6,3.5,1.7,4.4c1.1,0.9,2.7,1.4,4.9,1.4
		c2.5,0,4.9-0.5,7.2-1.5V76.3z M147,77.2h-8.4V52.1h8.4V77.2z M144.8,30.9v10.7h-8.4V16.5h8l5.7,11.6l5.6-11.6h8v25.1h-8.4V30.9
		l-3.1,6.4H148L144.8,30.9z M171.2,58.2h-6.7v19H156v-19h-6.7v-6.1h21.8V58.2z M181.9,77.2h-8.4V52.1h8.4V77.2z M176.6,36.6l-1.9,5
		H166l9.6-25.1h8.8l9.7,25.1h-8.7l-2-5H176.6z M206.3,77.2H185v-4.1l10.1-14.3h-9.5v-6.7h20.6v4.6l-9.9,14.1h10.2V77.2z M207.7,35
		c-0.2-0.2-0.5-0.2-1-0.2h-1.2v6.9h-8.4V16.5h13.6c3,0,5.3,0.8,6.9,2.5c1.6,1.7,2.3,3.9,2.3,6.7c0,1.6-0.4,3.1-1.2,4.4
		c-0.8,1.3-1.9,2.3-3.3,3.1c0.5,0.4,0.9,1,1.2,1.7l2.9,6.7h-8.7l-2.6-5.8C208.2,35.4,208,35.1,207.7,35z M228.8,58.3h-11.2v3.2h9.7
		v6.4h-9.7V71h11.2v6.2h-19.5V52.1h19.5V58.3z M255.5,77.2h-7.1l-8.2-11.5v11.5h-8.4V52.1h7.1l8.3,11.6V52.1h8.4V77.2z"/>
	<path class="st0" d="M1.8,90.9h89.1V1.8H1.8V90.9z M57.6,39.8c1,1,1.6,2.3,1.6,3.8v2.8h-4.1v-2.9c0-0.4-0.1-0.7-0.4-1
		c-0.6-0.6-1.5-0.6-2,0c-0.3,0.3-0.4,0.6-0.4,1V55c0,0.4,0.1,0.7,0.4,1c0.5,0.5,1.4,0.6,2,0c0.3-0.3,0.4-0.6,0.4-1v-3.3h4.1V55
		c0,1.5-0.5,2.8-1.6,3.8c-1,1-2.3,1.6-3.8,1.6c-1.5,0-2.8-0.5-3.8-1.6c-1-1-1.6-2.3-1.6-3.8V43.6c0-1.5,0.5-2.8,1.6-3.8
		c1-1,2.3-1.6,3.8-1.6C55.2,38.2,56.5,38.7,57.6,39.8z M19.4,37.6C23,29.4,29.8,23.5,38.3,21l-1.5-4.9c-0.2-0.7-0.1-1.3,0.4-1.7
		c0.4-0.4,1-0.5,1.7-0.2L52,19.4c0.6,0.2,1,0.7,1.1,1.2c0.2,0.5,0.1,1.1-0.3,1.6l-8.1,11.6c-0.6,0.8-1.3,0.8-1.5,0.8
		c-0.3,0-0.9-0.2-1.2-1.2l-1.7-5.6c-6.5,1.8-11.7,6.3-14.4,12.5c-4.8,11.2,0.3,24.2,11.5,29c11.2,4.8,24.2-0.3,29-11.5
		c3-7,2.2-15-2.1-21.3c-1.1-1.6-0.8-3.8,0.8-5c0.8-0.6,1.8-0.9,2.8-0.7c1,0.2,1.9,0.7,2.5,1.6c5.9,8.4,7,19.1,3,28.5
		c-3.1,7.2-8.8,12.8-16.1,15.6c-3.5,1.4-7.2,2.1-10.8,2.1c-3.9,0-7.9-0.8-11.6-2.4h0C19.9,69.7,13,52.4,19.4,37.6z M40.9,52.3
		l-2.8-2.7c-1.1-1-1.9-2-2.3-2.9c-0.5-1-0.8-2-0.8-3.2c0-2,0.7-3.6,2.1-4.7c0.9-0.7,2-1,3.2-1c1.2,0,2.3,0.3,3.1,0.8
		c0.7,0.4,1.2,1,1.7,1.8c0.4,0.7,0.7,1.6,0.7,2.6l0,0.4L42,44.2l0-0.4c-0.1-0.8-0.3-1.4-0.7-1.8c-0.2-0.3-0.5-0.4-1-0.4
		c-0.4,0-0.8,0.2-1,0.6c-0.2,0.4-0.3,0.8-0.3,1.4c0,0.9,0.4,1.8,1.2,2.7c0.3,0.4,0.8,0.8,1.4,1.3c0.7,0.6,1.2,1.1,1.5,1.3
		c0.8,0.8,1.4,1.6,1.9,2.4c0.2,0.4,0.4,0.7,0.5,1c0.3,0.8,0.5,1.5,0.5,2.2c0,1.6-0.4,2.9-1.2,4c-0.6,0.8-1.4,1.3-2.4,1.6
		c-0.6,0.2-1.2,0.3-1.9,0.3c-1.3,0-2.5-0.3-3.3-1c-0.7-0.6-1.3-1.3-1.8-2.2c-0.4-0.9-0.7-2-0.7-3.1l0-0.4l3.8-0.3l0,0.4
		c0.1,1.1,0.4,2,0.9,2.5c0.3,0.3,0.6,0.5,1,0.5h0c0.6,0,1-0.3,1.4-0.8c0.2-0.3,0.3-0.7,0.3-1.2C42,53.9,41.6,53.1,40.9,52.3z"/>
</g>
</svg>
