<?xml version="1.0" encoding="utf-8"?>
<!-- Generator: Adobe Illustrator 22.0.1, SVG Export Plug-In . SVG Version: 6.00 Build 0)  -->
<svg version="1.0" id="Capa_1" xmlns="http://www.w3.org/2000/svg" xmlns:xlink="http://www.w3.org/1999/xlink" x="0px" y="0px"
	 viewBox="0 0 181.3 181.3" style="enable-background:new 0 0 181.3 181.3;" xml:space="preserve">
<style type="text/css">
	.st0{fill:#FFFFFF;}
</style>
<g>
	<path class="st0" d="M11.3,170.8c-8.8-8.8-8.8-23.1,0-32l42.5-42.5l10.4,10.4l58.5-58.3V27l43.2-21.6l10.8,10.8l-21.6,43h-21.6
		L75,117.6l10.8,10.8l-42.5,42.5C34.3,179.6,20.2,179.6,11.3,170.8"/>
	<path class="st0" d="M148.5,155.2l-48.8-49l-8,8l50.3,50.3c6.1,6.1,16.2,6.1,22.4,0c6.1-6.1,6.1-16.2,0-22.4l-50.3-50.3l-8,8l49,49
		c1.9,1.9,1.9,4.7,0,6.5C153.4,157,150.4,157,148.5,155.2"/>
	<path class="st0" d="M44.6,76.8c5.8-0.4,11.5,1.7,15.6,6l7.5,7.5l8-8L65.6,72.1c-1.9-1.9-1.9-4.7,0-6.5c1.9-1.9,4.7-1.9,6.5,0
		l10.1,10.1l8-8l-6.3-6.3c-4.5-4.5-6.7-10.6-6-16.8c1.3-10.6-2.2-21.8-10.4-30C58,5.1,44.4,1.9,32.1,5.2c-1.5,0.4-2,2.2-0.9,3.4
		l14.3,14.3c4.5,4.5,4.5,11.5,0,16l-6.7,6.7c-4.5,4.5-11.5,4.5-16,0L9.2,32.1C8.1,30.9,6,31.5,5.8,33C3.8,44.9,7,57.4,16.1,66.3
		C23.7,74.2,34.3,77.7,44.6,76.8"/>
</g>
</svg>
