<?xml version="1.0" encoding="utf-8"?>
<!-- Generator: Adobe Illustrator 22.0.1, SVG Export Plug-In . SVG Version: 6.00 Build 0)  -->
<svg version="1.0" id="Capa_1" xmlns="http://www.w3.org/2000/svg" xmlns:xlink="http://www.w3.org/1999/xlink" x="0px" y="0px"
	 viewBox="0 0 137.4 142.9" style="enable-background:new 0 0 137.4 142.9;" xml:space="preserve">
<style type="text/css">
	.st0{fill:#5B22B2;}
</style>
<path class="st0" d="M68.7,7.8C33.6,7.8,5.1,36.3,5.1,71.4c0,35.1,28.6,63.7,63.7,63.7c35.1,0,63.7-28.6,63.7-63.7
	C132.4,36.3,103.8,7.8,68.7,7.8z M68.7,24c2.7,0,5,2.2,5,5c0,2.7-2.2,5-5,5s-5-2.2-5-5C63.8,26.2,66,24,68.7,24z M26.3,76.4
	c-2.7,0-5-2.2-5-5c0-2.7,2.2-5,5-5c2.7,0,5,2.2,5,5C31.2,74.2,29,76.4,26.3,76.4z M42.2,44.9c-1.9,1.9-5.1,1.9-7,0l0,0
	c-1.9-1.9-1.9-5.1,0-7c1.9-1.9,5.1-1.9,7,0l0,0C44.1,39.8,44.1,43,42.2,44.9z M82.9,115.6H54.6c-3,0-5.4-2.4-5.4-5.4
	c0-3,2.4-5.4,5.4-5.4h28.3c3,0,5.4,2.4,5.4,5.4C88.3,113.2,85.9,115.6,82.9,115.6z M102.5,41.8L84.6,66.2c2.7,7.3-0.1,15.8-7.1,20.1
	c-8,4.9-18.5,2.3-23.3-5.6c-4.9-8-2.3-18.5,5.6-23.3c4.5-2.7,9.8-3.2,14.5-1.4l24.3-18C101.2,35.9,104.4,39.1,102.5,41.8z
	 M111.2,76.4c-2.7,0-5-2.2-5-5c0-2.7,2.2-5,5-5c2.7,0,5,2.2,5,5C116.1,74.2,113.9,76.4,111.2,76.4z"/>
</svg>
