<?xml version="1.0" encoding="utf-8"?>
<!-- Generator: Adobe Illustrator 22.0.1, SVG Export Plug-In . SVG Version: 6.00 Build 0)  -->
<svg version="1.0" id="Capa_1" xmlns="http://www.w3.org/2000/svg" xmlns:xlink="http://www.w3.org/1999/xlink" x="0px" y="0px"
	 viewBox="0 0 137.4 142.9" style="enable-background:new 0 0 137.4 142.9;" xml:space="preserve">
<style type="text/css">
	.st0{fill:#0019FF;}
</style>
<path class="st0" d="M112.3,63.5c0.1-1,0.1-2,0.1-3c0-17.9-13.8-32.4-30.8-32.4c-13.2,0-24.4,8.7-28.8,21c-2.9-3.4-7-5.5-11.7-5.5
	c-8.8,0-15.9,7.5-15.9,16.7c0,1.1,0.1,2.1,0.3,3.1C14,65.5,5.1,76.1,5.1,88.9c0,14.3,11,25.9,24.6,25.9H41h60.3h6.5
	c13.6,0,24.6-11.6,24.6-25.9C132.4,76.2,123.7,65.7,112.3,63.5 M62.8,51.6c3.4,0,6.2,2.8,6.2,6.2c0,3.4-2.8,6.2-6.2,6.2
	c-3.4,0-6.2-2.8-6.2-6.2C56.6,54.3,59.4,51.6,62.8,51.6 M32.7,60.2c0-5.1,4.1-9.2,9.2-9.2c5.1,0,9.2,4.1,9.2,9.2
	c0,5.1-4.1,9.2-9.2,9.2C36.9,69.5,32.7,65.3,32.7,60.2 M50.9,109.1c-3.4,0-6.2-2.8-6.2-6.2s2.8-6.2,6.2-6.2c3.4,0,6.2,2.8,6.2,6.2
	S54.3,109.1,50.9,109.1 M58.6,93.2c-6.6,0-12-5.4-12-12c0-6.6,5.4-12,12-12s12,5.4,12,12C70.7,87.9,65.3,93.2,58.6,93.2 M84,95.6
	c-4.3,0-7.8-3.5-7.8-7.8S79.7,80,84,80c4.3,0,7.8,3.5,7.8,7.8S88.3,95.6,84,95.6 M103.6,110.5c-5.9,0-10.7-4.8-10.7-10.7
	c0-5.9,4.8-10.7,10.7-10.7c5.9,0,10.7,4.8,10.7,10.7C114.3,105.7,109.5,110.5,103.6,110.5"/>
</svg>
