<?xml version="1.0" encoding="utf-8"?>
<!-- Generator: Adobe Illustrator 22.0.1, SVG Export Plug-In . SVG Version: 6.00 Build 0)  -->
<svg version="1.0" id="Capa_1" xmlns="http://www.w3.org/2000/svg" xmlns:xlink="http://www.w3.org/1999/xlink" x="0px" y="0px"
	 viewBox="0 0 137.4 142.9" style="enable-background:new 0 0 137.4 142.9;" xml:space="preserve">
<style type="text/css">
	.st0{fill:#FFBA00;}
</style>
<g>
	<path class="st0" d="M34.2,75.7c1.1-1.1,1.7-2.7,1.7-4.3c0-3.3-2.6-5.9-5.8-5.9l-19.9,0c-3.2,0-5.8,2.7-5.8,5.9
		c0,3.3,2.6,5.9,5.8,5.9l19.9,0C31.7,77.4,33.1,76.8,34.2,75.7z"/>
	<path class="st0" d="M68.7,37.3c3.2,0,5.8-2.7,5.8-5.9V10.7c0-3.3-2.6-5.9-5.8-5.9c-3.2,0-5.8,2.7-5.8,5.9v20.7
		C62.9,34.6,65.5,37.3,68.7,37.3z"/>
	<path class="st0" d="M37.3,47.3c1.1,1.1,2.5,1.7,4.1,1.7c1.6,0,3.1-0.6,4.1-1.8c2.2-2.3,2.2-6,0-8.4L31.4,24.3
		c-1.1-1.1-2.6-1.7-4.1-1.7c0,0,0,0,0,0c-1.6,0-3,0.6-4.1,1.8c-2.2,2.4-2.2,6,0,8.4L37.3,47.3z"/>
	<path class="st0" d="M91.9,47.3C93,48.4,94.4,49,96,49c1.6,0,3-0.6,4.1-1.8l14.1-14.6c2.2-2.3,2.2-6,0-8.4
		c-1.1-1.1-2.6-1.7-4.1-1.7c0,0,0,0,0,0c-1.6,0-3,0.6-4.1,1.7L91.9,38.9C89.7,41.2,89.7,45,91.9,47.3L91.9,47.3z"/>
	<path class="st0" d="M127.1,65.5h-19.9c-3.2,0-5.8,2.7-5.8,6c0,3.3,2.6,5.9,5.8,5.9h19.9c3.2,0,5.8-2.7,5.8-5.9
		C132.9,68.1,130.3,65.5,127.1,65.5z"/>
	<path class="st0" d="M68.7,45.3c-13.9,0-25.2,11.7-25.2,26.1c0,14.4,11.3,26.1,25.2,26.1s25.2-11.7,25.2-26.1
		C93.9,57,82.6,45.3,68.7,45.3z"/>
	<path class="st0" d="M45.6,95.6c-1.1-1.1-2.5-1.7-4.1-1.7c0,0,0,0,0,0c-1.6,0-3,0.6-4.1,1.8l-14,14.6c-2.2,2.3-2.2,6.1,0,8.4
		c1.1,1.1,2.6,1.7,4.1,1.7c1.5,0,3-0.6,4.1-1.8l14-14.7C47.8,101.6,47.8,98,45.6,95.6L45.6,95.6z"/>
	<path class="st0" d="M100.1,95.6c-1.1-1.1-2.5-1.8-4.1-1.8c0,0,0,0,0,0c-1.6,0-3,0.6-4.1,1.8c-2.3,2.3-2.3,6.1,0,8.4l14.1,14.6
		c1.1,1.2,2.5,1.8,4.1,1.8c1.6,0,3.1-0.7,4.1-1.8c2.2-2.3,2.2-6,0-8.4L100.1,95.6z"/>
	<path class="st0" d="M72.8,107.2c-1.1-1.1-2.5-1.7-4-1.7c0,0,0,0,0,0c-3.2,0-5.8,2.7-5.8,5.9l0,20.7c0,3.3,2.6,5.9,5.8,5.9
		c3.2,0,5.8-2.7,5.8-5.9l0-20.7C74.5,109.9,73.9,108.4,72.8,107.2z"/>
</g>
</svg>
