<?xml version="1.0" encoding="utf-8"?>
<!-- Generator: Adobe Illustrator 22.0.1, SVG Export Plug-In . SVG Version: 6.00 Build 0)  -->
<svg version="1.0" id="Capa_1" xmlns="http://www.w3.org/2000/svg" xmlns:xlink="http://www.w3.org/1999/xlink" x="0px" y="0px"
	 viewBox="0 0 137.4 142.9" style="enable-background:new 0 0 137.4 142.9;" xml:space="preserve">
<style type="text/css">
	.st0{fill:#0019FF;}
</style>
<g>
	<path class="st0" d="M65.9,105.5c-1.4,0-2.5,1.1-2.5,2.5c0,1.4,1.1,2.5,2.5,2.5c1.4,0,2.5-1.1,2.5-2.5
		C68.5,106.6,67.3,105.5,65.9,105.5z"/>
	<path class="st0" d="M87.1,92.2c-2,0-3.7,1.6-3.7,3.7c0,2,1.6,3.7,3.7,3.7c2,0,3.7-1.6,3.7-3.7C90.7,93.8,89.1,92.2,87.1,92.2z"/>
	<path class="st0" d="M54.6,90.6c-2.9,0-5.3,2.4-5.3,5.3c0,2.9,2.4,5.3,5.3,5.3s5.3-2.4,5.3-5.3C59.8,93,57.5,90.6,54.6,90.6z"/>
	<path class="st0" d="M86.6,16.9L86.6,16.9c2.4-0.8,4.2-3.1,4.2-5.9c0-3.4-2.8-6.2-6.2-6.2H70.7h0h-4h0H52.9c-3.4,0-6.2,2.8-6.2,6.2
		c0,2.7,1.7,5,4.2,5.8v0v0L86.6,16.9L86.6,16.9z"/>
	<path class="st0" d="M108.4,58.5c-5.6-7.4-13.2-13.2-21.8-16.5V24.5H50.9V42c-8.6,3.3-16.3,9.1-21.8,16.5c-6.5,8.7-10,19-10,29.9
		c0,27.4,22.3,49.7,49.7,49.7c27.4,0,49.7-22.3,49.7-49.7C118.4,77.4,114.9,67.1,108.4,58.5z M68.7,58.4c2,0,3.7,1.6,3.7,3.7
		c0,2-1.6,3.7-3.7,3.7c-2,0-3.7-1.6-3.7-3.7C65.1,60,66.7,58.4,68.7,58.4z M54.6,68.2c2.9,0,5.3,2.4,5.3,5.3s-2.4,5.3-5.3,5.3
		s-5.3-2.4-5.3-5.3S51.7,68.2,54.6,68.2z M68.7,119.1c-17.4,0-31.5-13.7-31.5-31c0-0.9,0.3-1.9,1.1-2.2c1.6-0.7,2.9,0.1,4.3,0.6
		c1.7,0.5,3.4,0.6,6.8,0.6c3.4,0,5.2-0.5,6.8-1.1c1.6-0.5,3-0.9,6.1-0.9c3,0,4.5,0.5,6.1,0.9c1.7,0.5,3.4,1.1,6.8,1.1
		c3.4,0,5.2-0.5,6.8-1.1c1.6-0.5,3.1-0.9,6.1-0.9c3,0,4.5,0.5,6.1,0.9c1.4,0.4,2.8,0.9,5.1,1c0.4,0,0.7,0.4,0.7,0.8
		C100.2,105.1,86.1,119.1,68.7,119.1z"/>
</g>
</svg>
