<?xml version="1.0" encoding="utf-8"?>
<!-- Generator: Adobe Illustrator 22.0.1, SVG Export Plug-In . SVG Version: 6.00 Build 0)  -->
<svg version="1.0" id="Capa_1" xmlns="http://www.w3.org/2000/svg" xmlns:xlink="http://www.w3.org/1999/xlink" x="0px" y="0px"
	 viewBox="0 0 224.5 81.8" style="enable-background:new 0 0 224.5 81.8;" xml:space="preserve">
<style type="text/css">
	.st0{fill:#98999A;}
	.st1{fill:#6F7071;}
	.st2{fill:#FFFFFF;}
</style>
<g>
	<g>
		<path class="st0" d="M77.9,40.9C77.9,20.7,61.7,4.3,41.5,4h141.9c20.3,0,36.8,16.5,36.8,36.8c0,20.3-16.5,36.8-36.8,36.8
			c0,0,0,0-0.1,0H41.1C61.5,77.7,77.9,61.2,77.9,40.9z"/>
		<path class="st1" d="M41.1,4c0.1,0,0.3,0,0.4,0c20.1,0.2,36.4,16.6,36.4,36.8c0,20.3-16.5,36.8-36.8,36.8c0,0,0,0,0,0
			c-20.4,0-36.8-16.5-36.8-36.8C4.3,20.5,20.7,4,41.1,4z"/>
	</g>
	<g>
		<path class="st2" d="M40.9,63.9l19.3-19.3L40.9,25.2L21.6,44.5L40.9,63.9z M60.5,44.5c0,0-2.2,3.9-8.8,10.6
			c-6.8,6.8-10.8,9-10.8,9S37,62,30.3,55.3c-6.8-6.8-9-10.8-9-10.8s2.2-3.9,8.8-10.6c6.8-6.8,10.8-9,10.8-9s3.9,2.1,10.6,8.8
			C58.2,40.6,60.5,44.5,60.5,44.5 M40.9,63.9l19.3-19.3L40.9,25.2L21.6,44.5L40.9,63.9z M60.5,44.5c0,0-2.2,3.9-8.8,10.6
			c-6.8,6.8-10.8,9-10.8,9S37,62,30.3,55.3c-6.8-6.8-9-10.8-9-10.8s2.2-3.9,8.8-10.6c6.8-6.8,10.8-9,10.8-9s3.9,2.1,10.6,8.8
			C58.2,40.6,60.5,44.5,60.5,44.5 M58.6,44.3h-1.8v-1.8L58.6,44.3z M54.9,40.5v3.7h-2v-5.7L54.9,40.5z M51,36.6v7.6h-2v-9.6L51,36.6
			z M47.1,32.7v11.6h-2V30.8L47.1,32.7z M43.1,28.8v15.5h-2V26.8L43.1,28.8z M23.2,44.8H25v1.8L23.2,44.8z M26.9,48.6v-3.7h2v5.7
			L26.9,48.6z M30.8,52.5v-7.6h2v9.6L30.8,52.5z M34.7,56.4V44.8h2v13.5L34.7,56.4z M38.7,60.3V44.8h2v17.4L38.7,60.3z M41.2,44.8
			h3.9v4.9h-3.9V44.8z M45.1,58.4l-3.9,3.9V51.7h3.9V58.4z M36.7,30.7l3.9-3.9v10.6h-3.9V30.7z M40.6,44.3h-3.9v-4.9h3.9V44.3z
			 M61.5,44.6c0-0.4,0.4-0.8,0.8-0.8c0.4,0,0.8,0.3,0.8,0.8c0,0.4-0.4,0.8-0.8,0.8C61.8,45.4,61.5,45,61.5,44.6 M18.7,44.6
			c0-0.4,0.4-0.8,0.8-0.8c0.4,0,0.8,0.3,0.8,0.8c0,0.4-0.4,0.8-0.8,0.8C19.1,45.4,18.7,45,18.7,44.6 M40.1,65.9
			c0-0.4,0.4-0.8,0.8-0.8c0.4,0,0.8,0.4,0.8,0.8c0,0.4-0.4,0.8-0.8,0.8C40.5,66.7,40.1,66.4,40.1,65.9 M36,16.4
			c-0.2-0.1-0.5-0.1-0.7-0.1c-1.1,0-2,0.7-2,1.5c0,0.4,0.2,0.7,0.5,1l-0.9,0.9c-0.5-0.5-0.9-1.1-0.9-1.9c0-1.5,1.4-2.7,3.2-2.7
			c0.5,0,0.9,0.1,1.3,0.2c0.6-0.7,1.5-1.1,2.6-1.1c0.7,0,1.3,0.2,1.8,0.4c0.5-0.3,1.1-0.4,1.8-0.4c1.1,0,2,0.4,2.6,1.1
			c0.4-0.2,0.8-0.2,1.3-0.2c1.8,0,3.2,1.2,3.2,2.7c0,0.7-0.3,1.4-0.9,1.9L48,18.8c0.3-0.3,0.5-0.6,0.5-1c0-0.8-0.9-1.5-2-1.5
			c-0.3,0-0.5,0-0.7,0.1c0,0.2,0,0.3,0,0.5c0,0.5-0.2,1-0.5,1.5l-0.9-0.9c0.1-0.2,0.2-0.4,0.2-0.6c0-0.8-0.9-1.5-2-1.5
			c-0.4,0-0.8,0.1-1.1,0.3v1.8h-1.2v-1.7c-0.3-0.2-0.7-0.3-1.2-0.3c-1.1,0-2,0.7-2,1.5c0,0.2,0.1,0.4,0.2,0.6l-0.9,0.9
			c-0.3-0.4-0.5-0.9-0.5-1.5C35.9,16.8,36,16.6,36,16.4 M34.9,22.9l0.7,1c1.6-0.7,3.4-1.2,5.3-1.2c1.9,0,3.8,0.5,5.3,1.2l0.7-1
			c-1.8-0.8-3.8-1.3-6-1.3C38.7,21.6,36.7,22.1,34.9,22.9 M40.1,12.6c0-0.5,0.4-0.8,0.8-0.8c0.5,0,0.8,0.4,0.8,0.8
			c0,0.5-0.4,0.8-0.8,0.8C40.4,13.4,40.1,13,40.1,12.6 M34.9,21.9c-0.3,0-0.6-0.3-0.7-0.6c0.2-0.3,0.5-0.5,0.8-0.4
			c0.3,0,0.6,0.3,0.7,0.6C35.5,21.8,35.2,22,34.9,21.9 M34.3,20.4c-0.1-0.3-0.4-0.5-0.8-0.5c-0.2,0.3-0.3,0.6-0.1,0.9
			c0.1,0.3,0.4,0.5,0.8,0.5C34.4,21,34.4,20.7,34.3,20.4 M38,21c-0.3-0.1-0.5-0.4-0.6-0.7c0.3-0.2,0.6-0.3,0.9-0.2
			c0.3,0.1,0.5,0.4,0.6,0.7C38.6,21,38.3,21.1,38,21 M37.2,21.2c0.2-0.2,0.3-0.5,0.2-0.9c-0.3-0.1-0.7-0.1-0.9,0.1
			c-0.2,0.2-0.3,0.5-0.2,0.9C36.6,21.4,37,21.4,37.2,21.2 M37.8,19.4c-0.1-0.3-0.3-0.5-0.6-0.7c-0.3,0.3-0.4,0.6-0.3,0.9
			c0.1,0.3,0.3,0.5,0.7,0.7C37.7,20,37.9,19.7,37.8,19.4 M46.9,21.9c0.3,0,0.6-0.3,0.7-0.6c-0.2-0.3-0.5-0.5-0.8-0.4
			c-0.3,0-0.6,0.3-0.7,0.6C46.3,21.8,46.6,22,46.9,21.9 M47.4,20.4c0.1-0.3,0.4-0.5,0.8-0.5c0.2,0.3,0.3,0.6,0.2,0.9
			c-0.1,0.3-0.4,0.5-0.8,0.5C47.4,21,47.3,20.7,47.4,20.4 M43.7,21c0.3-0.1,0.5-0.4,0.6-0.7C44,20.1,43.7,20,43.4,20
			c-0.3,0.1-0.5,0.4-0.6,0.7C43.1,21,43.4,21.1,43.7,21 M44.6,21.2c-0.2-0.2-0.3-0.5-0.2-0.9c0.4-0.1,0.7-0.1,0.9,0.1
			c0.2,0.2,0.3,0.5,0.2,0.9C45.1,21.4,44.8,21.4,44.6,21.2 M44,19.4c0.1-0.3,0.3-0.5,0.7-0.7c0.3,0.3,0.4,0.6,0.3,0.9
			c-0.1,0.3-0.3,0.5-0.7,0.7C44.1,20,43.9,19.7,44,19.4 M40.5,20.8c0.3-0.1,0.4-0.5,0.4-0.8c-0.3-0.2-0.7-0.2-0.9,0
			c-0.3,0.2-0.4,0.5-0.4,0.8C39.9,20.9,40.2,20.9,40.5,20.8 M41.3,20.8c-0.3-0.1-0.4-0.5-0.4-0.8c0.3-0.2,0.7-0.2,0.9,0
			c0.3,0.2,0.4,0.5,0.4,0.8C42,20.9,41.6,20.9,41.3,20.8 M40.4,19.2c0-0.3,0.2-0.6,0.5-0.8c0.3,0.2,0.5,0.5,0.5,0.8
			c0,0.3-0.2,0.6-0.5,0.8C40.6,19.7,40.4,19.5,40.4,19.2"/>
		<polygon class="st2" points="47.1,56.4 47.1,56.4 47.1,51.7 51.8,51.7 		"/>
		<polygon class="st2" points="30,37.4 34.7,32.7 34.7,37.4 		"/>
		<polygon class="st2" points="47.1,44.8 47.1,47.3 47.1,49.7 50.4,49.7 53.7,49.7 58.6,44.8 		"/>
		<polygon class="st2" points="28.1,39.4 23.2,44.3 34.7,44.3 34.7,39.4 		"/>
	</g>
	<g>
		<path class="st2" d="M189.6,50.3c0,1.7-1.2,2.6-2.9,2.6c-0.9,0-1.6-0.5-1.6-1.4c0-0.9,0.8-1.4,1.6-1.5l2.9-0.2V50.3z M193.2,54.7
			v-2c0,0-0.2,0-0.4,0c-0.5,0-0.6-0.2-0.6-0.7v-4.2c0-0.8,0-1.6-0.3-2.3c-0.7-1.7-2.3-2.3-4.3-2.3c-2.5,0-4.6,1.1-4.7,3.7h2.6
			c0.1-1,0.8-1.6,2.1-1.6c1.6,0,1.9,0.7,1.9,1.8v0.7l-3.3,0.2c-2.2,0.1-3.9,1.4-3.9,3.6c0,1.9,1.4,3.6,4.1,3.6
			c1.6,0,2.9-0.8,3.5-1.7c0.1,0.9,0.7,1.6,1.9,1.6C192.5,55,192.8,54.9,193.2,54.7z M180.1,54.8v-7.6c0-2.4-1.4-4.1-3.8-4.1
			c-1.3,0-2.7,0.5-3.4,1.8l-0.2-1.5h-2.3v11.4h2.7v-4.6c0-1,0-2.1,0.4-3c0.4-0.8,1-1.4,2-1.4c1.4,0,1.9,0.8,1.9,2.1v7H180.1z
			 M165,49.1c0,1.1-0.2,2.1-0.8,2.9c-0.4,0.4-1,0.7-1.7,0.7c-0.7,0-1.4-0.3-1.7-0.7c-0.7-0.7-0.8-1.8-0.8-2.9c0-1.1,0.2-2.1,0.8-2.9
			c0.4-0.4,1-0.7,1.7-0.7c0.7,0,1.4,0.3,1.7,0.7C164.8,47,165,48,165,49.1 M167.7,49.1c0-1.9-0.5-3.1-1.3-4.2c-0.8-1-2.3-1.8-4-1.8
			c-1.7,0-3.2,0.8-4,1.8c-0.9,1.1-1.3,2.3-1.3,4.2c0,1.9,0.5,3.1,1.3,4.2c0.8,1,2.3,1.8,4,1.8c1.7,0,3.2-0.8,4-1.8
			C167.3,52.2,167.7,51,167.7,49.1 M155.6,54.8v-2.3c-0.2,0-0.2,0-0.5,0c-0.9,0-1.1-0.4-1.1-1.1V39h-2.8v12.9c0,2.2,1.2,3.1,3.1,3.1
			C155,54.9,155.1,54.9,155.6,54.8 M146.1,48h-4.9c0-0.7,0.2-1.3,0.6-1.8c0.4-0.5,1.1-0.9,1.9-0.9c0.8,0,1.4,0.3,1.7,0.7
			C145.8,46.5,146.1,47.1,146.1,48 M148.8,49.2c0-1.4-0.2-2.7-1-4c-0.9-1.4-2.5-2.1-4.2-2.1c-1.6,0-2.8,0.6-3.6,1.4
			c-1.1,1.1-1.6,2.7-1.6,4.6c0,1.9,0.6,3.5,1.8,4.6c0.9,0.9,2,1.4,3.6,1.4c1.4,0,2.9-0.5,3.8-1.6c0.4-0.5,0.9-1.4,1-2.1h-2.6
			c-0.1,0.4-0.3,0.7-0.5,1c-0.4,0.4-0.9,0.5-1.7,0.5c-0.7,0-1.3-0.3-1.7-0.7c-0.5-0.5-0.9-1.4-0.8-2.2h7.6
			C148.8,49.7,148.8,49.2,148.8,49.2 M136.7,50.8h-2.7c0,0.4-0.2,0.8-0.3,1.1c-0.3,0.5-0.9,0.9-1.8,0.9c-0.7,0-1.3-0.3-1.7-0.7
			c-0.7-0.7-0.8-1.8-0.8-2.9c0-1.1,0.1-2.2,0.8-2.9c0.4-0.4,0.9-0.7,1.7-0.7c0.8,0,1.4,0.3,1.8,0.9c0.2,0.3,0.3,0.6,0.3,1.1h2.7
			c0-0.9-0.3-1.8-0.9-2.5c-0.8-1-2.2-1.8-3.9-1.8c-1.7,0-3.2,0.8-4,1.8c-0.9,1.1-1.2,2.5-1.2,4.2c0,1.7,0.4,3.1,1.2,4.2
			c0.8,1,2.2,1.8,4,1.8c1.7,0,3.1-0.8,3.9-1.8C136.4,52.6,136.7,51.7,136.7,50.8 M125.9,46v-2.6c-0.3,0-0.6-0.1-0.9-0.1
			c-1.3,0-2.7,0.5-3.2,1.9l-0.2-1.7h-2.3v11.4h2.8v-5.7c0-1.8,1-3.2,2.9-3.2C125.3,45.8,125.6,45.9,125.9,46 M113.2,50.3
			c0,1.7-1.2,2.6-2.9,2.6c-0.9,0-1.6-0.5-1.6-1.4c0-0.9,0.8-1.4,1.6-1.5l2.9-0.2V50.3z M116.9,54.7v-2c0,0-0.2,0-0.3,0
			c-0.5,0-0.6-0.2-0.6-0.7v-4.2c0-0.8,0-1.6-0.3-2.3c-0.7-1.7-2.3-2.3-4.3-2.3c-2.5,0-4.6,1.1-4.7,3.7h2.6c0.1-1,0.8-1.6,2.1-1.6
			c1.6,0,1.9,0.7,1.9,1.8v0.7l-3.4,0.2c-2.2,0.1-3.9,1.4-3.9,3.6c0,1.9,1.4,3.6,4.1,3.6c1.6,0,2.9-0.8,3.5-1.7
			c0.1,0.9,0.7,1.6,1.9,1.6C116.2,55,116.4,54.9,116.9,54.7z M101.6,50.2c0,1.6-1.4,2.1-2.7,2.1h-3.5V48h3.6
			C100.4,48,101.6,48.6,101.6,50.2 M101.2,43.7c0,1.5-1.1,1.9-2.3,1.9h-3.5v-3.9h3.5C100.1,41.7,101.2,42.2,101.2,43.7 M104.4,50.3
			c0-1.4-0.8-2.8-2.2-3.5c1.3-0.6,1.9-2,1.9-3.3c0-1.3-0.7-2.6-1.8-3.4c-1-0.7-2.3-0.9-3.6-0.9h-6.2v15.5h6.2c1.5,0,2.9-0.1,4.1-1.1
			C104,52.9,104.4,51.7,104.4,50.3"/>
		<g>
			<path class="st2" d="M191.1,28.3h-3.5c0-0.5,0.1-0.9,0.4-1.3c0.3-0.4,0.8-0.6,1.4-0.6c0.6,0,1,0.2,1.2,0.5
				C190.9,27.3,191.1,27.7,191.1,28.3 M193.1,29.2c0-1-0.1-1.9-0.7-2.8c-0.7-1-1.8-1.5-3-1.5c-1.1,0-2,0.4-2.6,1
				c-0.8,0.8-1.2,2-1.2,3.3c0,1.3,0.4,2.5,1.3,3.3c0.6,0.6,1.5,1,2.6,1c1,0,2.1-0.3,2.7-1.1c0.3-0.4,0.6-1,0.7-1.5H191
				c-0.1,0.3-0.2,0.5-0.4,0.7c-0.3,0.3-0.6,0.4-1.2,0.4c-0.5,0-0.9-0.2-1.2-0.5c-0.4-0.4-0.6-1-0.6-1.6h5.5
				C193,29.6,193.1,29.2,193.1,29.2 M182.6,29.1c0,1.2-0.3,2.6-1.9,2.6c-0.6,0-1-0.3-1.3-0.6c-0.4-0.5-0.5-1.3-0.5-2
				c0-0.7,0.1-1.4,0.5-2c0.3-0.4,0.7-0.6,1.3-0.6C182.3,26.5,182.6,28,182.6,29.1 M184.5,33.3V21.9h-2v3.7c-0.3-0.4-1.1-0.8-2.1-0.8
				c-0.8,0-1.5,0.2-2,0.7c-1,0.8-1.5,2-1.5,3.6c0,1.5,0.5,2.8,1.4,3.6c0.5,0.4,1.2,0.7,2,0.7c0.9,0,1.8-0.3,2.3-1.1l0.1,0.9H184.5z
				 M172.8,33.1v-1.6c-0.5,0.1-0.9,0.1-1.3,0.1c-0.6,0-0.9-0.3-0.9-0.9v-4h2.1v-1.6h-2.1v-2.6l-2,0.5v2.1h-1.5v1.6h1.5v4.2
				c0,1.6,0.8,2.5,2.5,2.5C171.7,33.4,172.3,33.3,172.8,33.1 M166.5,33.3v-5.5c0-1.7-1-2.9-2.8-2.9c-0.9,0-1.9,0.4-2.4,1.3l-0.1-1.1
				h-1.7v8.2h2v-3.3c0-0.7,0-1.5,0.3-2.2c0.3-0.6,0.7-1,1.4-1c1,0,1.4,0.6,1.4,1.5v5H166.5z M156.4,28.3h-3.5c0-0.5,0.1-0.9,0.4-1.3
				c0.3-0.4,0.8-0.6,1.4-0.6c0.6,0,1,0.2,1.2,0.5C156.2,27.3,156.3,27.7,156.4,28.3 M158.3,29.2c0-1-0.1-1.9-0.7-2.8
				c-0.7-1-1.8-1.5-3-1.5c-1.1,0-2,0.4-2.6,1c-0.8,0.8-1.2,2-1.2,3.3c0,1.3,0.4,2.5,1.3,3.3c0.6,0.6,1.5,1,2.6,1
				c1,0,2.1-0.3,2.8-1.1c0.3-0.4,0.6-1,0.7-1.5h-1.9c-0.1,0.3-0.2,0.5-0.4,0.7c-0.3,0.3-0.6,0.4-1.2,0.4c-0.5,0-0.9-0.2-1.2-0.5
				c-0.4-0.4-0.6-1-0.6-1.6h5.5C158.3,29.6,158.3,29.2,158.3,29.2 M149.7,33.3v-5.5c0-1.7-0.9-2.9-2.7-2.9c-1.1,0-2,0.5-2.5,1.3
				c-0.4-0.8-1.2-1.3-2.3-1.3c-1.1,0-1.9,0.5-2.3,1.3l-0.2-1.1h-1.6v8.2h1.9v-4.5c0-1,0.5-2.2,1.6-2.2c1,0,1.3,0.6,1.3,1.6v5.1h1.9
				v-4.5c0-1,0.5-2.2,1.6-2.2c1,0,1.3,0.6,1.3,1.6v5.1H149.7z M134.4,30c0,1.2-0.9,1.9-2.1,1.9c-0.6,0-1.2-0.4-1.2-1
				c0-0.7,0.6-1,1.2-1.1l2.1-0.2V30z M137,33.2v-1.4c0,0-0.1,0-0.3,0c-0.3,0-0.5-0.1-0.5-0.5v-3c0-0.5,0-1.1-0.2-1.7
				c-0.5-1.2-1.7-1.7-3.1-1.7c-1.8,0-3.3,0.8-3.4,2.7h1.9c0-0.8,0.6-1.2,1.5-1.2c1.1,0,1.4,0.5,1.4,1.3v0.5l-2.4,0.2
				c-1.6,0.1-2.8,1-2.8,2.6c0,1.3,1,2.6,3,2.6c1.2,0,2.1-0.6,2.5-1.2c0.1,0.6,0.5,1.1,1.4,1.1C136.5,33.4,136.7,33.3,137,33.2z
				 M128.9,33.1v-1.6c-0.5,0.1-0.9,0.1-1.3,0.1c-0.6,0-0.9-0.3-0.9-0.9v-4h2.1v-1.6h-2.1v-2.6l-2,0.5v2.1h-1.5v1.6h1.5v4.2
				c0,1.6,0.8,2.5,2.5,2.5C127.8,33.4,128.3,33.3,128.9,33.1 M122.6,33.3v-5.5c0-1.7-1-2.9-2.8-2.9c-0.9,0-1.9,0.4-2.4,1.3l-0.1-1.1
				h-1.6v8.2h2v-3.3c0-0.7,0-1.5,0.3-2.2c0.3-0.6,0.7-1,1.4-1c1,0,1.4,0.6,1.4,1.5v5H122.6z M113.8,33.3v-8.2h-2v4.3
				c0,0.7-0.1,1.4-0.6,1.8c-0.2,0.2-0.5,0.4-1,0.4c-1,0-1.4-0.6-1.4-1.6v-5h-2v5.5c0,1.7,1.1,2.9,2.8,2.9c1,0,2-0.5,2.3-1.3l0.1,1.1
				H113.8z M105.1,34.4v-9.3h-2V34c0,0.5-0.3,0.9-0.9,0.9c-0.3,0-0.4,0-1-0.1v1.7c0.4,0.1,0.6,0.1,0.9,0.2c0.3,0,0.5,0,0.7,0
				C104.3,36.7,105.1,35.8,105.1,34.4 M105.2,21.9h-2.1v2h2.1V21.9z M98.8,29.3h-3.2l1.6-4.7L98.8,29.3z M102.3,33.3l-3.9-11.1h-2.2
				l-3.9,11.1h2l0.7-2.1h4.4l0.7,2.1H102.3z"/>
		</g>
	</g>
</g>
</svg>
