<?xml version="1.0" encoding="utf-8"?>
<!-- Generator: Adobe Illustrator 22.0.1, SVG Export Plug-In . SVG Version: 6.00 Build 0)  -->
<svg version="1.0" id="Capa_1" xmlns="http://www.w3.org/2000/svg" xmlns:xlink="http://www.w3.org/1999/xlink" x="0px" y="0px"
	 viewBox="0 0 157.2 81.8" style="enable-background:new 0 0 157.2 81.8;" xml:space="preserve">
<style type="text/css">
	.st0{fill:#939393;}
</style>
<g>
	<path class="st0" d="M62,72.7l0,5.8l0.4,0.1c1.3,0.2,2.7,0.4,4,0.5c1.2,0.1,2.4,0.1,3.6,0.1c1.1-0.1,2.3-0.3,3.3-0.6
		c1.3-0.4,2.5-1,3.5-1.8c0.9-0.8,1.6-1.8,2-2.9c0.7-1.9,0.7-4,0-5.8c-0.4-1-1-1.8-1.8-2.5c-0.8-0.7-1.7-1.2-2.7-1.5l-4.4-1.6
		c-0.5-0.2-0.9-0.6-1.2-1.1c-0.2-0.4-0.2-0.9,0-1.3c0.1-0.1,0.2-0.3,0.3-0.4c0.1-0.1,0.3-0.3,0.4-0.4c0.1,0,0.1-0.1,0.2-0.1
		c0.5-0.2,1-0.4,1.6-0.5c0.9-0.1,1.9-0.1,2.8,0c1.1,0.1,2.2,0.3,3.2,0.6l0.2,0.1v-5.4l-0.4-0.1c-1.1-0.3-2.2-0.5-3.3-0.6
		c-1.4-0.2-2.9-0.2-4.3,0c-1.8,0.2-3.6,0.9-5,2c-1,0.8-1.7,1.8-2.1,2.9c-0.6,1.8-0.6,3.7,0,5.5c0.3,0.9,0.9,1.7,1.5,2.3
		c0.6,0.6,1.3,1.1,2,1.4c1,0.5,2,0.9,3,1.2c0.3,0.1,0.7,0.2,1,0.3l0.5,0.2c0,0,0.1,0,0.1,0.1c0.5,0.2,1,0.5,1.4,0.8
		c0.3,0.3,0.5,0.6,0.6,0.9c0.1,0.3,0.1,0.7,0,1c-0.2,0.5-0.5,0.9-1,1.2c-0.5,0.3-1.1,0.4-1.7,0.5c-0.9,0.1-1.7,0.2-2.6,0.1
		c-1.1-0.1-2.3-0.2-3.4-0.5c-0.6-0.1-1.2-0.3-1.7-0.4L62,72.7"/>
	<path class="st0" d="M38.2,78.3v-6.7l-0.1,0.1c-1.5,0.7-3.2,1.2-4.9,1.2c-1.8,0.1-3.5-0.4-4.9-1.4c-1-0.8-1.7-1.8-2.1-3
		c-0.4-1.3-0.5-2.7-0.1-4c0.3-1.4,1.1-2.6,2.2-3.5c1-0.8,2.2-1.3,3.4-1.5c2.2-0.2,4.5,0.2,6.4,1.2l0.1,0.1V54l-0.3-0.1
		c-2-0.6-4.1-0.9-6.1-0.8c-1.9,0-3.8,0.5-5.5,1.3c-1.7,0.8-3.3,2-4.5,3.5c-3.8,4.8-3.9,11.5-0.2,16.4c1.8,2.3,4.3,3.9,7.1,4.6
		c3,0.7,6.1,0.6,9-0.3L38.2,78.3"/>
	<polyline class="st0" points="53.4,78.8 53.4,53.5 47,53.5 47,78.8 53.4,78.8 	"/>
	<polyline class="st0" points="147.7,75.8 147.7,75.5 145,75.5 145,75.8 146.1,75.8 146.1,78.8 146.6,78.8 146.6,75.8 147.7,75.8 	
		"/>
	<polyline class="st0" points="147.9,78.8 148.4,78.8 148.4,76.1 148.4,76.1 149.4,78.8 149.8,78.8 150.9,76 150.9,78.8 151.3,78.8 
		151.3,75.5 150.6,75.5 149.7,78.2 148.7,75.5 147.9,75.5 147.9,78.8 	"/>
	<path class="st0" d="M5.8,33.2c0.1,0.8,0.4,1.5,1,2.1c0.6,0.5,1.4,0.8,2.2,0.8c0.8,0,1.6-0.3,2.1-0.8c0.6-0.5,0.9-1.3,1-2.1v-7
		c0-0.8-0.4-1.6-1-2.1c-0.6-0.6-1.4-0.9-2.2-0.9c-0.8,0-1.6,0.3-2.2,0.9c-0.6,0.6-0.9,1.3-1,2.1V33.2"/>
	<path class="st0" d="M23.3,33.2c0.1,0.8,0.4,1.5,1,2.1c0.6,0.5,1.4,0.8,2.2,0.8c0.8,0,1.6-0.3,2.1-0.8c0.6-0.5,0.9-1.3,1-2.1V17.5
		c0-0.8-0.4-1.6-1-2.1c-0.6-0.6-1.4-0.9-2.2-0.9c-0.8,0-1.6,0.3-2.2,0.9c-0.6,0.6-0.9,1.3-1,2.1V33.2"/>
	<path class="st0" d="M40.6,39.5c0.1,0.8,0.4,1.5,1,2.1c0.6,0.5,1.4,0.8,2.2,0.8c0.8,0,1.6-0.3,2.2-0.8c0.6-0.5,0.9-1.3,1-2.1v-34
		c0-0.8-0.4-1.6-1-2.1c-0.6-0.6-1.4-0.9-2.2-0.9c-0.8,0-1.6,0.3-2.2,0.9c-0.6,0.6-0.9,1.3-1,2.1V39.5"/>
	<path class="st0" d="M58.1,33.2c0.1,0.8,0.4,1.5,1,2.1c0.6,0.5,1.4,0.8,2.1,0.8c0.8,0,1.6-0.3,2.2-0.8c0.6-0.5,0.9-1.3,1-2.1V17.5
		c0-0.8-0.4-1.6-1-2.1c-0.6-0.6-1.4-0.9-2.2-0.9c-0.8,0-1.6,0.3-2.2,0.9c-0.6,0.6-0.9,1.3-1,2.1V33.2"/>
	<path class="st0" d="M75.4,33.2c0.1,0.8,0.4,1.5,1,2.1c0.6,0.5,1.4,0.8,2.2,0.8c0.8,0,1.6-0.3,2.2-0.8c0.6-0.5,0.9-1.3,1-2.1v-7
		c0-0.8-0.4-1.6-1-2.1c-0.6-0.6-1.4-0.9-2.2-0.9S77,23.5,76.4,24c-0.6,0.6-0.9,1.3-1,2.1V33.2"/>
	<path class="st0" d="M92.9,33.2c0.1,0.8,0.4,1.5,1,2.1c0.6,0.5,1.4,0.8,2.2,0.8c0.8,0,1.6-0.3,2.1-0.8c0.6-0.5,0.9-1.3,1-2.1V17.5
		c0-0.8-0.4-1.6-1-2.1c-0.6-0.6-1.4-0.9-2.2-0.9c-0.8,0-1.6,0.3-2.2,0.9c-0.6,0.6-0.9,1.3-1,2.1V33.2"/>
	<path class="st0" d="M110.2,39.5c0.1,0.8,0.4,1.5,1,2.1c0.6,0.5,1.4,0.8,2.1,0.8c0.8,0,1.6-0.3,2.2-0.8c0.6-0.5,0.9-1.3,1-2.1v-34
		c0-0.8-0.4-1.6-1-2.1c-0.6-0.6-1.4-0.9-2.2-0.9c-0.8,0-1.6,0.3-2.2,0.9c-0.6,0.6-0.9,1.3-1,2.1V39.5"/>
	<path class="st0" d="M127.7,33.2c0.1,0.8,0.4,1.5,1,2.1c0.6,0.5,1.4,0.8,2.2,0.8c0.8,0,1.6-0.3,2.2-0.8c0.6-0.5,0.9-1.3,1-2.1V17.5
		c0-0.8-0.4-1.6-1-2.1c-0.6-0.6-1.4-0.9-2.2-0.9c-0.8,0-1.6,0.3-2.2,0.9c-0.6,0.6-0.9,1.3-1,2.1V33.2"/>
	<path class="st0" d="M145,33.2c0.1,0.8,0.4,1.5,1,2.1c0.6,0.5,1.4,0.8,2.1,0.8c0.8,0,1.6-0.3,2.2-0.8c0.6-0.5,0.9-1.3,1-2.1v-7
		c0-0.8-0.4-1.6-1-2.1c-0.6-0.6-1.4-0.9-2.2-0.9c-0.8,0-1.6,0.3-2.2,0.9c-0.6,0.6-0.9,1.3-1,2.1V33.2"/>
	<path class="st0" d="M104.8,78.3v-6.7l-0.1,0.1c-1.5,0.7-3.2,1.2-4.9,1.2c-1.8,0.1-3.5-0.4-4.9-1.4c-1-0.8-1.7-1.8-2.1-3
		c-0.4-1.3-0.5-2.7-0.1-4c0.3-1.4,1.1-2.6,2.2-3.5c1-0.8,2.2-1.3,3.4-1.5c2.2-0.2,4.5,0.2,6.4,1.2l0.1,0.1V54l-0.3-0.1
		c-2-0.6-4.1-0.9-6.1-0.8c-1.9,0-3.8,0.5-5.5,1.3c-1.7,0.8-3.3,2-4.5,3.5c-3.8,4.8-3.9,11.5-0.2,16.4c1.8,2.3,4.3,3.9,7.1,4.6
		c3,0.7,6.1,0.6,9-0.3L104.8,78.3"/>
	<path class="st0" d="M111.5,66.1c0.1,4,1.9,7.8,5.1,10.2c3.1,2.5,7.2,3.4,11.1,2.6c5.3-1,9.4-5.2,10.4-10.5
		c0.9-5.3-1.5-10.6-6.1-13.4c-4.1-2.5-9.2-2.7-13.4-0.4C114.3,57,111.6,61.3,111.5,66.1 M120.8,61c1.4-1.1,3.1-1.6,4.9-1.4
		c1.8,0.2,3.4,1.1,4.5,2.5c1.1,1.4,1.6,3.1,1.4,4.9s-1.1,3.4-2.5,4.5c-1.4,1.1-3.1,1.6-4.9,1.4c-1.8-0.2-3.4-1.1-4.5-2.5
		c-1.1-1.4-1.6-3.1-1.4-4.9C118.5,63.7,119.4,62.1,120.8,61"/>
</g>
</svg>
