<?xml version="1.0" encoding="utf-8"?>
<!-- Generator: Adobe Illustrator 22.0.1, SVG Export Plug-In . SVG Version: 6.00 Build 0)  -->
<svg version="1.0" id="Capa_1" xmlns="http://www.w3.org/2000/svg" xmlns:xlink="http://www.w3.org/1999/xlink" x="0px" y="0px"
	 viewBox="0 0 224.5 72.4" style="enable-background:new 0 0 224.5 72.4;" xml:space="preserve">
<style type="text/css">
	.st0{fill:#939393;}
</style>
<g id="g3028" transform="matrix(1.25,0,0,-1.25,-8.0768312e-5,55.999998)" inkscape:groupmode="layer" inkscape:label="ink_ext_XXXXXX">
	<g id="g3030" transform="matrix(0.0633338,0,0,0.06283724,2.3691734e-5,0)">
		<path id="path3032" inkscape:connector-curvature="0" class="st0" d="M2715.7,66.7c-2.1-7.1-5.2-13.6-9.5-19.2
			c-4.2-5.6-9.6-10.1-16-13.5c-6.4-3.4-13.9-5.1-22.3-5.1c-9.3,0-17,2-23.2,5.9c-6.2,3.9-11.2,9-15,15.2c-3.8,6.2-6.5,13.1-8,20.9
			c-1.5,7.7-2.3,15.5-2.3,23.4c0,8.1,0.9,15.9,2.8,23.4c1.8,7.4,4.8,14,8.8,19.8c4.1,5.7,9.1,10.3,15.2,13.7
			c6.1,3.4,13.3,5.1,21.7,5.1c9.8,0,18-1.8,24.4-5.5c6.5-3.7,11.6-8.6,15.6-14.8c3.9-6.2,6.8-13.3,8.4-21.3c1.7-8,2.5-16.5,2.5-25.5
			C2718.9,81.4,2717.8,73.9,2715.7,66.7z M2718.9,195.4v-29.1h-0.8c-7.3,12.6-16.4,21.6-27.2,27c-10.8,5.3-23.4,8-37.7,8
			c-15.2,0-28.6-3-40.2-8.8c-11.7-5.9-21.4-13.8-29.3-23.8c-7.9-10-13.8-21.5-17.9-34.6c-4.1-13.1-6.1-26.6-6.1-40.7
			c0-14.9,1.8-29,5.2-42.3c3.5-13.4,9.1-25,16.6-35c7.6-10,17.3-17.9,29.1-23.6c11.8-5.8,25.8-8.6,42.1-8.6
			c13.2,0,25.8,2.8,37.7,8.2c11.9,5.5,21.1,13.9,27.6,25.5h0.8V-11c0.3-15.4-3.4-28.2-11.2-38.3c-7.7-10.1-20-15.2-36.9-15.2
			c-10.7,0-20.1,2.2-28.2,6.5c-8.2,4.3-13.6,12.2-16.4,23.4h-59.4c0.9-12.3,4.3-23,10.4-31.8c6-8.9,13.6-16.1,22.7-21.7
			c9.1-5.6,19.2-9.7,30.3-12.4c11.1-2.7,22-4,32.6-4c25,0,44.9,3.4,59.8,10.1c14.9,6.7,26.3,15,34.1,24.6c7.9,9.7,13,20.1,15.4,31.4
			c2.4,11.2,3.6,21.2,3.6,29.9v204H2718.9L2718.9,195.4z M2515.4,176.7c-5.9,7.7-14,13.8-24.2,18.1c-10.2,4.4-23.4,6.5-39.4,6.5
			c-12.6,0-25-2.9-37.1-8.6c-12.1-5.8-21.9-15-29.5-27.6h-1.3v30.3H2327V-22.4h59.8V91.8c0,22.2,3.6,38.1,10.9,47.8
			c7.3,9.7,19.1,14.5,35.4,14.5c14.3,0,24.3-4.4,29.9-13.3c5.6-8.8,8.4-22.3,8.4-40.2v-123h59.8v134c0,13.5-1.2,25.8-3.6,36.9
			C2525.4,159.5,2521.3,168.9,2515.4,176.7L2515.4,176.7z M2231,229.1h59.8v49.3H2231V229.1z M2231-22.4h59.8v217.8H2231V-22.4z
			 M2178.3,176.7c-5.9,7.7-14,13.8-24.2,18.1c-10.2,4.4-23.4,6.5-39.4,6.5c-11.2,0-22.7-2.9-34.5-8.6c-11.8-5.8-21.5-15-29.1-27.6
			h-1.2v113.3H1990V-22.4h59.8V91.8c0,22.2,3.7,38.1,10.9,47.8c7.3,9.7,19.1,14.5,35.4,14.5c14.3,0,24.3-4.4,29.9-13.3
			c5.6-8.8,8.4-22.3,8.4-40.2v-123h59.8v134c0,13.5-1.2,25.8-3.6,36.9C2188.3,159.5,2184.2,168.9,2178.3,176.7z M1928,260.7h-59.8
			v-65.3H1781l-47.6-149.2h-0.8l-49.3,149.2h-51.8v3.8c-4.8,1.4-9.1,2.1-13.1,2.1c-7.6,0-14.9-1.1-21.9-3.4
			c-7-2.2-13.6-5.4-19.8-9.5c-6.2-4.1-11.7-9-16.4-14.8c-4.8-5.8-8.6-12-11.4-18.8h-0.8v40.5h-56.9V-22.4h59.8v98.2
			c0,9.8,1,19,2.9,27.4c1.9,8.4,5.3,15.8,9.9,22.1c4.7,6.3,10.8,11.3,18.3,15c7.6,3.6,16.8,5.5,27.8,5.5c3.7,0,7.4-0.2,11.4-0.6
			c3.9-0.4,7.3-0.9,10.1-1.5v20.2l64.5-172.8c1.7-4.2,2.5-8.7,2.5-13.5c0-6.5-1.9-12.4-5.7-17.7c-3.8-5.3-9.6-8.4-17.5-9.3
			c-5.9-0.3-11.8-0.2-17.7,0.4c-5.9,0.6-11.7,1.1-17.3,1.7v-49.3c6.2-0.6,12.3-1.1,18.3-1.5c6.1-0.4,12.2-0.6,18.3-0.6
			c20.5,0,36.5,3.8,48,11.4c11.5,7.6,20.5,20.2,27,37.9l80.1,215.3v-10.6h36.2V26.9c0-10.9,1.8-19.8,5.5-26.5
			c3.6-6.8,8.6-11.9,15-15.6c6.3-3.7,13.6-6.1,21.9-7.4c8.3-1.3,17.1-1.9,26.3-1.9c5.9,0,11.9,0.2,18.1,0.4
			c6.2,0.3,11.8,0.8,16.9,1.7v46.4c-2.8-0.6-5.8-1-8.8-1.3c-3.1-0.3-6.3-0.4-9.7-0.4c-10.1,0-16.8,1.7-20.2,5.1
			c-3.4,3.4-5.1,10.1-5.1,20.2v107.9h43.8v40H1928L1928,260.7z M1309,109.9c0.3,4.2,1.2,9,2.7,14.3c1.5,5.3,4.2,10.4,8,15.2
			c3.8,4.8,8.8,8.8,15.2,12c6.3,3.2,14.2,4.9,23.8,4.9c14.6,0,25.5-3.9,32.7-11.8c7.2-7.9,12.1-19.4,15-34.6H1309z M1462,120.4
			c-4,15.5-10.3,29.2-19.2,41.3c-8.9,12.1-20.2,21.7-33.9,28.9c-13.8,7.2-29.9,10.8-48.5,10.8c-16.6,0-31.7-3-45.3-8.8
			c-13.6-5.9-25.4-14-35.2-24.2c-9.8-10.3-17.4-22.4-22.8-36.4c-5.3-14.1-8-29.2-8-45.5c0-16.9,2.6-32.3,7.8-46.3
			c5.2-14,12.6-26.1,22.1-36.2c9.6-10.1,21.2-17.9,35-23.4c13.8-5.5,29.2-8.2,46.3-8.2c24.7,0,45.8,5.6,63.2,16.9
			c17.4,11.2,30.3,29.9,38.7,56h-52.7c-2-6.7-7.3-13.1-16-19.2c-8.7-6-19.1-9.1-31.2-9.1c-16.9,0-29.8,4.3-38.8,13
			c-9,8.7-13.9,22.8-14.7,42.1h157.1C1467.3,88.8,1465.9,105,1462,120.4z M1140.1,46.7h-0.8l-45.9,148.7h-62.8l74.6-217.8h66.6
			l73.7,217.8H1186L1140.1,46.7z M861.6,106.9h145.8v51.4H861.6v64.5h158.8v55.6h-225V-22.4h228.4v55.6H861.6L861.6,106.9z
			 M1842.7,454.2c1.5,5.3,4.2,10.4,8,15.2c3.8,4.8,8.8,8.8,15.2,12c6.3,3.2,14.2,4.8,23.8,4.8c14.6,0,25.5-3.9,32.7-11.8
			c7.2-7.9,12.1-19.4,15-34.5h-97.3C1840.2,444,1841.1,448.8,1842.7,454.2z M1787.9,369.9c5.2-14,12.6-26.1,22.1-36.2
			c9.6-10.1,21.2-17.9,35-23.4c13.8-5.5,29.2-8.2,46.3-8.2c24.7,0,45.8,5.6,63.2,16.9c17.4,11.2,30.3,29.9,38.8,56h-52.7
			c-2-6.7-7.3-13.1-16-19.2c-8.7-6-19.1-9.1-31.2-9.1c-16.9,0-29.8,4.3-38.8,13.1c-9,8.7-13.9,22.8-14.8,42.1h157.2
			c1.1,16.8-0.3,33-4.2,48.5c-3.9,15.4-10.3,29.2-19.2,41.3c-8.8,12.1-20.1,21.7-33.9,28.9c-13.8,7.2-29.9,10.7-48.4,10.7
			c-16.6,0-31.7-3-45.3-8.8c-13.6-5.9-25.3-14-35.2-24.2c-9.8-10.3-17.4-22.4-22.7-36.4c-5.3-14.1-8-29.2-8-45.5
			C1780.1,399.4,1782.7,383.9,1787.9,369.9L1787.9,369.9z M1704.7,405.7c0,9.8,1,19,3,27.4c1.9,8.4,5.3,15.8,9.9,22.1
			c4.6,6.3,10.8,11.3,18.3,15c7.6,3.7,16.8,5.5,27.8,5.5c3.7,0,7.4-0.2,11.4-0.6c3.9-0.4,7.3-0.9,10.1-1.5v55.6
			c-4.8,1.4-9.1,2.1-13.1,2.1c-7.6,0-14.9-1.1-21.9-3.4c-7-2.2-13.7-5.4-19.8-9.5c-6.2-4.1-11.7-9-16.4-14.8
			c-4.8-5.8-8.6-12-11.4-18.8h-0.8v40.4h-56.9V307.5h59.8L1704.7,405.7z M1551.7,337.9h1.2v-30.3h56.9v217.8H1550V411.2
			c0-22.2-3.6-38.1-10.9-47.8c-7.3-9.7-19.1-14.5-35.4-14.5c-14.3,0-24.3,4.4-29.9,13.3c-5.6,8.8-8.4,22.3-8.4,40.2v123h-59.8v-134
			c0-13.5,1.2-25.8,3.6-36.9c2.4-11.1,6.5-20.5,12.4-28.2c5.9-7.7,13.9-13.7,24.2-17.9c10.2-4.2,23.4-6.3,39.4-6.3
			c12.6,0,25,2.8,37.1,8.4C1534.3,316.1,1544.2,325.2,1551.7,337.9z M1283.7,356.8c0-11,1.8-19.8,5.5-26.5
			c3.7-6.7,8.7-11.9,14.9-15.6c6.3-3.7,13.6-6.1,21.9-7.4c8.3-1.3,17.1-1.9,26.3-1.9c5.9,0,11.9,0.2,18.1,0.4
			c6.2,0.3,11.8,0.8,16.9,1.7v46.3c-2.8-0.6-5.8-1-8.8-1.3c-3.1-0.3-6.3-0.4-9.7-0.4c-10.1,0-16.8,1.7-20.2,5
			c-3.4,3.4-5.1,10.1-5.1,20.2v107.9h43.8v40h-43.8v65.3h-59.8v-65.3h-36.2v-40h36.2V356.8z M1044.4,326.3
			c5.9-7.7,14-13.7,24.2-17.9c10.3-4.2,23.4-6.3,39.4-6.3c12.6,0,25,2.8,37.1,8.4c12.1,5.6,21.9,14.7,29.5,27.4h1.3v-30.3h56.9
			v217.8h-59.8V411.2c0-22.2-3.7-38.1-10.9-47.8c-7.3-9.7-19.1-14.5-35.4-14.5c-14.3,0-24.3,4.4-29.9,13.3
			c-5.6,8.8-8.4,22.3-8.4,40.2v123h-59.8v-134c0-13.5,1.2-25.8,3.6-36.9C1034.4,343.4,1038.5,334,1044.4,326.3z M861.6,431.8h126
			v51.4h-126v69.5h145.4v55.6H795.4V307.5h66.2L861.6,431.8"/>
		<path id="path3034" inkscape:connector-curvature="0" class="st0" d="M378.4,246.1c-32.9,0.6-59.1,27.9-58.6,61.1
			c0.6,33.2,27.7,59.6,60.6,59c32.9-0.6,59.1-27.9,58.5-61.1C438.5,272,411.4,245.6,378.4,246.1z M705.9,299.8c0,0.5,0,1.1,0,1.6
			c-0.4,143.3-94.2,264.6-223.7,306.4L297.9,422.9c-34.8-30.6-59.3-66.9-60.1-114.3c-1.4-78.8,61-143.8,139.2-145.2
			c78.3-1.4,142.8,61.4,144.2,140.2c1,56.9-31.2,106.6-78.6,130.3l61.8,65c79.4-51.1,113.4-124.3,112.1-200.3
			c-2.2-130-108.7-233.4-237.7-231.2c-129,2.3-231.7,109.5-229.5,239.4c0.8,50.4,27.3,115.4,57.9,150.7l-60.4,63
			c-14.9-15.9-28.1-33.3-39.5-52c-24.8-44.6-42.9-98.8-46.5-146.8c-0.4-5.8-0.8-11.6-0.9-17.5c0-7.3,0.3-14.5,0.7-21.7
			c0.2-3,0.2-6,0.4-8.9c10.5-119.1,84.9-220.2,189-267.5c0.8-0.4,1.5-0.8,2.3-1.1c7.7-3.4,15.6-6.3,23.6-9.2
			c2.3-0.8,4.5-1.7,6.8-2.5c6.8-2.2,13.8-4,20.7-5.8c3.6-0.9,7.1-2,10.8-2.8c6-1.3,12.2-2.2,18.3-3.1c4.7-0.7,9.4-1.6,14.2-2.2
			c5.5-0.6,11.1-0.8,16.6-1.2c5.6-0.3,11.1-0.8,16.7-0.8c5.2,0,10.4,0.3,15.6,0.5c5.8,0.2,11.6,0.3,17.4,0.9
			c5.5,0.5,10.9,1.4,16.4,2.2c5.1,0.8,10.3,1.4,15.3,2.3c6.5,1.3,12.8,2.9,19.1,4.6c3.8,1,7.6,1.8,11.3,2.9
			c7.9,2.3,15.5,5.1,23.1,8.1c2,0.7,4,1.4,5.9,2.1C617.7,47.5,699,156.9,705.3,286.9C705.5,291.2,705.9,295.5,705.9,299.8"/>
	</g>
</g>
</svg>
