<?xml version="1.0" encoding="utf-8"?>
<!-- Generator: Adobe Illustrator 22.0.1, SVG Export Plug-In . SVG Version: 6.00 Build 0)  -->
<svg version="1.0" id="Capa_1" xmlns="http://www.w3.org/2000/svg" xmlns:xlink="http://www.w3.org/1999/xlink" x="0px" y="0px"
	 viewBox="0 0 151.5 59.4" style="enable-background:new 0 0 151.5 59.4;" xml:space="preserve">
<style type="text/css">
	.st0{fill:#939393;}
</style>
<g id="g14" transform="translate(-0.46191092,-10.43459)">
	<g>
		<path id="path2_8_" class="st0" d="M21,18.8c0.1,0,0.1,0,0.1,0.1c1.8,5.6,4.4,9.2,7.7,13c3.2,3.6,6.9,7,7.2,13.4
			c0.2,5-1.9,9-4.2,11.5c-2.6,2.8-6.8,4.7-11.1,4.6c-4.5-0.1-8.2-2.1-10.7-5c-2.6-2.9-4.4-6.6-4-11.6c0.5-7.4,6.1-11,9.6-15.6
			C18,26.2,19.6,23.1,21,18.8z M11.8,46.3c0,3.4,1.9,6.4,4.4,8c3.5,2.2,8.5,1.6,11.4-1.3c1.5-1.5,2.6-3.6,2.9-6.7
			c-3.9,0-4.8-0.1-9.3-0.1c0-3.1,0-6.4,0-9.4C15.8,36.8,11.7,41.3,11.8,46.3z"/>
		<path id="path4_8_" class="st0" d="M64.3,40.1c-1.5,0.2-3.1,0.2-4.6,0.4c-0.3-0.5-0.6-0.9-0.9-1.3c-0.5-0.7-1.4-1.5-2.4-1.9
			c-4-1.4-8.1,1.3-8.6,5.7c-0.5,4,1.2,8.2,4.6,9.1c4,1,6.8-1.5,7.5-4.6c-1.5,0-3.5,0.1-5.3,0c0-1.3,0-2.6,0-3.9c3.4,0,6.7,0,10.1,0
			c0,5-1,8-3.4,10.2c-4,3.8-11.4,3.4-15.1-0.3c-2.4-2.3-3.6-6-3.2-10.6c0.4-5.4,3.9-9.7,10-10.2C59.3,32.3,63,35.4,64.3,40.1z"/>
		<path id="path6_8_" class="st0" d="M77,33c6.9-0.3,11.7,4.7,11.7,11.6c0,7.5-5.3,12-11.4,12c-6,0-10.3-4.3-10.9-10
			C65.8,38.8,70,33.3,77,33z M71.8,48.3c0.8,2.2,2.9,4,5.6,4c8.9,0.2,8.8-16.3-0.6-15.1C72.4,37.8,69.8,43.2,71.8,48.3z"/>
		<path id="path8_8_" class="st0" d="M134.6,33c6.4-0.3,11.2,4,11.7,10c0.7,7.5-3.9,13.6-11.2,13.6c-6.8,0-11-5.2-11-11.6
			C124.1,38.3,128,33.3,134.6,33z M132,38c-4.6,2.9-4.3,14.4,3.2,14.4c5.6,0,8.2-7.7,5.2-12.4c-1.1-1.7-3.3-3.2-6.1-2.7
			C133.1,37.4,132.7,37.5,132,38z"/>
		<path id="path10_8_" class="st0" d="M105.4,33.2c0,1.4,0,2.8,0,4.2c-2,0-3.9,0-5.9,0c0,6.2,0,12.4,0,18.6c-1.5,0-3.1,0-4.6,0
			c0-6.2,0-12.4,0-18.6c-1.9,0-3.8,0-5.7,0c0-1.5,0-2.8,0-4.2C94.5,33.2,100,33.2,105.4,33.2z"/>
		<path id="path12_8_" class="st0" d="M122.4,33.2c0,1.4,0.1,2.9,0.1,4.2c-3.2,0-6.3,0-9.7,0c0,1.6,0,3.4,0,5c2.9,0,5.8,0,9,0
			c0,1.4,0,2.7,0,4.1c-3,0-6,0-9,0c0,1.9,0,3.9,0,5.4c3.1,0,5.6,0,9.5,0c0,1.4,0,2.7,0,4.1c-4.7,0-9.5,0-14.2,0
			c0.1-7.6-0.2-15.5,0.1-22.9C112.9,33.2,117.6,33.2,122.4,33.2z"/>
	</g>
</g>
</svg>
