<?xml version="1.0" encoding="utf-8"?>
<!-- Generator: Adobe Illustrator 22.0.1, SVG Export Plug-In . SVG Version: 6.00 Build 0)  -->
<svg version="1.0" id="Capa_1" xmlns="http://www.w3.org/2000/svg" xmlns:xlink="http://www.w3.org/1999/xlink" x="0px" y="0px"
	 viewBox="0 0 186.5 73.2" style="enable-background:new 0 0 186.5 73.2;" xml:space="preserve">
<style type="text/css">
	.st0{fill:#939393;}
</style>
<g>
	<path class="st0" d="M139.2,6.6c5,0,9.8,0,14.6,0c0.9,0,1.8,0.2,2.7,0.5c3.6,1,5.6,3.6,5.8,7.3c0.2,4.1-1.6,6.8-5.4,8.2
		c2,3.5,4,7,6.1,10.7c-2.5,0-4.9,0-7.2,0c-0.2,0-0.5-0.3-0.6-0.6c-1.5-2.8-3-5.5-4.5-8.3c-0.3-0.5-0.6-0.8-1.2-0.7
		c-1.1,0.1-2.1,0-3.3,0c0,3.2,0,6.3,0,9.5c-0.3,0-0.6,0.1-0.8,0.1c-4.1,0-8.2,0-12.2,0c-0.6,0-0.8-0.2-1-0.7
		c-0.3-1.2-0.7-2.3-1.1-3.5c-3.1,0-6.2,0-9.3,0c-0.2,0-0.6,0.3-0.7,0.5c-0.4,1.2-0.8,2.4-1.2,3.6c-3.9,0-7.7,0-11.6,0
		c0-0.7,0-1.4,0-2.2c-1.4,1.3-2.8,2.2-4.4,2.6c-6.5,1.6-13.7-0.9-15.2-9.8c-0.6-3.6-0.5-7.2,1-10.6C91.4,8.7,95,6.4,99.8,6
		c4.3-0.4,8.2,0.6,11.4,3.6c0.9,0.9,1.7,1.9,2.6,3c-2,0.9-3.9,1.7-5.7,2.5c-0.5-0.6-0.9-1.2-1.4-1.6c-2.2-2-4.8-2.3-7.5-1.4
		c-2.7,0.9-3.7,3.1-4.1,5.7c-0.4,2.3-0.2,4.7,0.7,6.9c1.8,4.4,7.3,4.8,10.3,2.3c0.9-0.8,1.5-1.8,1.6-3.2c-2,0-3.9,0-5.9,0
		c0-1.8,0-3.5,0-5.2c3.8,0,7.7,0,11.6,0c0,4.1,0,8.2,0,12.2c0.1,0,0.1,0,0.2,0c0.3-0.8,0.6-1.6,0.9-2.4c2.6-7,5.2-14,7.8-21
		c0.2-0.6,0.5-0.8,1.1-0.8c1.7,0,3.5,0,5.2,0c0.7,0,1,0.2,1.3,0.8c3,7.9,6,15.9,9,23.8c0.1,0.3,0.2,0.6,0.5,0.9
		C139.2,23.7,139.2,15.2,139.2,6.6z M146,18.6c2.4,0,4.7,0.1,7,0c1.7-0.1,2.6-1.5,2.6-3.5c0-1.9-0.9-3.3-2.6-3.4
		c-2.3-0.2-4.6,0-6.9,0C146,14,146,16.3,146,18.6z M129.2,24.1c-1.1-3.6-2.1-7.1-3.2-10.6c-0.1,0-0.1,0-0.2,0
		c-1.1,3.5-2.1,7-3.2,10.6C124.9,24.1,127,24.1,129.2,24.1z"/>
	<path class="st0" d="M86.6,6.7c0,8.9,0,17.7,0,26.6c-2.2,0-4.3,0-6.4,0c-0.2,0-0.5-0.4-0.6-0.7c-2.9-5-5.8-10-8.8-15
		c-0.1-0.2-0.3-0.5-0.6-0.7c0,5.4,0,10.9,0,16.3c-4.5,0-8.8,0-13.2,0c-0.4-1.1-0.8-2.3-1.1-3.5c-0.1-0.5-0.4-0.7-0.9-0.7
		c-2.8,0-5.6,0-8.4,0c-0.6,0-0.8,0.2-0.9,0.7c-0.3,1.2-0.7,2.3-1.1,3.4c-4.6,0-9.2,0-13.8,0c0-3.7,0-7.4,0-11.1c-3.3,0-6.5,0-9.8,0
		c0,3.7,0,7.4,0,11.1c-2.3,0-4.5,0-6.7,0c0-8.9,0-17.7,0-26.6c2.2,0,4.4,0,6.7,0c0,3.2,0,6.3,0,9.5c3.3,0,6.5,0,9.8,0
		c0-3.2,0-6.3,0-9.5c2.3,0,4.5,0,6.7,0c0,8.6,0,17.2,0,25.7c0,0,0.1,0,0.1,0c0.1-0.3,0.2-0.5,0.3-0.8c3-8.1,6-16.2,9-24.3
		c0.2-0.5,0.4-0.8,1-0.7c1.8,0,3.7,0,5.5,0c0.6,0,0.8,0.2,1,0.7c3.1,8.1,6.2,16.3,9.2,24.4c0.1,0.2,0.1,0.4,0.3,0.5
		c0-8.5,0-17,0-25.5c0.3,0,0.5-0.1,0.7-0.1c1,0,2.1,0,3.1,0c1,0,2.2-0.3,3,0.1c0.7,0.4,1,1.6,1.5,2.5c2.6,4.5,5.1,8.9,7.7,13.4
		c0.1,0.2,0.3,0.5,0.5,0.9c0-5.7,0-11.3,0-16.8C82.6,6.7,84.6,6.7,86.6,6.7z M50.7,13.2c-1.1,3.7-2.2,7.3-3.3,10.9
		c2.2,0,4.3,0,6.5,0C52.9,20.5,51.9,16.9,50.7,13.2z"/>
	<path class="st0" d="M65,66.4c-2.5,0-4.8,0-7.2,0c-0.3,0-0.6-0.4-0.7-0.6c-1.5-2.8-3.1-5.6-4.6-8.4c-0.3-0.5-0.5-0.6-1-0.6
		c-1.1,0-2.2,0-3.4,0c0,3.2,0,6.4,0,9.6c-2.3,0-4.4,0-6.7,0c0-8.9,0-17.7,0-26.6c0.3,0,0.5,0,0.8,0c4.5,0,9.1,0,13.6,0.1
		c2.8,0.1,5.5,0.9,7.2,3.4c3.2,4.6,1.4,10.4-4,12.6C60.9,59.2,62.9,62.7,65,66.4z M48,51.8c2.2,0,4.4,0,6.5,0c1.9-0.1,3-1.3,3.1-3.2
		c0.1-2.2-0.9-3.6-2.9-3.7c-2.1-0.1-4.3-0.1-6.4-0.1c-0.1,0-0.1,0.1-0.2,0.1C48,47.1,48,49.4,48,51.8z"/>
	<path class="st0" d="M84.2,56.7c-1.6,0-3.3,0-5,0c-0.6,0-0.9-0.1-0.9-0.8c0.1-1.3,0-2.5,0-3.8c0-0.4,0.1-0.7,0.6-0.7
		c3.6,0,7.1,0,10.7,0c0.1,0,0.2,0,0.3,0.1c0,4.9,0,9.8,0,14.8c-1.7,0-3.4,0-5.2,0c0-0.7,0-1.3,0-2c-0.1,0-0.2,0-0.2,0
		c-7,6-17.3,2.3-19.2-6.7c-0.8-4-0.7-8,1-11.7c1.9-4.2,5.3-6.4,9.8-6.8c4-0.4,7.7,0.4,11,2.9c1.3,1,2.4,2.2,3.2,3.7
		c-1.9,0.8-3.7,1.6-5.5,2.4c-0.1-0.2-0.3-0.4-0.4-0.5c-2-2.8-5.9-3.8-9-2.3c-1.4,0.7-2.4,1.8-3,3.3c-1,2.9-1.1,5.9,0,8.8
		c1.7,4.6,7.3,5,10.2,2.6C83.6,59.2,84.3,57.9,84.2,56.7z"/>
	<path class="st0" d="M26.2,67.1c-7.3,0-12.9-5.1-13.4-12.5c-0.4-4.6,0.7-8.7,4-12c2.9-2.9,6.5-3.9,10.5-3.7
		c7.6,0.5,12.1,6.4,12.4,13.1c0.2,5.3-1.5,9.8-6,12.9C31.5,66.6,28.9,67.2,26.2,67.1z M26.9,44.6c-3.6,0-5.8,1.4-6.7,4.1
		c-1,3-1,6,0.2,9c1,2.5,3,3.7,5.6,3.8c2.5,0.1,4.6-0.9,5.8-3.2c1.7-3.2,1.7-6.5,0.3-9.8C31,45.9,29,44.7,26.9,44.6z"/>
	<path class="st0" d="M165.6,33.3c0-2.9,0-5.7,0-8.5c1.1,0,2.2,0,3.3,0c1.4,0,2.8,0,4.2,0c0.5,0,0.6,0.2,0.6,0.6c0,2.4,0,4.8,0,7.3
		c0,0.2-0.3,0.6-0.4,0.6C170.7,33.3,168.2,33.3,165.6,33.3z"/>
</g>
</svg>
