<?xml version="1.0" encoding="utf-8"?>
<!-- Generator: Adobe Illustrator 22.0.1, SVG Export Plug-In . SVG Version: 6.00 Build 0)  -->
<svg version="1.0" id="Capa_1" xmlns="http://www.w3.org/2000/svg" xmlns:xlink="http://www.w3.org/1999/xlink" x="0px" y="0px"
	 viewBox="0 0 114 40.9" style="enable-background:new 0 0 114 40.9;" xml:space="preserve">
<style type="text/css">
	.st0{fill:#606060;}
</style>
<g>
	<path class="st0" d="M26.9,3.9v4.4c-0.9,0-1.8,0-2.6,0c-0.7,0-1.5,0-2.2,0.1c-0.8,0.1-1.2,0.6-1.3,1.3c0,0.3,0,0.6,0,0.9
		c0,6.5,0,13.1,0,19.6c0,1.9,0.6,2.5,2.6,2.6c0.6,0,1.1,0,1.7,0h1.8v4.4H3v-4.4c0.3,0,0.7,0,1,0c1.1,0,2.2,0,3.2-0.1
		c1.3-0.1,1.8-0.8,1.8-2.1c0-1.7,0-3.4,0-5.1c0-5.1,0-10.3,0-15.4c0-1.2-0.3-1.5-1.5-1.7c-0.5-0.1-1-0.1-1.5-0.1c-1,0-2.1,0-3.2,0
		V3.9H26.9z"/>
	<path class="st0" d="M106.4,7.7c-2.4-2.1-5.9-1.2-7,1.6c-0.8,2.2-0.8,4.4-0.1,6.6c0.5,1.8,1.9,2.7,3.8,2.6c1.7,0,2.9-0.9,3.4-2.7
		c0-0.2,0.1-0.3,0.2-0.6h2.1h2.2c0,1.8-0.6,3.2-1.9,4.3c-1.4,1.2-3.1,1.7-4.9,2c-2.6,0.3-5.1,0.2-7.5-0.7c-3.5-1.2-5.4-3.8-5.6-7.5
		c-0.2-3.5,1.1-6.3,4.2-8c4.1-2.2,8.4-2.3,12.7-0.4c1.5,0.7,2.6,1.9,3,3.6c0.5,2.4-0.9,4.3-3.3,4.5c-0.9,0.1-1.8-0.1-2.7-0.3
		c-1.2-0.3-1.7-1.2-1.8-2.2c0-1.1,0.6-2,1.7-2.4C105.4,7.9,105.9,7.8,106.4,7.7"/>
	<path class="st0" d="M86.7,19.1c0,0.5,0,0.9,0,1.3c-0.1,0.7-0.1,1.4-0.3,2.1c-0.2,0.8-1,1.1-1.8,1c-0.8-0.1-0.9-0.7-0.9-1.4
		c0-0.4,0-0.7,0-1.1c0-3,0-5.9,0-8.9c0-4.3-2-6.9-6.2-7.7c-5-1-9.9-0.8-14.8,0.4c-1.6,0.4-3.1,1.1-4.2,2.3c-1.8,2-1.4,4.7,0.8,5.8
		c2,1,4.2,1,6.3,0.1c1-0.4,1.7-1.3,1.7-2.5c0-1.2-0.8-1.8-1.8-2.2c-0.5-0.2-1.1-0.4-1.7-0.5c2.8-1.1,5.6-1.4,8.3-0.1
		c1.4,0.7,1.9,2.1,1.8,3.6c-0.1,1.4-1.1,2.2-2.3,2.6c-1.8,0.5-3.6,0.7-5.4,1.1c-2.1,0.4-4.3,0.7-6.3,1.4c-2.2,0.7-3.5,2.3-3.5,4.7
		c-0.1,2.7,0.8,5,3.5,6c1.3,0.5,2.8,0.8,4.2,0.9c3.3,0.3,6.5-0.2,9.3-2.2c0.4-0.3,0.9-0.7,1.3-1.1c1,1.8,2.5,2.8,4.4,3.1
		c2.6,0.5,5.2,0.3,7.7-0.4c1.5-0.4,2.7-1.4,2.9-2.9c0.3-1.8,0.4-3.6,0.6-5.4H86.7z M73.7,20.1c-0.2,2.2-2,3.6-4.4,3.4
		c-0.5,0-1-0.1-1.5-0.3c-1.8-0.7-2.2-3-0.7-4.3c0.4-0.3,0.8-0.6,1.3-0.8c1.8-0.7,3.5-1.3,5.4-1.9C73.7,17.5,73.8,18.8,73.7,20.1"/>
	<path class="st0" d="M51.6,14.8c-0.1,0.8-0.1,1.5-0.3,2.2c-0.1,0.7-0.6,1-1.3,0.9c-0.7-0.1-0.7-0.6-0.7-1.2c0-2.1,0-4.2,0-6.3
		c0-4.1-1.6-5.9-5.5-6.3C41,3.7,38,3.7,35.2,4.3c-1.4,0.3-2.8,0.7-3.8,1.8c-1.1,1.2-1.1,2.9,0.1,3.9c1.3,1,4,1.1,5.3,0.2
		c1.2-0.8,1.1-2.3-0.2-3c-0.4-0.2-1-0.4-1.5-0.6c1.8-0.8,4.4-0.8,5.8-0.1c1,0.5,1.5,1.4,1.4,2.5c0,1.1-0.7,1.7-1.6,1.9
		c-1,0.3-2,0.5-3,0.7c-1.8,0.4-3.7,0.7-5.5,1.2c-1.2,0.3-2.1,1.2-2.3,2.4c-0.4,2.4,0.2,4.8,3.2,5.5c3.4,0.8,6.7,0.7,9.5-1.8
		c0.1,0,0.1-0.1,0.2-0.1c0.7,1.3,1.9,2.1,3.3,2.2c1.7,0.1,3.4,0,5-0.3c1.5-0.2,2.4-1.3,2.6-2.8c0.1-1,0-2.1,0-3.2H51.6z M42.2,15.9
		c-0.1,0.9-0.7,1.6-1.7,1.8c-1.1,0.3-2.2,0.4-3.1-0.4c-0.8-0.7-0.8-1.9,0-2.6c0.4-0.4,0.9-0.7,1.5-0.9c1.1-0.4,2.2-0.7,3.4-1.2
		C42.3,13.8,42.3,14.9,42.2,15.9"/>
</g>
</svg>
