<?xml version="1.0" encoding="utf-8"?>
<!-- Generator: Adobe Illustrator 22.0.1, SVG Export Plug-In . SVG Version: 6.00 Build 0)  -->
<svg version="1.0" id="Capa_1" xmlns="http://www.w3.org/2000/svg" xmlns:xlink="http://www.w3.org/1999/xlink" x="0px" y="0px"
	 viewBox="0 0 79.8 51.1" style="enable-background:new 0 0 79.8 51.1;" xml:space="preserve">
<style type="text/css">
	.st0{fill:#5B22B2;}
</style>
<g transform="translate(0,-952.36218)">
	<path class="st0" d="M8,953.5c-0.7,0-1.4,0.2-2.1,0.4l32.2,28c1.1,1,2.5,1,3.6,0l32.1-28c-0.6-0.3-1.3-0.4-2.1-0.4H8z M2.4,958.4
		c0,0.3-0.1,0.5-0.1,0.8v37.5c0,0.8,0.2,1.5,0.4,2.2L25.1,978L2.4,958.4L2.4,958.4z M77.4,958.4L54.8,978L77,998.9
		c0.3-0.7,0.4-1.4,0.4-2.2v-37.5C77.4,958.9,77.4,958.6,77.4,958.4L77.4,958.4z M50.5,981.7l-5,4.4c-3.1,2.7-7.9,2.7-11,0l-5-4.4
		l-22,20.5c0.2,0,0.4,0,0.6,0h63.8c0.2,0,0.4,0,0.6,0L50.5,981.7L50.5,981.7z"/>
</g>
</svg>
