<?xml version="1.0" encoding="utf-8"?>
<!-- Generator: Adobe Illustrator 22.0.1, SVG Export Plug-In . SVG Version: 6.00 Build 0)  -->
<svg version="1.0" id="Capa_1" xmlns="http://www.w3.org/2000/svg" xmlns:xlink="http://www.w3.org/1999/xlink" x="0px" y="0px"
	 viewBox="0 0 214.5 52.4" style="enable-background:new 0 0 214.5 52.4;" xml:space="preserve">
<style type="text/css">
	.st0{fill:#939393;}
</style>
<g>
	<path class="st0" d="M40.9,33.3l-0.4,1.5c-1.1,0.5-2.1,0.8-2.8,1.1c-0.7,0.2-1.5,0.4-2.4,0.4c-1.4,0-2.5-0.4-3.2-1.1
		c-0.8-0.7-1.1-1.5-1.1-2.6c0-0.3,0-0.7,0-1.1c0-0.5,0.1-1,0.3-1.6l1.2-4.7c0.1-0.5,0.2-1,0.3-1.3c0.1-0.4,0.1-0.8,0.1-1
		c0-0.6-0.1-1-0.4-1.3c-0.3-0.3-0.8-0.5-1.3-0.5c-0.5,0-1.1,0.2-1.7,0.6c-0.7,0.4-1.3,1-2.1,1.6L24.6,36h-5.8l2.5-10.7
		c0.1-0.6,0.2-1.1,0.3-1.4c0.1-0.4,0.1-0.7,0.1-1c0-0.6-0.1-1-0.4-1.3c-0.3-0.3-0.8-0.5-1.3-0.5c-0.4,0-0.8,0.2-1.5,0.5
		c-0.7,0.3-1.4,0.8-2.4,1.7l-2.9,12.6H7.4l2.3-10.7c0.1-0.3,0.2-0.8,0.3-1.3c0.1-0.6,0.2-1,0.2-1.3c0-0.7-0.1-1.1-0.4-1.3
		c-0.3-0.3-0.8-0.4-1.5-0.4c-0.4,0-0.8,0.1-1.1,0.2c-0.4,0.1-0.8,0.2-1.1,0.3l0.4-1.5c1-0.4,1.8-0.7,2.7-1c0.8-0.3,1.7-0.4,2.5-0.4
		c1.4,0,2.5,0.3,3,0.8c0.6,0.6,1.1,1.3,1.3,2.2h0.1c1.1-1.1,2.3-1.9,3.3-2.5c1.1-0.6,2.3-0.8,3.7-0.8c1.2,0,2.2,0.3,3,1
		c0.8,0.7,1.2,1.4,1.2,2.4h0.1c1.2-1.1,2.4-1.9,3.4-2.5c1.1-0.6,2.3-0.8,3.6-0.8c1.3,0,2.3,0.4,3,1.1c0.8,0.7,1.1,1.5,1.1,2.6
		c0,0.3,0,0.7-0.1,1.1c0,0.5-0.1,1-0.3,1.5L37,29.4c-0.1,0.4-0.2,0.8-0.3,1.4c-0.1,0.5-0.1,1-0.1,1.1c0,0.7,0.2,1.1,0.5,1.3
		c0.3,0.3,0.8,0.4,1.5,0.4c0.4,0,0.8-0.1,1.1-0.2C40.4,33.5,40.7,33.4,40.9,33.3"/>
	<path class="st0" d="M53.9,33.8h-0.1c-0.4,0.4-0.8,0.7-1.1,1c-0.4,0.3-0.8,0.6-1.4,0.8c-0.5,0.3-1.1,0.5-1.5,0.7
		c-0.6,0.2-1.1,0.3-1.8,0.3c-2,0-3.5-0.6-4.6-1.8c-1.1-1.1-1.5-2.9-1.5-4.9c0-1.6,0.3-3,0.8-4.5c0.6-1.4,1.3-2.6,2.3-3.7
		c1-1.1,2.1-1.9,3.4-2.5c1.3-0.6,2.7-1,4.1-1c1.1,0,2,0.1,2.8,0.4c0.8,0.3,1.4,0.6,1.9,1l5.4-1.1l0.3,0.3l-2.6,10.8
		c-0.1,0.4-0.2,0.8-0.3,1.3c-0.1,0.6-0.2,1-0.2,1.2c0,0.7,0.2,1.1,0.5,1.3c0.3,0.3,0.8,0.4,1.5,0.4c0.3,0,0.8-0.1,1.1-0.2
		c0.4-0.1,0.8-0.2,1-0.3l-0.4,1.5c-1.1,0.5-2.1,0.8-2.8,1.1c-0.7,0.2-1.5,0.4-2.4,0.4c-1.2,0-2.2-0.2-2.9-0.7
		C54.6,35.1,54.1,34.5,53.9,33.8 M56,22.7c0-0.3,0-0.6-0.1-0.8c-0.1-0.4-0.2-0.7-0.4-0.8c-0.2-0.3-0.5-0.6-0.8-0.7
		c-0.4-0.1-0.8-0.2-1.2-0.2c-0.8,0-1.4,0.3-2.1,0.8c-0.7,0.6-1.2,1.2-1.7,2.2c-0.5,1-0.8,2-1.1,3.2c-0.3,1.2-0.4,2.5-0.4,3.7
		c0,0.6,0,1.1,0.1,1.6c0.1,0.5,0.2,0.8,0.4,1.2c0.2,0.4,0.5,0.7,0.8,0.8c0.4,0.2,0.8,0.3,1.3,0.3c0.6,0,1.1-0.2,1.6-0.5
		c0.5-0.3,1-0.7,1.4-1.1L56,22.7z"/>
	<path class="st0" d="M87.5,33.3l-0.4,1.5c-1.1,0.5-2.1,0.8-2.8,1.1s-1.5,0.4-2.4,0.4c-1.4,0-2.5-0.4-3.2-1.1
		c-0.8-0.7-1.1-1.5-1.1-2.6c0-0.3,0-0.7,0-1.1c0-0.5,0.1-1,0.3-1.6l1.2-4.7c0.1-0.5,0.2-1,0.3-1.3s0.1-0.8,0.1-1
		c0-0.6-0.1-1-0.4-1.3c-0.3-0.3-0.8-0.5-1.3-0.5c-0.4,0-1,0.2-1.7,0.5c-0.8,0.3-1.5,0.8-2.5,1.7L70.8,36h-5.7l2.5-10.8
		c0.1-0.3,0.2-0.8,0.3-1.2c0.1-0.5,0.2-1,0.2-1.3c0-0.7-0.1-1.1-0.4-1.3c-0.3-0.3-0.8-0.4-1.5-0.4c-0.4,0-0.8,0.1-1.1,0.2
		c-0.4,0.1-0.8,0.2-1.1,0.3l0.4-1.5c1-0.4,1.8-0.7,2.7-1c0.8-0.3,1.7-0.4,2.5-0.4c1.3,0,2.4,0.3,3,0.8c0.7,0.6,1.1,1.3,1.3,2.3h0.1
		c1.1-1.1,2.3-1.8,3.5-2.4c1.2-0.6,2.5-0.8,3.9-0.8c1.3,0,2.3,0.4,3,1.1c0.8,0.7,1.1,1.5,1.1,2.6c0,0.3,0,0.7-0.1,1.1
		c0,0.5-0.1,1-0.3,1.5l-1.3,4.9c-0.1,0.4-0.2,0.8-0.3,1.4c-0.1,0.5-0.1,1-0.1,1.1c0,0.7,0.2,1.1,0.5,1.3c0.3,0.3,0.8,0.4,1.5,0.4
		c0.4,0,0.8-0.1,1.1-0.2C87,33.5,87.3,33.4,87.5,33.3"/>
	<path class="st0" d="M99.6,33.4l-0.4,1.5c-1.1,0.5-2.1,0.8-2.8,1.1c-0.7,0.2-1.5,0.4-2.4,0.4c-1.4,0-2.5-0.4-3.2-1.1
		c-0.8-0.7-1.1-1.5-1.1-2.6c0-0.4,0-0.8,0.1-1.2c0.1-0.4,0.2-0.8,0.3-1.4l1.4-5.1c0.1-0.5,0.2-1,0.3-1.4c0.1-0.5,0.1-0.8,0.1-1.2
		c0-0.7-0.1-1.1-0.4-1.3c-0.3-0.2-0.8-0.4-1.5-0.4c-0.4,0-0.8,0.1-1.1,0.2c-0.4,0.1-0.8,0.2-1.1,0.3l0.4-1.5c1-0.4,1.8-0.7,2.7-1
		c0.8-0.3,1.7-0.4,2.5-0.4c1.4,0,2.5,0.4,3.2,1.1c0.8,0.7,1.1,1.5,1.1,2.6c0,0.2,0,0.6-0.1,1.1c-0.1,0.6-0.2,1.1-0.3,1.5l-1.4,5.1
		c-0.1,0.4-0.2,0.8-0.3,1.4c-0.1,0.5-0.1,1-0.1,1.1c0,0.7,0.2,1.1,0.5,1.3c0.3,0.3,0.8,0.4,1.5,0.4c0.4,0,0.8-0.1,1.1-0.2
		C99.1,33.7,99.4,33.5,99.6,33.4 M100,12.1c0,0.8-0.4,1.6-1.1,2.3c-0.7,0.7-1.4,1-2.4,1c-1,0-1.7-0.3-2.4-1
		c-0.7-0.7-1.1-1.3-1.1-2.3c0-0.8,0.4-1.6,1.1-2.3c0.7-0.7,1.5-1,2.4-1c1,0,1.7,0.3,2.4,1C99.7,10.5,100,11.2,100,12.1"/>
	<path class="st0" d="M110.3,20.8c-0.6,2.9-1.1,5.4-1.5,7.4c-0.4,2.1-1,4.3-1.5,6.6c-0.3,1.1-0.8,2.2-1.4,3.3
		c-0.7,1.1-1.4,2-2.4,2.9c-1,0.8-2,1.5-3.2,1.9c-1.1,0.5-2.3,0.7-3.4,0.7c-1.1,0-1.9-0.1-2.6-0.3c-0.7-0.2-1.1-0.5-1.5-0.8
		c-0.4-0.3-0.6-0.7-0.8-1.1c-0.1-0.4-0.2-0.8-0.2-1.1c0-0.7,0.3-1.2,0.8-1.8c0.5-0.5,1.1-0.8,1.9-0.8c0.7,0,1.1,0.2,1.6,0.5
		s0.8,0.8,1.1,1.2c0.3,0.5,0.6,1,0.8,1.5c0.3,0.6,0.5,1,0.6,1.3c0.5-0.6,1-1.3,1.3-2.4c0.5-1.1,0.8-2.5,1.2-4.3l3.2-14.8H101
		l0.4-1.8h3.3l0.3-1.3c0.3-1.1,0.7-2.2,1.3-3.2c0.7-1,1.4-2,2.4-2.9c0.8-0.8,1.9-1.4,3-2c1.1-0.5,2.3-0.8,3.5-0.8
		c1.1,0,1.8,0.1,2.5,0.3c0.7,0.2,1.2,0.5,1.6,0.8c0.4,0.3,0.6,0.7,0.7,1.1c0.1,0.4,0.2,0.8,0.2,1.1c0,0.3-0.1,0.6-0.2,0.8
		c-0.1,0.3-0.3,0.6-0.5,0.8c-0.3,0.3-0.6,0.5-0.8,0.7c-0.3,0.2-0.7,0.3-1.2,0.3c-0.7,0-1.1-0.2-1.6-0.5c-0.5-0.3-0.8-0.8-1.1-1.1
		c-0.4-0.5-0.7-1-0.8-1.5c-0.2-0.6-0.4-1-0.6-1.3c-0.5,0.6-1,1.3-1.3,2.4c-0.4,1.1-0.8,2.5-1.1,4.3l-0.5,2h4.4l-0.2,1.8L110.3,20.8
		L110.3,20.8z"/>
	<path class="st0" d="M128.6,33.4l-0.4,1.5c-1.1,0.5-2.1,0.8-2.8,1.1c-0.7,0.2-1.5,0.4-2.4,0.4c-1.4,0-2.5-0.4-3.2-1.1
		c-0.8-0.7-1.1-1.5-1.1-2.6c0-0.4,0-0.8,0.1-1.2c0.1-0.4,0.2-0.8,0.3-1.4l1.4-5.1c0.1-0.5,0.2-1,0.3-1.4c0.1-0.5,0.1-0.8,0.1-1.2
		c0-0.7-0.1-1.1-0.4-1.3c-0.3-0.3-0.8-0.4-1.5-0.4c-0.4,0-0.8,0.1-1.1,0.2c-0.4,0.1-0.8,0.2-1.1,0.3l0.4-1.5c1-0.4,1.8-0.7,2.7-1
		c0.8-0.3,1.7-0.4,2.5-0.4c1.4,0,2.5,0.4,3.2,1.1c0.8,0.7,1.1,1.5,1.1,2.6c0,0.2,0,0.6-0.1,1.1c-0.1,0.6-0.2,1.1-0.3,1.5l-1.4,5.1
		c-0.1,0.4-0.2,0.8-0.3,1.4c-0.1,0.5-0.1,1-0.1,1.1c0,0.7,0.2,1.1,0.5,1.3c0.3,0.3,0.8,0.4,1.5,0.4c0.4,0,0.8-0.1,1.1-0.2
		C128.1,33.7,128.4,33.5,128.6,33.4 M129,12.1c0,0.8-0.4,1.6-1.1,2.3c-0.7,0.7-1.4,1-2.4,1s-1.7-0.3-2.4-1c-0.7-0.7-1.1-1.3-1.1-2.3
		c0-0.8,0.4-1.6,1.1-2.3c0.7-0.7,1.5-1,2.4-1c1,0,1.7,0.3,2.4,1C128.7,10.5,129,11.2,129,12.1"/>
	<path class="st0" d="M137.9,36.5c-1.4,0-2.6-0.2-3.7-0.6c-1.1-0.4-1.9-0.8-2.6-1.6c-0.7-0.7-1.1-1.4-1.5-2.4
		c-0.4-0.8-0.5-1.9-0.5-3c0-1.3,0.3-2.7,0.8-4c0.5-1.3,1.2-2.5,2.3-3.5c1-1,2.2-1.8,3.6-2.4c1.4-0.6,3-1,4.9-1c2.1,0,3.6,0.3,4.8,1
		c1.1,0.7,1.6,1.6,1.6,3c0,1.2-0.5,2.4-1.4,3.2c-1,1-2.2,1.6-3.8,2c-1.2,0.4-2.4,0.7-3.2,0.8c-0.8,0.2-2,0.3-3.3,0.5
		c0,0.5,0.1,1.1,0.2,1.7c0.1,0.7,0.3,1.1,0.5,1.6c0.3,0.5,0.7,1,1.1,1.2s1.1,0.5,2,0.5c1.3,0,2.6-0.3,3.5-0.8c1-0.6,1.9-1.3,2.8-2.5
		l1.2,1.1c-1.1,1.5-2.4,2.7-4,3.5C141.5,36,139.7,36.5,137.9,36.5 M141.9,22.7c0-1-0.2-1.7-0.6-2.3c-0.4-0.6-0.8-0.8-1.5-0.8
		c-0.8,0-1.7,0.8-2.6,2.2c-0.8,1.4-1.3,3.3-1.5,5.5c0.7-0.1,1.3-0.2,2-0.3c0.7-0.1,1.2-0.3,1.6-0.5c0.8-0.4,1.5-0.8,1.9-1.5
		C141.7,24.5,141.9,23.6,141.9,22.7"/>
	<path class="st0" d="M155.1,36.5c-1.4,0-2.7-0.1-3.6-0.4c-1-0.2-1.7-0.6-2.3-1c-0.6-0.4-1-0.8-1.1-1.2c-0.2-0.4-0.3-0.8-0.3-1.2
		c0-0.7,0.3-1.2,0.8-1.8c0.5-0.5,1.1-0.8,2-0.8c0.7,0,1.2,0.2,1.7,0.6c0.5,0.4,0.8,0.8,1.1,1.3s0.6,1.1,0.8,1.6
		c0.2,0.6,0.4,1.1,0.4,1.3c1.3,0,2.3-0.3,3-0.8c0.7-0.6,1.1-1.3,1.1-2.3c0-0.5-0.1-0.8-0.3-1.1c-0.2-0.3-0.5-0.6-0.8-0.8
		c-0.4-0.2-0.8-0.4-1.3-0.6c-0.5-0.2-1.1-0.4-1.5-0.6c-1.4-0.5-2.5-1.1-3.3-2c-0.8-0.9-1.2-1.9-1.2-3.2c0-0.8,0.2-1.4,0.5-2.1
		c0.4-0.7,0.8-1.2,1.6-1.8c0.8-0.6,1.6-1,2.8-1.2c1.1-0.3,2.4-0.5,3.9-0.5c0.8,0,1.7,0.1,2.5,0.2c0.8,0.1,1.4,0.3,2.1,0.6
		c0.6,0.3,1.1,0.7,1.4,1.1c0.4,0.5,0.5,1,0.5,1.6s-0.3,1.1-0.8,1.6c-0.5,0.5-1.1,0.7-1.9,0.7c-0.7,0-1.2-0.2-1.7-0.6
		c-0.5-0.4-0.8-0.8-1.1-1.2c-0.3-0.5-0.5-1-0.7-1.5c-0.2-0.5-0.3-1-0.4-1.3c-0.8,0-1.5,0.4-2.2,0.8c-0.7,0.6-1.1,1.2-1.1,2
		c0,0.5,0.1,0.8,0.2,1.1c0.2,0.3,0.4,0.5,0.7,0.7c0.3,0.2,0.7,0.4,1.1,0.6c0.5,0.2,1.1,0.4,1.7,0.6c1.6,0.6,2.8,1.2,3.6,2
		c0.8,0.8,1.2,1.8,1.2,3c0,0.8-0.2,1.6-0.6,2.4c-0.4,0.8-1,1.4-1.6,1.9c-0.8,0.6-1.7,1-2.8,1.2C158.1,36.3,156.7,36.5,155.1,36.5"/>
	<path class="st0" d="M172.3,36.3c-1.4,0-2.5-0.4-3.3-1.1c-0.8-0.7-1.2-1.5-1.2-2.6c0-0.5,0-0.8,0.1-1.2c0.1-0.4,0.2-0.8,0.3-1.5
		l2.2-9.2h-3.2l0.4-1.8h3.2l1.2-5.2h5.6l-1.2,5.2h4.8l-0.4,1.8H176l-2.1,9.2c-0.1,0.3-0.2,0.8-0.2,1.1c-0.1,0.5-0.1,0.8-0.1,1
		c0,0.7,0.2,1.1,0.6,1.3c0.4,0.3,1,0.4,1.7,0.4c0.4,0,0.8-0.1,1.5-0.2c0.7-0.1,1.1-0.3,1.3-0.4l-0.4,1.5c-1.1,0.5-2.1,0.8-3,1.1
		C174.1,36.2,173.1,36.3,172.3,36.3"/>
	<path class="st0" d="M200.8,25.4c0,1.4-0.3,2.9-0.8,4.2c-0.6,1.3-1.3,2.5-2.4,3.5c-1.1,1.1-2.4,1.9-3.9,2.5c-1.5,0.6-3.2,0.8-5,0.8
		c-2.5,0-4.5-0.7-6-2c-1.5-1.3-2.3-3.2-2.3-5.4c0-1.5,0.3-3,0.8-4.3c0.6-1.3,1.3-2.5,2.4-3.4s2.3-1.7,3.8-2.3
		c1.5-0.6,3.2-0.8,4.9-0.8c2.7,0,4.7,0.7,6.2,1.9C200,21.4,200.8,23.2,200.8,25.4 M194.7,23.5c0-1.3-0.2-2.4-0.7-3
		c-0.5-0.6-1.1-1-2-1c-0.9,0-1.7,0.4-2.5,1.1c-0.8,0.8-1.3,1.8-1.8,3.2c-0.4,1.1-0.7,2.4-0.8,3.7s-0.3,2.6-0.3,3.6
		c0,1.4,0.2,2.4,0.7,3c0.5,0.7,1.1,1,2,1c1,0,1.8-0.4,2.5-1.1c0.7-0.8,1.2-1.7,1.6-2.9s0.8-2.4,1-3.7
		C194.6,26,194.7,24.7,194.7,23.5"/>
	<path class="st0" d="M208.4,33c0,1-0.4,1.7-1.1,2.4c-0.7,0.7-1.5,1.1-2.4,1.1c-1,0-1.7-0.3-2.5-1.1c-0.7-0.7-1.1-1.4-1.1-2.4
		c0-1,0.4-1.7,1.1-2.4c0.7-0.7,1.5-1.1,2.5-1.1c1,0,1.7,0.4,2.4,1.1C208.1,31.3,208.4,32.1,208.4,33"/>
</g>
</svg>
