<?xml version="1.0" encoding="utf-8"?>
<!-- Generator: Adobe Illustrator 22.0.1, SVG Export Plug-In . SVG Version: 6.00 Build 0)  -->
<svg version="1.0" id="Capa_1" xmlns="http://www.w3.org/2000/svg" xmlns:xlink="http://www.w3.org/1999/xlink" x="0px" y="0px"
	 viewBox="0 0 126.5 51.5" style="enable-background:new 0 0 126.5 51.5;" xml:space="preserve">
<style type="text/css">
	.st0{fill:#606060;}
</style>
<g>
	<path class="st0" d="M122.8,22.4l-0.3-3c-0.6-3.6-2-6.7-4.3-9.2c-2.2-2.4-4.9-4.2-8.1-5.2c-1.9-0.7-3.9-1-5.2-1.2
		C103,3.5,101,3.4,99,3.4H81.3c-1.1,0-1.9,0.8-1.9,1.8l-0.1,26.2v0.8c0,1,0.9,1.8,1.9,1.8H93c1.1,0,1.9-0.8,1.9-1.8l0-17
		c0.1-0.3,0.4-0.5,0.7-0.5H97c3.3,0,5.6,0.5,7.1,1.5c1.5,1,2.4,2.6,2.9,5c0.3,1.5,0.3,3,0.4,4.1c0,7.8-3.2,11.6-9.7,11.6H81.2
		c-1.1,0-1.9,0.8-1.9,1.8l0,7v0.6c0,1,0.9,1.9,1.9,1.9h17.5c4.7,0,9-0.8,12.7-2.3c3.7-1.6,6.5-4.1,8.4-7.5c2-3.7,3.1-8.2,3.1-13.5
		L122.8,22.4z M81,38.7c0,0,0.1-0.1,0.2-0.1l0.3,0h16c7.5,0,11.4-4.6,11.4-13.3c0-1.2-0.1-2.8-0.4-4.3c-0.5-2.8-1.7-4.9-3.6-6.1
		c-1.8-1.2-4.4-1.8-8-1.8h-1.3c-1.2,0-2.2,0.8-2.4,2l0,14.8l0,2.4c0,0-0.1,0.1-0.2,0.1H81.2c-0.1,0-0.2-0.1-0.2-0.1l0.1-25.1l0-1.9
		c0,0,0.1-0.1,0.2-0.1H99c2,0,3.9,0.1,5.7,0.4c2.2,0.4,3.6,0.7,4.8,1.2c2.9,0.9,5.4,2.5,7.3,4.7c2,2.2,3.3,5.1,3.8,8.3l0.3,2.8
		l0.1,2.2c0,5.1-1,9.3-2.9,12.7c-1.7,3.2-4.2,5.4-7.6,6.8c-3.5,1.5-7.5,2.2-12,2.2H81.1c-0.1,0-0.2-0.1-0.2-0.2l0-5.1L81,38.7z"/>
	<path class="st0" d="M73.1,3.4H61.5c-1,0-1.9,0.8-1.9,1.8v41c0,1,0.9,1.9,1.9,1.9h11.6c1,0,1.8-0.8,1.9-1.9v-41
		C75,4.2,74.1,3.4,73.1,3.4z M73.2,5.2v41c0,0.1-0.1,0.2-0.1,0.2H61.5c-0.1,0-0.2-0.1-0.2-0.2v-41c0,0,0-0.1,0.1-0.1h11.7
		C73.1,5.1,73.2,5.1,73.2,5.2z"/>
	<path class="st0" d="M53.5,3.4H38.4c-0.9,0-1.5,0.5-1.9,1.7l-7,24.1l-7-24.1c-0.3-1.1-1-1.7-1.9-1.7H5.5c-1.1,0-1.9,0.8-1.9,1.8
		L3.7,44v2.3c0,1,0.9,1.9,1.9,1.9H16c1.1,0,1.9-0.8,1.9-1.9L17.8,33l-0.1-5.6c0-0.4,0-0.7,0-0.8c0.1,0.2,0.2,0.4,0.3,0.7l5.7,19.1
		c0.5,1.4,1.3,1.7,1.9,1.7h7.9c0.6,0,1.4-0.3,1.9-1.7L41,27.2c0.1-0.3,0.2-0.5,0.3-0.7c0,0.2,0.1,0.5,0.1,0.9L41.2,33l-0.1,12.1v1.1
		c0,1,0.9,1.9,1.9,1.9h10.3c1,0,1.9-0.9,1.9-1.9l0.2-39.7l0-1.3C55.4,4.2,54.5,3.4,53.5,3.4z M41.6,24.6h-0.2c-0.8,0-1.6,0.9-2,2.2
		l-4.9,16.7l-0.7,2.5c0,0.2-0.2,0.5-0.3,0.5l-8,0c-0.1,0-0.2-0.3-0.3-0.5l-5.7-19.1c-0.5-1.5-1.3-2.3-2.3-2.2
		c-0.6,0.1-1.5,0.6-1.4,2.9L16,33l0.1,10.8v2.4c0,0.1-0.1,0.2-0.2,0.2H5.7c-0.1,0-0.2-0.1-0.2-0.2L5.3,6.5l0-1.3
		c0,0,0.1-0.1,0.2-0.1h15.1c0,0,0.1,0,0.3,0.4l8.7,29.7l8.7-29.7c0.1-0.2,0.2-0.4,0.3-0.4h15c0.1,0,0.2,0.1,0.2,0.1l0,1.3l-0.2,37.4
		v2.3c0,0.1-0.1,0.2-0.2,0.2H43c-0.1,0-0.2-0.1-0.2-0.2L42.9,33l0.1-5.6C43.1,25,42,24.6,41.6,24.6z"/>
</g>
</svg>
