<?xml version="1.0" encoding="utf-8"?>
<!-- Generator: Adobe Illustrator 22.0.1, SVG Export Plug-In . SVG Version: 6.00 Build 0)  -->
<svg version="1.0" id="Capa_1" xmlns="http://www.w3.org/2000/svg" xmlns:xlink="http://www.w3.org/1999/xlink" x="0px" y="0px"
	 viewBox="0 0 45.8 58.1" style="enable-background:new 0 0 45.8 58.1;" xml:space="preserve">
<style type="text/css">
	.st0{fill:#5B22B2;}
</style>
<g>
	<g>
		<path class="st0" d="M8.1,39C2.7,29.6,1,18.4,3.7,10.4c0.8-2.5,2.3-4.5,4.3-6.2c1.1-0.9,2.2-1.6,3.2-2c2.8-1.1,4.8-0.9,5.8,0.7
			c1.2,1.9,4.1,10.1,4.9,13.8c0.4,1.7-1.1,3.7-3.5,4.9c-0.1,0.1-0.1,0.1-0.3,0.1c-0.2,0.1-0.3,0.2-0.5,0.2c-3.1,1.5-3.8,2.3-3.5,3.9
			c0,0.2,0.1,0.3,0.1,0.5c0.3,2.1,1,3.7,3,7.3c2.1,3.8,3.8,5.7,6,7.1c1.3,0.8,2,0.6,4.3-1.2c0.4-0.3,0.6-0.5,0.9-0.7
			c1.8-1.3,3.1-1.8,4.4-1.4c0.4,0.1,0.8,0.3,1.2,0.6c1.5,1.1,7.9,8.7,9.3,10.9c0.5,0.8,0.4,1.7-0.2,2.7c-0.4,0.6-0.9,1.2-1.4,1.6
			c-0.2,0.2-0.5,0.4-0.9,0.7c-0.7,0.5-1.5,0.9-2.3,1.3c-2.5,1.1-5.2,1.5-7.8,0.9c-0.6-0.1-1.3-0.3-1.9-0.4C20,53.5,13.2,47.9,8.1,39
			z"/>
	</g>
</g>
</svg>
