<?xml version="1.0" encoding="utf-8"?>
<!-- Generator: Adobe Illustrator 22.0.1, SVG Export Plug-In . SVG Version: 6.00 Build 0)  -->
<svg version="1.0" id="Capa_1" xmlns="http://www.w3.org/2000/svg" xmlns:xlink="http://www.w3.org/1999/xlink" x="0px" y="0px"
	 viewBox="0 0 52.8 60.6" style="enable-background:new 0 0 52.8 60.6;" xml:space="preserve">
<style type="text/css">
	.st0{fill:#5B22B2;}
</style>
<path class="st0" d="M43.8,8.3C39.2,3.7,33,1.1,26.4,1.1l0,0c-6.6,0-12.8,2.6-17.3,7.2c-4.6,4.6-7.2,10.8-7.2,17.4S4.5,38.4,9,43
	l15.9,15.9c0.4,0.4,0.8,0.6,1.4,0.6s1.1-0.2,1.4-0.6L43.7,43C53.4,33.5,53.4,17.9,43.8,8.3z M26.4,34c-4.8,0-8.6-3.9-8.6-8.6
	s3.9-8.6,8.6-8.6s8.6,3.9,8.6,8.6S31.2,34,26.4,34z"/>
</svg>
