<?xml version="1.0" encoding="utf-8"?>
<!-- Generator: Adobe Illustrator 22.0.1, SVG Export Plug-In . SVG Version: 6.00 Build 0)  -->
<svg version="1.0" id="Capa_1" xmlns="http://www.w3.org/2000/svg" xmlns:xlink="http://www.w3.org/1999/xlink" x="0px" y="0px"
	 viewBox="0 0 298.5 72.4" style="enable-background:new 0 0 298.5 72.4;" xml:space="preserve">
<style type="text/css">
	.st0{fill:#939393;}
</style>
<g>
	<g>
		<path class="st0" d="M36.8,4.5C19.2,4.5,5,18.7,5,36.2c0,17.5,14.2,31.7,31.7,31.7s31.7-14.2,31.7-31.7
			C68.5,18.7,54.3,4.5,36.8,4.5z M43.3,51.2l-0.1-10c-0.1-3.7-2.9-6.9-6.5-6.9s-6.5,3.1-6.5,6.9v10H18.4l2-19.9L26.2,19l2.5,10
			l8-13.6l8.2,13.6l2.4-10l5.9,12.2l2,19.9H43.3z"/>
	</g>
	<path class="st0" d="M150.5,22.5c0-2.9,1.7-5,4.4-5c2.7,0,4.5,2.1,4.5,5c0,2.9-1.8,5-4.5,5C152.2,27.5,150.5,25.4,150.5,22.5
		 M146.9,35c0.9,1.2,3.3,3.9,7.8,3.9c5.2,0,8.6-3.4,8.6-8.7v-16h-4v1.4c-1.1-1.1-2.5-1.8-4.7-1.8c-4.8,0-8.3,3.7-8.3,8.7
		c0,5,3.4,8.7,8.3,8.7c2.1,0,3.6-0.7,4.7-1.7v0.9c0,3.3-2,4.9-4.6,4.9c-2.6,0-4.1-1.7-4.8-3L146.9,35z M132.1,26.4
		c0-1.4,1.2-2.2,3.1-2.2c1.5,0,2.6,0.3,3.6,0.7v2c-0.9,0.9-2.5,1.5-4.1,1.5C132.9,28.4,132.1,27.5,132.1,26.4 M133.9,32
		c2.2,0,3.9-0.8,5-1.7v1.4h4V20.3c0-4.4-3.1-6.6-7.4-6.6c-2.7,0-5.5,1.2-6.9,3.6l2.7,2.6c1.1-2,2.8-2.5,4.1-2.5
		c1.9,0,3.4,1.1,3.4,2.9v1.2c-0.7-0.2-2.2-0.6-3.5-0.6c-4,0-7.2,1.8-7.2,5.8C128,30,130.7,32,133.9,32 M113.7,26.4
		c0-1.4,1.2-2.2,3.1-2.2c1.5,0,2.6,0.3,3.6,0.7v2c-0.9,0.9-2.5,1.5-4.1,1.5C114.6,28.4,113.7,27.5,113.7,26.4 M115.5,32
		c2.2,0,3.9-0.8,5-1.7v1.4h4V20.3c0-4.4-3.1-6.6-7.4-6.6c-2.7,0-5.5,1.2-6.9,3.6l2.7,2.6c1.1-2,2.8-2.5,4.1-2.5
		c1.9,0,3.4,1.1,3.4,2.9v1.2c-0.7-0.2-2.2-0.6-3.5-0.6c-4,0-7.2,1.8-7.2,5.8C109.7,30,112.4,32,115.5,32 M86.1,14.2h-4.4l4.8,17.4
		h4.9l3.4-12.4l3.4,12.4h4.9l4.8-17.4h-4.4l-2.9,12l-3.2-12h-5.2l-3.2,12L86.1,14.2z"/>
	<path class="st0" d="M284.6,62h2.7l6.2-15.4h-2.8l-2.9,8l-2.9-8h-2.9l4.4,11.2L284.6,62z M275,57.7h5.3v-2.4h-2.8v-6.3h2.9v-2.3
		h-2.9v-3.1H275v3.1h-1.9v2.3h1.9V57.7z M267.4,51.9c-1,0-1.7-0.7-1.7-1.6c0-0.9,0.7-1.6,1.7-1.6c1,0,1.7,0.8,1.7,1.6
		C269.1,51.2,268.4,51.9,267.4,51.9 M267.4,54.3c2.3,0,4.2-1.7,4.2-3.9c0-2.3-1.8-4-4.2-4c-2.3,0-4.2,1.6-4.2,4.3v7h8v-2.3h-5.5
		v-1.5C266.2,54.2,266.8,54.3,267.4,54.3 M257.8,57.7h2.6v-11h-2.6V57.7z M257.5,43.3c0,0.9,0.7,1.6,1.6,1.6c0.9,0,1.6-0.7,1.6-1.6
		c0-0.9-0.7-1.6-1.6-1.6C258.2,41.7,257.5,42.4,257.5,43.3 M251.2,48.7c1.2,0,1.9,0.7,2.6,1.6l1.8-1.7c-1.1-1.4-2.5-2.2-4.5-2.2
		c-3,0-5.5,2.5-5.5,5.8c0,3.3,2.5,5.8,5.5,5.8c2.3,0,3.8-1.1,4.7-2.4l-1.8-1.6c-0.7,1-1.5,1.7-2.8,1.7c-1.7,0-3-1.4-3-3.4
		C248.3,50.2,249.5,48.7,251.2,48.7 M234.9,52.2c0-2,1.3-3.4,3.1-3.4c1.8,0,3.1,1.4,3.1,3.4c0,2-1.3,3.4-3.1,3.4
		C236.2,55.6,234.9,54.2,234.9,52.2 M232.3,52.2c0,3.3,2.5,5.8,5.7,5.8c3.2,0,5.7-2.5,5.7-5.8c0-3.3-2.5-5.8-5.7-5.8
		C234.8,46.4,232.3,48.8,232.3,52.2 M225.4,53.1l1.5,0.4c1.1,0.3,1.3,0.6,1.3,1.1c0,0.5-0.4,1.1-1.7,1.1c-1.3,0-2.3-0.5-3.2-1.6
		l-1.6,1.7c0.9,1.1,2.3,2.1,4.6,2.1c2.9,0,4.4-1.5,4.4-3.4c0-1.9-1.4-3-3.4-3.4l-1.7-0.4c-0.6-0.2-1.1-0.5-1.1-1c0-0.6,0.6-1,1.5-1
		c1.2,0,2.1,0.7,2.6,1.4l1.6-1.8c-1-1.1-2.3-1.8-4.2-1.8c-2.3,0-4,1.2-4,3.3C222,51.6,223.3,52.7,225.4,53.1 M206.1,55.6
		c-1.4,0-2.6-0.9-2.6-2.3c0-1.2,0.7-2,2.2-2.8l0.1,0l3.1,4C208,55.4,207,55.6,206.1,55.6 M206.9,44c0.8,0,1.4,0.5,1.4,1.4
		c0,0.8-0.7,1.5-1.6,2l-0.1,0.1l-0.2-0.2c-0.5-0.7-0.9-1.3-0.9-1.9C205.6,44.5,206.3,44,206.9,44 M210.4,56.5l1,1.2h3.2l-2.4-3.1
		c1.1-1.5,1.8-3.1,2.2-4.9h-2.7c-0.3,1.2-0.5,1.8-1.1,2.7l-2.5-3.1l0.2-0.1c1.2-0.7,2.6-2,2.6-3.8c0-2-1.6-3.6-4-3.6s-4,1.5-4,3.4
		c0,1.1,0.3,2,1.4,3.5l-0.2,0.1c-1.9,1.1-3.2,2.5-3.2,4.7c0,2.1,1.6,4.5,5.3,4.5C207.7,57.9,209.1,57.5,210.4,56.5 M184.8,62h2.7
		l6.2-15.4h-2.8l-2.9,8l-2.9-8h-2.9l4.4,11.2L184.8,62z M172.2,51.9c0-1.9,1.1-3.2,2.8-3.2c1.7,0,2.8,1.3,2.8,3.2
		c0,1.8-1.1,3.2-2.8,3.2C173.3,55.1,172.2,53.8,172.2,51.9 M171.9,58.1l-1.8,1.8c0.6,0.8,2.1,2.5,5,2.5c3.3,0,5.4-2.2,5.4-5.5V46.6
		h-2.5v0.9c-0.7-0.7-1.6-1.2-3-1.2c-3.1,0-5.3,2.3-5.3,5.5c0,3.2,2.2,5.5,5.3,5.5c1.4,0,2.3-0.5,2.9-1.1v0.6c0,2.1-1.2,3.1-2.9,3.1
		C173.3,60,172.3,58.9,171.9,58.1 M159,52.2c0-2,1.3-3.4,3.1-3.4c1.8,0,3.1,1.4,3.1,3.4c0,2-1.3,3.4-3.1,3.4
		C160.3,55.6,159,54.2,159,52.2 M156.4,52.2c0,3.3,2.5,5.8,5.7,5.8c3.2,0,5.7-2.5,5.7-5.8c0-3.3-2.5-5.8-5.7-5.8
		C158.9,46.4,156.4,48.8,156.4,52.2 M151.3,57.7h2.6V41.9h-2.6V57.7z M140.1,52.2c0-2,1.3-3.4,3.1-3.4c1.8,0,3.1,1.4,3.1,3.4
		c0,2-1.3,3.4-3.1,3.4C141.4,55.6,140.1,54.2,140.1,52.2 M137.5,52.2c0,3.3,2.5,5.8,5.7,5.8c3.2,0,5.7-2.5,5.7-5.8
		c0-3.3-2.5-5.8-5.7-5.8C140,46.4,137.5,48.8,137.5,52.2 M128.1,57.7v-6.1c0-1.7,0.8-2.9,2.4-2.9c1.4,0,2.2,1,2.2,2.6v6.4h2.6v-6.4
		c0-3.1-1.7-4.9-4.4-4.9c-1.3,0-2.3,0.5-2.9,1.2v-0.9h-2.5v11H128.1z M122.4,46.6h-6.9v-4.7h-2.6v15.8h2.6v-8.6h4.4v8.6h2.6V46.6z
		 M106.2,48.7c1.2,0,1.9,0.7,2.6,1.6l1.8-1.7c-1.1-1.4-2.5-2.2-4.5-2.2c-3,0-5.5,2.5-5.5,5.8c0,3.3,2.5,5.8,5.5,5.8
		c2.3,0,3.8-1.1,4.7-2.4l-1.8-1.6c-0.7,1-1.5,1.7-2.8,1.7c-1.7,0-3-1.4-3-3.4C103.3,50.2,104.5,48.7,106.2,48.7 M94.5,51.9
		c-1,0-1.7-0.7-1.7-1.6c0-0.9,0.7-1.6,1.7-1.6c1,0,1.7,0.8,1.7,1.6C96.2,51.2,95.6,51.9,94.5,51.9 M94.5,54.3c2.3,0,4.2-1.7,4.2-3.9
		c0-2.3-1.8-4-4.2-4c-2.3,0-4.2,1.6-4.2,4.3v7h8v-2.3h-5.5v-1.5C93.3,54.2,93.9,54.3,94.5,54.3 M82.9,57.7h5.3v-2.4h-2.8v-6.3h2.9
		v-2.3h-2.9v-3.1h-2.5v3.1h-1.9v2.3h1.9V57.7z"/>
</g>
</svg>
