<?xml version="1.0" encoding="utf-8"?>
<!-- Generator: Adobe Illustrator 22.0.1, SVG Export Plug-In . SVG Version: 6.00 Build 0)  -->
<svg version="1.0" id="Capa_1" xmlns="http://www.w3.org/2000/svg" xmlns:xlink="http://www.w3.org/1999/xlink" x="0px" y="0px"
	 viewBox="0 0 86.3 58" style="enable-background:new 0 0 86.3 58;" xml:space="preserve">
<style type="text/css">
	.st0{fill:#034E9B;}
	.st1{fill:#FFEB00;}
</style>
<g>
	<path class="st0" d="M83.8,0.8H2.5c-0.8,0-1.4,0.6-1.4,1.4v53.5c0,0.8,0.6,1.4,1.4,1.4h81.4c0.8,0,1.4-0.6,1.4-1.4V2.3
		C85.3,1.5,84.6,0.8,83.8,0.8"/>
	<polygon class="st1" points="44.1,8.9 47,8.9 44.7,10.7 45.6,13.6 43.2,11.8 40.9,13.6 41.8,10.7 39.4,8.9 42.3,8.9 43.2,6 	"/>
	<polygon class="st1" points="44.2,46.4 47.1,46.4 44.8,48.2 45.7,51 43.4,49.2 41,51 42,48.2 39.5,46.4 42.4,46.4 43.4,43.7 	"/>
	<polygon class="st1" points="53.5,43.9 56.4,43.9 54.1,45.7 55,48.5 52.6,46.7 50.3,48.5 51.2,45.7 48.8,43.9 51.7,43.9 52.6,41.2 
			"/>
	<polygon class="st1" points="53.5,11.4 56.4,11.4 54.1,13.1 55,16 52.6,14.2 50.3,16 51.2,13.1 48.8,11.4 51.7,11.4 52.6,8.7 	"/>
	<polygon class="st1" points="60.4,18.3 63.3,18.3 61,20 61.8,22.9 59.5,21.1 57.1,22.9 58.1,20 55.7,18.3 58.6,18.3 59.5,15.6 	"/>
	<polygon class="st1" points="60.4,37.1 63.3,37.1 61,38.9 61.8,41.7 59.5,40 57.1,41.7 58.1,38.9 55.7,37.1 58.6,37.1 59.5,34.4 	
		"/>
	<polygon class="st1" points="62.9,27.6 65.9,27.6 63.6,29.4 64.4,32.2 62.1,30.4 59.7,32.2 60.7,29.4 58.3,27.6 61.2,27.6 
		62.1,24.8 	"/>
	<polygon class="st1" points="34.7,11.4 37.6,11.4 35.2,13.1 36.2,16 33.8,14.2 31.5,16 32.3,13.1 30,11.4 32.9,11.4 33.8,8.7 	"/>
	<polygon class="st1" points="27.9,18.3 30.8,18.3 28.5,20 29.4,22.9 27.1,21.1 24.7,22.9 25.7,20 23.2,18.3 26.2,18.3 27.1,15.6 	
		"/>
	<polygon class="st1" points="25.4,27.6 28.4,27.6 26.1,29.4 26.9,32.2 24.6,30.4 22.2,32.2 23.2,29.4 20.8,27.6 23.7,27.6 
		24.6,24.9 	"/>
	<polygon class="st1" points="27.9,37.2 30.8,37.2 28.5,38.9 29.4,41.7 27.1,40 24.7,41.7 25.7,38.9 23.2,37.2 26.2,37.2 27.1,34.4 
			"/>
	<polygon class="st1" points="34.7,43.9 37.6,43.9 35.3,45.7 36.2,48.5 33.9,46.8 31.5,48.5 32.5,45.7 30.1,43.9 32.9,43.9 
		33.9,41.2 	"/>
</g>
</svg>
