<?xml version="1.0" encoding="utf-8"?>
<!-- Generator: Adobe Illustrator 22.0.1, SVG Export Plug-In . SVG Version: 6.00 Build 0)  -->
<svg version="1.0" id="Capa_1" xmlns="http://www.w3.org/2000/svg" xmlns:xlink="http://www.w3.org/1999/xlink" x="0px" y="0px"
	 viewBox="0 0 136.5 39.5" style="enable-background:new 0 0 136.5 39.5;" xml:space="preserve">
<style type="text/css">
	.st0{fill:#FFFFFF;}
</style>
<g>
	<path class="st0" d="M18.1,34.8c-0.8-0.5-1.6-0.9-2.4-1.4c-0.3-0.2-0.4-0.4-0.4-0.7c0-0.9,0-1.8,0-2.8c0-0.5,0.1-0.9,0.6-1.2
		c1.6-1.2,1.6-3,1.3-4.7c-0.3-1.4-0.9-2.7-1.9-3.8c-1.2-1.3-2.5-2.3-4.4-2.2c-1.3,0-2.3,1-2.6,2.1C7.6,22,8,23.8,8.9,25.6
		c0.3,0.5,0.8,0.9,0.9,1.5c0.1,0.9,0,1.9,0,3c-1.3-0.6-2.4-1.4-3.6-2c-0.5-0.3-0.6-0.6-0.6-1.1c0-4.4,0-8.8,0-13.1
		c0-0.8-0.2-1.4-1-1.7c-0.4-0.2-0.6-0.1-0.7,0.2c-0.7,1.5-1.2,2.9-1.5,4.5C2,19.4,2.2,22,2.9,24.6c0.6,2,1.5,3.8,2.8,5.5
		c1.2,1.6,2.7,3,4.4,4.1c1.3,0.9,2.8,1.5,4.3,2c1.3,0.4,2.6,0.6,3.9,0.7c0.1,0,0.3,0,0.3-0.1C18.9,36.2,18.6,35.1,18.1,34.8"/>
	<path class="st0" d="M34.9,12.8c-0.5-1.1-0.4-1.1-1.5-0.5c-0.4,0.2-0.5,0.4-0.5,0.8c0,1,0,2,0,2.9c0,0.4-0.2,0.7-0.5,0.8
		c-0.7,0.3-1.2,0.7-1.9,1.1c-0.5,0.3-1,0.7-1.8,0.3c-1.4-0.7-2.8-0.2-4,0.7c-2.3,1.8-3.6,4.1-3.4,7c0.2,2.9,2.5,3.9,4.9,2.9
		c1.7-0.8,2.9-2.2,3.7-3.9c0.2-0.4,0.5-0.7,0.9-1c0.7-0.4,1.4-0.8,2.1-1.2c0.1,1.6,0,3.2,0,4.7c0,0.2-0.1,0.3-0.3,0.4
		c-1.9,1.1-3.8,2.2-5.7,3.3c-2.1,1.2-4.3,2.5-6.4,3.7c-0.3,0.2-0.5,0.4-0.4,0.8c0,0.2,0,0.5,0,0.7c0,0.4,0.1,0.5,0.5,0.5
		c0.7-0.1,1.5-0.1,2.2-0.3c1.7-0.4,3.3-0.9,4.8-1.8c2.3-1.3,4.2-3,5.7-5.1c0.9-1.3,1.6-2.7,2.2-4.2c0.6-1.6,0.8-3.2,0.9-4.9
		c0-1.1,0-2.1-0.2-3.2C36,15.7,35.5,14.3,34.9,12.8"/>
	<path class="st0" d="M25.1,13.3c0.6-1.4,0.2-2.9-1.2-3.9c-1.7-1.3-3.6-1.6-5.7-1.4c-0.3,0-0.5,0-0.8-0.1c-0.7-0.4-1.4-0.8-2-1.2
		c-0.2-0.1-0.3-0.3,0-0.4c1.2-0.7,2.4-1.3,3.6-2c0.2-0.1,0.4-0.1,0.6,0c1.4,0.8,2.8,1.6,4.2,2.4c1.5,0.9,3,1.8,4.5,2.6
		c1.2,0.7,2.5,1.4,3.7,2.1c0.3,0.1,1.5-0.4,1.6-0.7c0-0.1-0.1-0.2-0.1-0.2c-0.7-1-1.4-2-2.3-2.8c-3.3-3.2-7.3-4.8-11.9-4.9
		c-2,0.1-4,0.4-5.9,1.1c-2.1,0.8-4,1.9-5.7,3.5c-1,0.9-1.9,1.9-2.6,3.1c-0.1,0.1-0.2,0.1-0.1,0.3C5,11,6.2,11.5,6.5,11.3
		c1-0.5,1.9-1.1,2.9-1.6c0.2-0.1,0.4-0.2,0.7,0c1,0.6,1.9,1.1,2.9,1.6c0.2,0.1,0.4,0.3,0.4,0.6c0,0.3,0,0.7,0.1,1
		c0.6,1.5,1.9,2.3,3.3,2.8c2,0.6,4,0.5,6-0.3C23.7,15,24.6,14.3,25.1,13.3"/>
	<path class="st0" d="M121,22.6c2.7,0,5.3,0,8,0c0.7,0,1.5-0.2,2.1-0.5c1.9-0.8,3-2.6,2.9-4.6c0-0.9-0.1-1.7-0.7-2.5
		c-0.5-0.6-1.1-1-1.8-1.4c1.2-0.6,1.8-1.6,2-2.8c0.3-2.8-1.4-4.6-3.9-4.8c-2.9-0.2-5.7-0.1-8.6-0.1c-0.5,0-0.7,0.2-0.7,0.7
		c0,5.1,0,10.2,0,15.3C120.3,22.4,120.5,22.6,121,22.6 M128.2,19.7c-1.4,0.1-2.7,0-4.1,0c-0.3,0-0.4-0.2-0.4-0.5c0-1.2,0-2.4,0-3.6
		c0-0.3,0.1-0.4,0.4-0.4c0.7,0,1.4,0,2.3,0c0.8,0.1,1.9-0.1,2.8,0.2c0.5,0.2,0.9,0.5,1.1,1.1C130.9,18.1,130,19.5,128.2,19.7
		 M123.7,9.3c0-0.3,0-0.5,0.4-0.5c1.7,0.1,3.3-0.2,5,0.2c0.6,0.2,1,0.6,1.1,1.3c0.1,1.5-0.5,2.1-2,2.1c-0.6,0-1.2,0-1.9,0v0
		c-0.7,0-1.4,0-2,0c-0.4,0-0.6-0.1-0.6-0.5C123.7,11,123.7,10.1,123.7,9.3"/>
	<path class="st0" d="M81.5,13.8c-0.3-0.2-0.2-0.3,0-0.4c0.8-0.5,1.3-1.2,1.5-2.2c0.6-2.5-0.9-4.9-3.7-5.2c-2.9-0.3-5.9-0.1-8.8-0.1
		C70.1,5.9,70,6,70,6.5c0,2.6,0,5.1,0,7.7c0,2.6,0,5.1,0,7.7c0,0.5,0.2,0.7,0.7,0.7c2.6,0,5.3,0,7.9,0c0.7,0,1.5-0.2,2.1-0.5
		c1.8-0.7,3-2.6,2.9-4.5C83.6,15.9,83.1,14.5,81.5,13.8 M73.3,9.3c0-0.2,0-0.5,0.3-0.5C75.3,8.9,77,8.6,78.6,9
		c0.6,0.2,1.1,0.7,1.2,1.3c0.1,0.9-0.3,1.5-0.9,1.8c-0.8,0.4-1.7,0.2-2.5,0.2c-0.1,0-0.3,0-0.5,0v0c-0.7,0-1.4,0-2.1,0
		c-0.4,0-0.5-0.1-0.5-0.5C73.4,11,73.3,10.1,73.3,9.3 M79,19.3c-0.5,0.2-1,0.4-1.5,0.4c-1.2,0-2.4,0-3.6,0c-0.4,0-0.6-0.2-0.6-0.6
		c0-1.1,0-2.3,0-3.4c0-0.4,0.1-0.6,0.5-0.6c0.7,0,1.3,0,2.1,0c0.8,0.1,1.8-0.1,2.8,0.2c0.7,0.2,1.3,0.9,1.4,1.5
		C80.2,18.1,79.8,19,79,19.3"/>
	<path class="st0" d="M65.4,22.6c0.9,0,1.8,0,2.7,0c0.5,0,0.6-0.2,0.4-0.6c-0.9-2.4-1.7-4.8-2.6-7.2c-1-2.8-2-5.6-3-8.4
		c-0.1-0.4-0.3-0.5-0.7-0.5c-1,0-2,0-3,0c-0.3,0-0.5,0.1-0.6,0.4c-0.2,0.7-0.5,1.4-0.8,2.1c-0.9,2.5-1.7,4.9-2.6,7.4
		c-0.8,2.1-1.5,4.2-2.3,6.3c-0.2,0.4,0,0.5,0.3,0.5c0.9,0,1.7,0,2.6,0c0.5,0,0.7-0.2,0.8-0.6c0.2-0.8,0.5-1.6,0.8-2.4
		c0.1-0.3,0.3-0.4,0.6-0.4c0.8,0,1.7,0,2.5,0c0.8,0,1.6,0.1,2.4,0c0.7-0.1,0.8,0.3,1,0.8c0.2,0.7,0.4,1.4,0.7,2.1
		C64.9,22.4,65.1,22.6,65.4,22.6 M62.1,16.3c-0.9,0-1.8,0-2.8,0c-0.6,0-0.7-0.1-0.5-0.7c0.4-1.2,0.8-2.3,1.2-3.5
		c0.2-0.7,0.5-1.4,0.7-2.1c0.3,0.2,0.3,0.5,0.3,0.7c0.5,1.6,1,3.2,1.6,4.8C62.9,16.1,62.8,16.3,62.1,16.3"/>
	<path class="st0" d="M116.4,22.5h0.8c0.5,0,1,0,1.5,0c0.3,0,0.5-0.1,0.3-0.4c-0.5-1.2-0.9-2.5-1.3-3.7c-0.5-1.3-1-2.7-1.4-4
		c-0.6-1.8-1.3-3.6-1.9-5.4c-0.3-0.8-0.6-1.6-0.9-2.4c-0.1-0.3-0.2-0.6-0.6-0.6c-1.1,0-2.2,0-3.3,0c-0.3,0-0.4,0.2-0.5,0.4
		c-0.1,0.3-0.2,0.6-0.3,0.9c-0.8,2.6-1.8,5.1-2.7,7.6c-0.9,2.4-1.7,4.8-2.6,7.2c-0.1,0.3-0.1,0.5,0.3,0.5c1,0,2,0,2.9,0
		c0.2,0,0.3-0.1,0.4-0.3c0.3-0.8,0.5-1.7,0.8-2.5c0.1-0.4,0.3-0.6,0.7-0.6c1.7,0,3.4,0,5.1,0c0.3,0,0.5,0.1,0.6,0.5
		c0.2,0.6,0.4,1.2,0.6,1.8C115.2,22.6,115.3,22.5,116.4,22.5 M112.8,16.3c-1.1,0-2.2,0-3.3,0c-0.3,0-0.4-0.1-0.3-0.4
		c0.6-1.9,1.3-3.8,1.9-5.7c0-0.1,0.1-0.2,0.2-0.3c0.5,1.5,0.9,3,1.4,4.4c0.2,0.5,0.3,1,0.5,1.5C113.3,16.1,113.2,16.3,112.8,16.3"/>
	<path class="st0" d="M44.1,22.6c0.7,0,1.4,0,2.1,0c0.5,0,0.7-0.1,0.7-0.7c0-1.8,0-3.7,0-5.5c0-0.8,0-0.8,0.8-0.8c2,0,4,0,6,0
		c0.5,0,0.6-0.2,0.6-0.6c0-0.5,0-1,0-1.5c0-0.8,0-0.8-0.7-0.8c-2,0-3.9,0-5.9,0c-0.8,0-0.8,0-0.8-0.9c0-0.5,0-1.1,0-1.6
		c0-1.4,0-1.4,1.4-1.4c2.1,0,4.2,0,6.3,0c0.6,0,0.8-0.2,0.7-0.7c0-0.5,0-1,0-1.5c0.1-0.6-0.2-0.7-0.7-0.7c-3.5,0-6.9,0-10.4,0
		c-0.8,0-0.8,0-0.8,0.8c0,2.5,0,5,0,7.5c0,2.5,0,5.1,0,7.6C43.5,22.4,43.6,22.6,44.1,22.6"/>
	<path class="st0" d="M102,19.5c-2.3,0-4.7,0-7,0c-0.8,0-0.8,0-0.8-0.7c0-4.1,0-8.2,0-12.3c0-0.5-0.1-0.6-0.6-0.6
		c-0.8,0-1.5,0-2.3,0c-0.6,0-0.7,0.2-0.7,0.7c0,2.5,0,5.1,0,7.6c0,2.6,0,5.1,0,7.7c0,0.4,0.1,0.6,0.6,0.6c3.6,0,7.1,0,10.7,0
		c0.4,0,0.6-0.1,0.6-0.5c0-0.6,0-1.3,0-1.9C102.6,19.7,102.5,19.5,102,19.5"/>
	<path class="st0" d="M50.6,28.3c1.2-0.5,1.3-1.5,1.2-2.5c0-1-1-2-2-2.1c-1.9-0.3-3.8-0.1-5.7-0.1c-0.3,0-0.4,0.2-0.4,0.4
		c0,3.1,0,6.3,0,9.4c0,0.3,0.1,0.5,0.5,0.4c1.7-0.1,3.4,0,5.1-0.1c1.7-0.1,2.8-1.4,2.9-2.9C52.3,29.7,51.7,28.7,50.6,28.3
		 M46.2,25.4c0.9,0,1.7,0,2.6,0c0.7,0,1.1,0.4,1,1.2c0,0.6-0.4,1-1.1,1c-0.4,0-0.8,0-1.2,0c-0.4,0-0.9,0-1.3,0
		c-0.2,0-0.3-0.1-0.3-0.3c0-0.5,0-1,0-1.5C45.8,25.4,45.9,25.4,46.2,25.4 M50,30.8c-0.1,0.7-0.6,1.2-1.3,1.3c-0.4,0-0.9,0-1.3,0
		c-0.4,0-0.8,0-1.2,0c-0.2,0-0.3-0.1-0.3-0.3c0-0.7,0-1.4,0-2.1c0-0.1,0-0.3,0.2-0.3c1,0,2.1-0.2,3.1,0.1
		C49.8,29.6,50.1,30.1,50,30.8"/>
	<path class="st0" d="M123.2,23.7c-0.3-0.3-0.9-0.1-1.4-0.1c-0.5-0.1-0.6,0.1-0.5,0.6c0,2.1,0,4.2,0,6.4c-0.2-0.2-0.3-0.4-0.4-0.5
		c-1.1-2-2.2-4-3.3-6c-0.2-0.3-0.4-0.5-0.8-0.4c-0.4,0-0.8,0-1.2,0c-0.4,0-0.6,0.1-0.6,0.5c0,2.8,0,5.5,0,8.3c0,1.4,0,1.4,1.5,1.4
		c0.4,0,0.6-0.1,0.6-0.6c0-2,0-4,0-6c0-0.1-0.1-0.3,0.1-0.5c0.1,0.1,0.1,0.3,0.2,0.4c1,1.7,2,3.5,3,5.2c0.8,1.4,0.8,1.4,2.4,1.4
		c0,0,0,0,0.1,0c0.5,0.1,0.6-0.1,0.5-0.6c0-2.7,0-5.5,0-8.2C123.2,24.5,123.4,23.9,123.2,23.7"/>
	<path class="st0" d="M72.2,33.3c-0.1-0.3-0.2-0.6-0.2-0.9c0-0.5,0-1,0-1.5c0.1-0.9-0.3-1.6-1.1-2.1c0.1-0.1,0.1-0.1,0.2-0.1
		c1.4-0.6,1.5-2.5,1-3.6c-0.5-1.2-1.5-1.6-2.7-1.6c-1.6,0-3.2,0-4.8,0c-0.3,0-0.4,0.1-0.4,0.4c0,3.1,0,6.3,0,9.4
		c0,0.3,0.1,0.5,0.4,0.5c0.4,0,0.7,0,1.1,0c0.5,0,0.7-0.1,0.6-0.6c0-1,0-2,0-3c0-0.3,0-0.4,0.4-0.4c0.7,0,1.4,0,2.1,0
		c0.6,0,1,0.4,1.1,1c0.1,0.9,0.2,1.7,0.2,2.6c0,0.4,0.1,0.5,0.5,0.5c0.5,0,1,0,1.5,0c0.2,0,0.5,0.1,0.6-0.1
		C72.6,33.5,72.3,33.5,72.2,33.3 M68.8,28.1c-0.7,0.1-1.5,0-2.3,0c-0.3,0-0.4-0.1-0.4-0.3c0-0.7,0-1.4,0-2c0-0.3,0.1-0.3,0.4-0.3
		c0.4,0,0.8,0,1.2,0h1c0.9,0,1.4,0.5,1.4,1.3C70.1,27.5,69.8,28,68.8,28.1"/>
	<path class="st0" d="M109.1,23.2c-1.4-0.1-2.8,0-3.9,1c-0.9,0.7-1.3,1.7-1.6,2.8c-0.4,1.6-0.2,3.2,0.5,4.6c0.9,1.7,2.3,2.5,4.3,2.4
		c1.5,0.1,2.8-0.4,3.8-1.7c0.8-1,1-2.1,1.1-3.3c0-1,0-2-0.4-3C112.2,24.4,110.9,23.4,109.1,23.2 M111,29.7c-0.1,0.6-0.2,1.1-0.6,1.6
		c-0.6,0.8-1.4,1.1-2.4,1c-1-0.1-1.6-0.7-2.1-1.6c-0.3-0.7-0.3-1.3-0.3-2.2c-0.1-0.8,0.1-1.8,0.9-2.6c1.1-1,2.6-1.1,3.6,0
		C111.2,26.9,111.2,28.3,111,29.7"/>
	<path class="st0" d="M92.5,32c-1.5,0-3,0-4.6,0c-0.5,0-0.6-0.2-0.6-0.6c0-0.5,0-1,0-1.5c0-0.5,0.1-0.6,0.6-0.6c1,0,2.1,0,3.1,0
		c1.4,0,1.4,0,1.4-1.4c0-0.3-0.1-0.4-0.4-0.4c-1,0-2,0-3,0c-0.5,0-1.3,0.2-1.6-0.1c-0.3-0.3-0.1-1-0.1-1.6c0-0.4,0.2-0.5,0.5-0.5
		c1.2,0,2.4,0,3.7,0c1.3,0,1.3,0,1.3-1.3c0-0.4-0.1-0.5-0.5-0.5c-2.2,0-4.4,0-6.7,0c-0.4,0-0.5,0.1-0.5,0.5c0,1.5,0,3.1,0,4.6
		c0,1.6,0,3.1,0,4.7c0,0.4,0.1,0.5,0.5,0.5c2,0,4,0,6,0c1.3,0,1.3,0,1.3-1.3C93.1,32,93,32,92.5,32"/>
	<path class="st0" d="M133.1,30.4c-0.4-1.3-0.9-2.6-1.4-3.8c-0.3-0.9-0.6-1.7-0.9-2.6c-0.1-0.3-0.3-0.5-0.7-0.4c-0.5,0-1.1,0-1.6,0
		c-0.2,0-0.3,0-0.4,0.2c-0.2,0.5-0.4,1-0.5,1.5c-0.5,1.4-1,2.8-1.5,4.3c-0.5,1.4-1,2.9-1.6,4.3c0.7,0,1.3,0,2,0
		c0.3,0,0.4-0.2,0.4-0.4c0.1-0.5,0.4-0.8,0.4-1.3c0-0.4,0.2-0.5,0.6-0.5c0.8,0,1.7,0,2.5,0c0.9,0,0.9,0,1.2,0.9
		c0.1,0.2,0.2,0.5,0.2,0.7c0,0.3,0.2,0.5,0.5,0.4c0.6,0,1.3,0,2,0C133.8,32.6,133.5,31.5,133.1,30.4 M129.5,29.9c-0.4,0-0.7,0-1.1,0
		c-0.2,0-0.3-0.1-0.3-0.3c0.4-1.2,0.8-2.3,1.2-3.5c0,0,0.1-0.1,0.1-0.1c0.3,1,0.7,1.9,0.9,2.9C130.6,29.9,130.6,29.9,129.5,29.9"/>
	<path class="st0" d="M62.7,32.6c-0.5-1.2-0.9-2.5-1.4-3.7c-0.6-1.7-1.2-3.4-1.7-5c-0.1-0.2-0.2-0.3-0.5-0.3c-0.6,0-1.2,0-1.8,0
		c-0.2,0-0.4,0.1-0.5,0.3c-0.2,0.6-0.4,1.1-0.6,1.6c-0.6,1.7-1.3,3.5-1.8,5.2c-0.3,1-0.8,2-1,3.1c0.6,0,1.2,0,1.8,0
		c0.3,0,0.5-0.1,0.6-0.4c0.1-0.4,0.3-0.9,0.4-1.3c0.1-0.3,0.2-0.3,0.5-0.3c0.9,0,1.8,0,2.7,0c0.5,0,0.7,0,0.9,0.6
		c0.4,1.5,0.4,1.5,1.9,1.5c0.8,0,0.8,0,0.6-0.8C62.7,32.9,62.7,32.7,62.7,32.6 M58.9,29.9c-0.7,0-1.3,0-2.1,0c0.4-1.3,0.8-2.6,1.3-4
		c0.4,1.2,0.8,2.3,1.1,3.4C59.4,29.7,59.4,29.9,58.9,29.9"/>
	<path class="st0" d="M78.9,25.2c0.8,0,1.6,0.2,1.9,1.1C81,27,81.5,27,82.1,27c0.3,0,0.5,0,0.8,0c0.3,0,0.3-0.1,0.3-0.4
		c-0.1-1-0.6-1.8-1.4-2.4c-0.9-0.7-2-1-3.2-0.9c-1.6,0.1-2.8,0.8-3.6,2.1c-0.6,1-0.9,2.1-0.8,3.2c0,0.5,0,0.8,0,1.2
		c0.2,1.6,0.8,2.9,2.1,3.7c1.5,0.9,3.1,0.9,4.7,0.1c1.1-0.6,1.8-1.6,2.1-2.8c0.1-0.3,0-0.5-0.4-0.5c-0.4,0-0.9,0-1.3,0
		c-0.3,0-0.5,0.1-0.5,0.4c-0.2,1-0.9,1.4-1.8,1.5c-0.9,0.1-1.7-0.3-2.1-1.1c-0.9-1.6-0.8-3.2,0-4.8C77.4,25.5,78.1,25.2,78.9,25.2"
		/>
	<path class="st0" d="M101.6,32c-1.4,0-2.7,0-4.1,0c-0.5,0-0.6-0.1-0.6-0.6c0-2.1,0-4.1,0-6.2c0-0.5,0.2-1.2-0.1-1.6
		c-0.3-0.3-1-0.1-1.6-0.1c-0.4,0-0.5,0.1-0.5,0.5c0,1.5,0,3.1,0,4.6c0,1.5,0,3.1,0,4.6c0,0.5,0.1,0.6,0.6,0.6c1.8,0,3.6,0,5.4,0
		c1.4,0,1.3,0,1.3-1.4C102.1,32.1,102,32,101.6,32"/>
</g>
</svg>
