<?xml version="1.0" encoding="utf-8"?>
<!-- Generator: Adobe Illustrator 22.0.1, SVG Export Plug-In . SVG Version: 6.00 Build 0)  -->
<svg version="1.0" id="Capa_1" xmlns="http://www.w3.org/2000/svg" xmlns:xlink="http://www.w3.org/1999/xlink" x="0px" y="0px"
	 viewBox="0 0 158 158" style="enable-background:new 0 0 158 158;" xml:space="preserve">
<style type="text/css">
	.st0{fill:#FFFFFF;}
</style>
<g>
	<path class="st0" d="M99.5,21.4h-2.8v4.5h2.6c0.8,0,1.4-0.2,1.8-0.6c0.4-0.4,0.6-0.9,0.6-1.7C101.7,22.2,101,21.4,99.5,21.4"/>
	<polygon class="st0" points="72.8,28.1 76.9,28.1 74.8,22.9 	"/>
	<path class="st0" d="M5,79.4H153V3.3H5V79.4z M109.2,15.9h18.7v5.2h-5.8v16.2h-7.2V21.1h-5.7V15.9z M26.9,15.5
		c1.1,0,2.3,0.1,3.6,0.3c1.3,0.2,2.4,0.4,3.3,0.7v5.6c-2.1-0.8-4-1.2-5.7-1.2c-1,0-1.7,0.1-2.2,0.2c-0.5,0.2-0.8,0.5-0.8,0.9
		c0,0.3,0.1,0.5,0.4,0.7c0.2,0.2,0.6,0.3,1,0.5s1.2,0.3,2.3,0.6c1.7,0.5,3,1,3.9,1.7c0.9,0.7,1.5,1.4,1.9,2.3
		c0.3,0.9,0.5,1.9,0.5,3.2c0,2-0.8,3.7-2.4,4.9c-1.6,1.2-3.9,1.8-6.9,1.8c-1.5,0-2.9-0.1-4.2-0.4c-1.3-0.2-2.5-0.6-3.4-1v-5.6
		c1,0.5,2.2,0.9,3.5,1.2c1.3,0.3,2.4,0.5,3.4,0.5c0.9,0,1.6-0.1,2.1-0.3c0.5-0.2,0.7-0.5,0.7-1c0-0.4-0.2-0.7-0.6-1
		c-0.4-0.2-1.2-0.5-2.4-0.9c-0.3-0.1-0.8-0.2-1.3-0.4c-1.4-0.5-2.6-1-3.4-1.6c-0.8-0.6-1.4-1.2-1.7-2c-0.4-0.8-0.5-1.8-0.5-3
		C17.7,17.7,20.8,15.5,26.9,15.5 M36.8,67c-1,0.4-2.1,0.7-3.1,0.8s-2.2,0.3-3.5,0.3c-4,0-7.1-0.9-9.2-2.8c-2.1-1.9-3.2-4.6-3.2-8.2
		c0-3.6,1-6.4,3.1-8.3c2.1-1.9,5.1-2.8,9.2-2.8c1.3,0,2.5,0.1,3.5,0.3c1,0.2,2.1,0.5,3.1,0.9v6.2c-2-0.9-4.1-1.3-6.2-1.3
		c-1.8,0-3.2,0.4-4.1,1.2c-0.9,0.8-1.4,2.1-1.4,3.9c0,1.7,0.5,3,1.4,3.8c0.9,0.8,2.3,1.2,4.2,1.2c2.2,0,4.2-0.4,6.2-1.3V67z
		 M46.6,67.8h-7.2V46.3h7.2V67.8z M44.8,28.2v9.1h-7.2V15.9h6.9l4.9,9.9l4.8-9.9H61v21.5h-7.2v-9.1l-2.7,5.5h-3.7L44.8,28.2z
		 M67.3,51.6h-5.8v16.2h-7.2V51.6h-5.7v-5.2h18.7V51.6z M76.5,67.8h-7.2V46.3h7.2V67.8z M72,33.1l-1.6,4.3h-7.5l8.2-21.5h7.5
		l8.3,21.5h-7.5l-1.7-4.3H72z M97.4,67.8H79.1v-3.5L87.7,52h-8.1v-5.7h17.6v3.9l-8.5,12.1h8.7V67.8z M98.6,31.7
		c-0.2-0.1-0.5-0.2-0.8-0.2h-1v5.9h-7.2V15.9h11.6c2.6,0,4.6,0.7,5.9,2.1c1.3,1.4,2,3.3,2,5.7c0,1.4-0.3,2.6-1,3.8
		c-0.7,1.1-1.6,2-2.8,2.7c0.4,0.3,0.8,0.8,1.1,1.5l2.5,5.7h-7.5l-2.2-5C98.9,32,98.7,31.8,98.6,31.7 M116.6,51.6H107v2.7h8.3v5.4
		H107v2.7h9.5v5.3H99.9V46.3h16.7V51.6z M139.3,67.8h-6.1l-7-9.9v9.9h-7.2V46.3h6l7.1,9.9v-9.9h7.2V67.8z"/>
	<path class="st0" d="M5,154.7h67.8V86.9H5V154.7z M46.4,116c0.7,0.7,1.1,1.6,1.1,2.7v1.8H45v-1.9c0-0.4-0.1-0.7-0.4-1
		c-0.3-0.3-0.6-0.4-1-0.4c-0.4,0-0.7,0.1-1,0.4c-0.3,0.3-0.4,0.6-0.4,1v8.7c0,0.4,0.1,0.7,0.4,1c0.3,0.3,0.6,0.4,1,0.4
		c0.4,0,0.7-0.1,1-0.4c0.3-0.3,0.4-0.6,0.4-1v-2.2h2.5v2.2c0,1.1-0.4,2-1.1,2.7c-0.7,0.7-1.6,1.1-2.7,1.1c-1.1,0-2-0.4-2.7-1.1
		c-0.7-0.7-1.1-1.6-1.1-2.7v-8.7c0-1.1,0.4-2,1.1-2.7c0.7-0.7,1.6-1.1,2.7-1.1C44.8,114.9,45.7,115.3,46.4,116 M58.7,131.5
		c-4.7,10.9-17.4,16-28.4,11.3c-10.9-4.7-16-17.4-11.3-28.4c2.8-6.4,8.3-10.8,14.6-12.4l-1.3-4.5c-0.1-0.5,0.1-0.7,0.6-0.5l10,4
		c0.4,0.2,0.6,0.6,0.3,1l-6.2,8.8c-0.3,0.4-0.6,0.3-0.7-0.1l-1.5-5c-5.3,1.2-9.9,4.8-12.2,10.1c-3.8,8.9,0.3,19.2,9.2,23.1
		c8.9,3.8,19.2-0.3,23.1-9.2c2.5-5.8,1.6-12.1-1.7-16.9c-0.6-0.9-0.4-2.1,0.4-2.8c0.9-0.7,2.3-0.5,3,0.5
		C60.7,116.5,61.8,124.4,58.7,131.5 M34.9,125.1c-0.5-0.5-1.2-1.1-2.2-2c-0.8-0.8-1.4-1.5-1.7-2.1c-0.4-0.7-0.5-1.5-0.5-2.3
		c0-1.5,0.5-2.6,1.5-3.3c0.6-0.5,1.4-0.7,2.3-0.7c0.9,0,1.6,0.2,2.2,0.6c0.5,0.3,0.9,0.7,1.2,1.3c0.3,0.5,0.5,1.2,0.5,1.9l-2.3,0.4
		c-0.1-0.7-0.3-1.2-0.6-1.5c-0.2-0.3-0.5-0.4-1-0.4c-0.4,0-0.8,0.2-1,0.6c-0.2,0.3-0.3,0.7-0.3,1.2c0,0.7,0.3,1.5,1,2.2
		c0.2,0.3,0.6,0.6,1.1,1c0.6,0.5,0.9,0.8,1.1,1c0.6,0.6,1.1,1.2,1.4,1.8c0.2,0.3,0.3,0.5,0.4,0.8c0.2,0.6,0.4,1.1,0.4,1.5
		c0,1.1-0.3,2.1-0.9,2.9c-0.4,0.5-0.9,0.9-1.7,1.1c-0.4,0.1-0.8,0.2-1.4,0.2c-0.9,0-1.7-0.2-2.4-0.7c-0.5-0.4-0.9-0.9-1.2-1.6
		c-0.3-0.7-0.5-1.4-0.5-2.3l2.3-0.2c0.1,0.9,0.4,1.6,0.7,2c0.3,0.3,0.6,0.5,1,0.5c0.5,0,1-0.3,1.3-0.8c0.2-0.2,0.2-0.6,0.2-1.1
		C35.8,126.5,35.5,125.8,34.9,125.1"/>
</g>
</svg>
