<?xml version="1.0" encoding="utf-8"?>
<!-- Generator: Adobe Illustrator 22.0.1, SVG Export Plug-In . SVG Version: 6.00 Build 0)  -->
<svg version="1.0" id="Capa_1" xmlns="http://www.w3.org/2000/svg" xmlns:xlink="http://www.w3.org/1999/xlink" x="0px" y="0px"
	 viewBox="0 0 137.4 142.9" style="enable-background:new 0 0 137.4 142.9;" xml:space="preserve">
<style type="text/css">
	.st0{fill:#0019FF;}
</style>
<g>
	<path class="st0" d="M112.3,60.1c0.1-1,0.1-2,0.1-3c0-17.9-13.8-32.4-30.8-32.4c-13.2,0-24.4,8.7-28.8,21c-2.9-3.4-7-5.5-11.7-5.5
		c-8.8,0-15.9,7.5-15.9,16.7c0,1.1,0.1,2.1,0.3,3.1C14,62.1,5.1,72.7,5.1,85.6c0,14.3,11,25.9,24.6,25.9H41h10.2l0,0v-6.2h-1.4
		c-3.1,0-5.9-1.8-7.2-4.6c-1.3-2.8-0.9-6.1,1.1-8.5l0.1-0.1l0.1-0.1l18.6-20.4c0.7-0.9,1.7-1.7,2.8-2.2c1.1-0.5,2.2-0.7,3.3-0.7
		c1.2,0,2.4,0.3,3.5,0.8c1,0.5,1.8,1.1,2.5,2L93.5,92l0.1,0.1l0.1,0.1c1,1.2,1.6,2.6,1.8,4.2c0.2,1.5-0.1,2.9-0.7,4.3
		c-0.6,1.3-1.6,2.5-2.9,3.3c-0.8,0.5-1.5,0.8-2.2,1l-0.8,0.3h-1.4h-1.4v6.1l0,0h15.1h6.5c13.6,0,24.6-11.6,24.6-25.9
		C132.4,72.9,123.7,62.4,112.3,60.1z"/>
	<path class="st0" d="M79.8,98.4c0.1,0,0.2-0.1,0.4-0.1h7.4c0.1,0,0.1,0,0.2,0c0.1,0,0.2,0,0.3-0.1c0,0,0.1,0,0.1,0
		c0.1,0,0.1-0.1,0.1-0.1c0.1-0.1,0.2-0.2,0.2-0.3c0-0.1,0-0.2,0-0.2c0-0.1,0.1-0.2,0-0.3c0-0.1-0.1-0.2-0.1-0.3c0-0.1,0-0.1-0.1-0.2
		l-15-16.5L69.4,76c-0.1-0.1-0.2-0.2-0.4-0.3c0,0,0,0,0,0c-0.1-0.1-0.3-0.1-0.4-0.1c-0.1,0-0.2,0-0.3,0.1c0,0,0,0-0.1,0
		c0,0-0.1,0.1-0.1,0.1c-0.1,0.1-0.2,0.1-0.3,0.2L54.1,91.1l-5,5.5c-0.1,0.2-0.2,0.3-0.2,0.5c0,0.2,0,0.4,0.1,0.5
		c0.1,0.3,0.5,0.6,0.9,0.6h7.4c0.5,0,1,0.4,1,1l0,0v12.2l0,0v5.7c0,0.2,0.1,0.4,0.2,0.5c0.1,0.2,0.3,0.3,0.4,0.4
		c0.1,0,0.2,0.1,0.4,0.1H78c0.2,0,0.4,0,0.5-0.1c0.1,0,0.3-0.1,0.4-0.2c0,0,0,0,0,0c0.1-0.1,0.2-0.2,0.2-0.3
		c0.1-0.1,0.1-0.2,0.1-0.4v-5.7l0,0V99.3C79.2,98.9,79.5,98.6,79.8,98.4z"/>
</g>
</svg>
