<?xml version="1.0" encoding="utf-8"?>
<!-- Generator: Adobe Illustrator 22.0.1, SVG Export Plug-In . SVG Version: 6.00 Build 0)  -->
<svg version="1.0" id="Capa_1" xmlns="http://www.w3.org/2000/svg" xmlns:xlink="http://www.w3.org/1999/xlink" x="0px" y="0px"
	 viewBox="0 0 137.4 142.9" style="enable-background:new 0 0 137.4 142.9;" xml:space="preserve">
<style type="text/css">
	.st0{fill:#5B22B2;}
</style>
<path class="st0" d="M111.2,36.7C110.8,19,97,4.8,80,4.7c-11.3,0-21.3,6.4-26.7,15.9c-2.5-1.5-5.5-2.3-8.6-2.3
	c-9.8,0-17.8,8.2-18.1,18.4C16.2,40.2,8.8,50.4,8.8,62.4c0,15,11.6,27.1,25.8,27.1v0h68.3c14.2,0,25.8-12.2,25.8-27.1
	C128.7,50.5,121.3,40.4,111.2,36.7 M40.9,124.4c0-5,0.1-24.6,0.1-24.6c0-1.9-1-3.5-2.7-4.2c-1.6-0.7-3.5-0.3-4.7,1.1
	c0,0.1-4.5,5-8.9,10.6c-2.3,2.8-4.5,5.8-6.3,8.6c-1.7,2.9-3.2,4.8-3.5,8.5c0,7.6,5.8,13.7,13,13.7C35.1,138.1,40.9,132,40.9,124.4
	 M23.5,124.6c0.4-1.6,4.6-7.8,8.6-12.5c0.1-0.2,0.2-0.3,0.4-0.4c0,5.1-0.1,10.4-0.1,12.7c0,2.6-2,4.7-4.4,4.7
	C25.5,129.1,23.6,127.1,23.5,124.6 M72.7,124.4c0-5,0.1-24.5,0.1-24.5c0-1.9-1.1-3.5-2.7-4.2c-1.6-0.7-3.5-0.3-4.7,1.1
	c0,0.1-4.5,5-9,10.6c-2.2,2.8-4.5,5.8-6.3,8.6c-1.7,2.9-3.2,4.8-3.5,8.5c0,7.6,5.8,13.7,13,13.7C66.9,138.1,72.7,132,72.7,124.4
	 M55.3,124.6c0.4-1.6,4.7-7.8,8.5-12.5c0.1-0.2,0.2-0.3,0.4-0.4c0,5.1,0,10.4,0,12.7c0,2.6-2,4.7-4.4,4.7
	C57.3,129.1,55.4,127.1,55.3,124.6 M102.2,95.6c-1.6-0.7-3.5-0.3-4.7,1.1c0,0.1-4.4,5-8.9,10.6c-2.3,2.8-4.5,5.8-6.3,8.6
	c-1.7,2.9-3.3,4.8-3.5,8.5c0,7.6,5.8,13.7,13,13.7c7.2,0,13-6.2,13-13.7c0-5,0.1-24.6,0.1-24.6C104.9,98,103.8,96.3,102.2,95.6
	 M96.2,124.4c0,2.6-2,4.6-4.4,4.7c-2.4,0-4.3-2-4.4-4.4c0.4-1.6,4.7-7.8,8.6-12.5c0.1-0.2,0.2-0.3,0.3-0.4
	C96.2,116.8,96.2,122.1,96.2,124.4"/>
</svg>
