<?xml version="1.0" encoding="utf-8"?>
<!-- Generator: Adobe Illustrator 22.0.1, SVG Export Plug-In . SVG Version: 6.00 Build 0)  -->
<svg version="1.0" id="Capa_1" xmlns="http://www.w3.org/2000/svg" xmlns:xlink="http://www.w3.org/1999/xlink" x="0px" y="0px"
	 viewBox="0 0 137.4 142.9" style="enable-background:new 0 0 137.4 142.9;" xml:space="preserve">
<style type="text/css">
	.st0{fill:#FF3A4B;}
</style>
<g>
	<g>
		<path class="st0" d="M106.9,87.6c8.9-3.9,12.9-14.3,9-23.2c-1.8-4-5-7.2-9-9c-2-0.8-4.3,0.1-5.1,2.1c-0.8,1.9,0,4.2,1.9,5.1
			c5,2.2,7.2,7.9,5,12.9c-1,2.3-2.8,4-5,5c-2,0.8-2.9,3.1-2.1,5.1c0.8,2,3.1,2.9,5.1,2.1C106.8,87.6,106.9,87.6,106.9,87.6
			L106.9,87.6z"/>
		<path class="st0" d="M107.4,40.9c-2.1-0.4-4.2,1-4.6,3.1c-0.4,2.1,1,4.2,3.1,4.6l0,0c12.6,2.6,20.7,15,18.1,27.7
			c-1.9,9.1-9,16.2-18.1,18.1c-2.1,0.4-3.5,2.5-3.1,4.6c0.4,2.1,2.5,3.5,4.6,3.1c16.9-3.4,27.8-19.9,24.4-36.8
			C129.3,52.9,119.7,43.3,107.4,40.9L107.4,40.9z"/>
	</g>
	<path class="st0" d="M77.9,120.3L38.1,98.6V44.2l39.8-21.7c6.6-3.6,14.6,1.2,14.6,8.7v80.5C92.5,119.2,84.5,123.9,77.9,120.3z"/>
	<path class="st0" d="M31.4,97.8L31.4,97.8C16.9,97.8,5.1,86,5.1,71.4v0c0-14.6,11.8-26.4,26.4-26.4h0V97.8z"/>
</g>
</svg>
