<?xml version="1.0" encoding="utf-8"?>
<!-- Generator: Adobe Illustrator 22.0.1, SVG Export Plug-In . SVG Version: 6.00 Build 0)  -->
<svg version="1.0" id="Capa_1" xmlns="http://www.w3.org/2000/svg" xmlns:xlink="http://www.w3.org/1999/xlink" x="0px" y="0px"
	 viewBox="0 0 137.4 142.9" style="enable-background:new 0 0 137.4 142.9;" xml:space="preserve">
<style type="text/css">
	.st0{fill:#5B22B2;}
</style>
<g>
	<g>
		<path class="st0" d="M68.7,120.2c6.2,0,11.3-5,11.3-11.3c0-6.2-5-11.3-11.3-11.3c-6.2,0-11.3,5-11.3,11.3
			C57.5,115.2,62.5,120.2,68.7,120.2z"/>
		<path class="st0" d="M68.7,137.1c15.5,0,28.1-12.6,28.1-28.1c0-10.1-5.3-19.2-14.1-24.3v-21h-4.2c-1.5,0-2.8-1.3-2.8-2.8
			c0-1.5,1.3-2.8,2.8-2.8h4.2v-7h-4.2c-1.5,0-2.8-1.3-2.8-2.8c0-1.5,1.3-2.8,2.8-2.8h4.2v-7h-4.2c-1.5,0-2.8-1.3-2.8-2.8
			c0-1.5,1.3-2.8,2.8-2.8h4.2V19.8c0-7.8-6.3-14.1-14.1-14.1c-7.8,0-14.1,6.3-14.1,14.1v64.9c-8.7,5-14.1,14.2-14.1,24.3
			C40.6,124.5,53.2,137.1,68.7,137.1z M66,92.4c0-0.2-0.1-0.3-0.1-0.5V24.3c0-1.5,1.3-2.8,2.8-2.8s2.8,1.3,2.8,2.8v67.5
			c0,0.2-0.1,0.3-0.1,0.5c8,1.3,14.2,8.2,14.2,16.6c0,9.3-7.6,16.9-16.9,16.9c-9.3,0-16.9-7.6-16.9-16.9C51.8,100.6,58,93.7,66,92.4
			z"/>
	</g>
</g>
</svg>
